ISO-10303-21;
HEADER;
FILE_DESCRIPTION (( 'STEP AP214' ),
    '1' );
FILE_NAME ('XFL4020-152MEB.STEP',
    '2021-07-19T10:47:23',
    ( '' ),
    ( '' ),
    'SwSTEP 2.0',
    'SolidWorks 2018',
    '' );
FILE_SCHEMA (( 'AUTOMOTIVE_DESIGN' ));
ENDSEC;

DATA;
#1 = VERTEX_POINT ( 'NONE', #269 ) ;
#2 = FILL_AREA_STYLE_COLOUR ( '', #171 ) ;
#3 = DIRECTION ( 'NONE',  ( 0.0000000000000000000, 1.000000000000000000, 0.0000000000000000000 ) ) ;
#4 = UNCERTAINTY_MEASURE_WITH_UNIT (LENGTH_MEASURE( 1.000000000000000082E-05 ), #742, 'distance_accuracy_value', 'NONE');
#5 = ORIENTED_EDGE ( 'NONE', *, *, #483, .F. ) ;
#6 = FACE_OUTER_BOUND ( 'NONE', #475, .T. ) ;
#7 = CARTESIAN_POINT ( 'NONE',  ( 1.604999999999999982, -1.000000000000000222, -1.625000000000000000 ) ) ;
#8 = VERTEX_POINT ( 'NONE', #578 ) ;
#9 = AXIS2_PLACEMENT_3D ( 'NONE', #674, #733, #11 ) ;
#10 = ORIENTED_EDGE ( 'NONE', *, *, #672, .F. ) ;
#11 = DIRECTION ( 'NONE',  ( 1.000000000000000000, 0.0000000000000000000, -3.336006684570781499E-17 ) ) ;
#12 = EDGE_CURVE ( 'NONE', #207, #246, #388, .T. ) ;
#13 = ORIENTED_EDGE ( 'NONE', *, *, #780, .T. ) ;
#14 = ORIENTED_EDGE ( 'NONE', *, *, #705, .F. ) ;
#15 = EDGE_CURVE ( 'NONE', #407, #582, #395, .T. ) ;
#16 = DIRECTION ( 'NONE',  ( 1.057758217059031467E-15, 0.0000000000000000000, -1.000000000000000000 ) ) ;
#17 = DIRECTION ( 'NONE',  ( 0.0000000000000000000, 0.0000000000000000000, -1.000000000000000000 ) ) ;
#18 = ORIENTED_EDGE ( 'NONE', *, *, #604, .F. ) ;
#19 = DIRECTION ( 'NONE',  ( 0.0000000000000000000, -0.0000000000000000000, 1.000000000000000000 ) ) ;
#20 = ORIENTED_EDGE ( 'NONE', *, *, #277, .F. ) ;
#21 =( NAMED_UNIT ( * ) SI_UNIT ( $, .STERADIAN. ) SOLID_ANGLE_UNIT ( ) );
#22 = CIRCLE ( 'NONE', #708, 0.1000000000000000472 ) ;
#23 = CARTESIAN_POINT ( 'NONE',  ( 1.555000000000000160, -1.050000000000000044, -1.574999999999999956 ) ) ;
#24 = ORIENTED_EDGE ( 'NONE', *, *, #15, .F. ) ;
#25 = DIRECTION ( 'NONE',  ( 1.000000000000000000, 0.0000000000000000000, 0.0000000000000000000 ) ) ;
#26 = ORIENTED_EDGE ( 'NONE', *, *, #683, .F. ) ;
#27 = CARTESIAN_POINT ( 'NONE',  ( 2.000000000000000000, 1.050000000000000044, -1.899999999999999911 ) ) ;
#28 = EDGE_CURVE ( 'NONE', #476, #417, #346, .T. ) ;
#29 = CARTESIAN_POINT ( 'NONE',  ( -1.899999999999999911, -1.000000000000000222, -2.000000000000000000 ) ) ;
#30 = SURFACE_STYLE_USAGE ( .BOTH. , #386 ) ;
#31 = EDGE_LOOP ( 'NONE', ( #141, #232, #570, #345 ) ) ;
#32 =( NAMED_UNIT ( * ) PLANE_ANGLE_UNIT ( ) SI_UNIT ( $, .RADIAN. ) );
#33 = LINE ( 'NONE', #482, #261 ) ;
#34 = DIRECTION ( 'NONE',  ( 0.0000000000000000000, 0.0000000000000000000, 1.000000000000000000 ) ) ;
#35 = DIRECTION ( 'NONE',  ( 0.0000000000000000000, 0.0000000000000000000, 1.000000000000000000 ) ) ;
#36 = AXIS2_PLACEMENT_3D ( 'NONE', #212, #358, #755 ) ;
#37 = DIRECTION ( 'NONE',  ( 0.0000000000000000000, 0.0000000000000000000, 1.000000000000000000 ) ) ;
#38 = VERTEX_POINT ( 'NONE', #586 ) ;
#39 = EDGE_LOOP ( 'NONE', ( #191, #703, #606, #13 ) ) ;
#40 = DIRECTION ( 'NONE',  ( 0.0000000000000000000, -0.0000000000000000000, 1.000000000000000000 ) ) ;
#41 = EDGE_CURVE ( 'NONE', #737, #38, #707, .T. ) ;
#42 = DIRECTION ( 'NONE',  ( 0.0000000000000000000, 0.0000000000000000000, -1.000000000000000000 ) ) ;
#43 = AXIS2_PLACEMENT_3D ( 'NONE', #107, #157, #687 ) ;
#44 = SURFACE_SIDE_STYLE ('',( #350 ) ) ;
#45 = ORIENTED_EDGE ( 'NONE', *, *, #705, .T. ) ;
#46 = CARTESIAN_POINT ( 'NONE',  ( -1.899999999999999911, 1.050000000000000044, -2.000000000000000000 ) ) ;
#47 = EDGE_CURVE ( 'NONE', #771, #547, #355, .T. ) ;
#48 = COLOUR_RGB ( '',0.2509803921568627416, 0.2509803921568627416, 0.2509803921568627416 ) ;
#49 =( NAMED_UNIT ( * ) PLANE_ANGLE_UNIT ( ) SI_UNIT ( $, .RADIAN. ) );
#50 = ORIENTED_EDGE ( 'NONE', *, *, #643, .T. ) ;
#51 = SHAPE_DEFINITION_REPRESENTATION ( #148, #726 ) ;
#52 = VERTEX_POINT ( 'NONE', #659 ) ;
#53 = AXIS2_PLACEMENT_3D ( 'NONE', #429, #497, #16 ) ;
#54 = CARTESIAN_POINT ( 'NONE',  ( -0.7849999999999994760, -1.000000000000000222, -1.625000000000000222 ) ) ;
#55 = DIRECTION ( 'NONE',  ( 0.0000000000000000000, 0.0000000000000000000, 1.000000000000000000 ) ) ;
#56 = FILL_AREA_STYLE ('',( #2 ) ) ;
#57 = EDGE_CURVE ( 'NONE', #61, #207, #764, .T. ) ;
#58 = CARTESIAN_POINT ( 'NONE',  ( 1.554999999999999272, -1.050000000000000044, 1.625000000000000000 ) ) ;
#59 = ORIENTED_EDGE ( 'NONE', *, *, #47, .T. ) ;
#60 = CARTESIAN_POINT ( 'NONE',  ( -1.554999999999999716, -1.050000000000000044, -1.575000000000000400 ) ) ;
#61 = VERTEX_POINT ( 'NONE', #382 ) ;
#62 = SURFACE_STYLE_FILL_AREA ( #579 ) ;
#63 = FILL_AREA_STYLE_COLOUR ( '', #642 ) ;
#64 = SURFACE_STYLE_FILL_AREA ( #427 ) ;
#65 = PRESENTATION_STYLE_ASSIGNMENT (( #724 ) ) ;
#66 = FILL_AREA_STYLE_COLOUR ( '', #670 ) ;
#67 = DIRECTION ( 'NONE',  ( 1.000000000000000000, 0.0000000000000000000, -2.644395542647571766E-16 ) ) ;
#68 = UNCERTAINTY_MEASURE_WITH_UNIT (LENGTH_MEASURE( 1.000000000000000082E-05 ), #479, 'distance_accuracy_value', 'NONE');
#69 = PRESENTATION_LAYER_ASSIGNMENT (  '', '', ( #316 ) ) ;
#70 = DIRECTION ( 'NONE',  ( 0.0000000000000000000, 0.0000000000000000000, 1.000000000000000000 ) ) ;
#71 = ORIENTED_EDGE ( 'NONE', *, *, #507, .T. ) ;
#72 = UNCERTAINTY_MEASURE_WITH_UNIT (LENGTH_MEASURE( 1.000000000000000082E-05 ), #151, 'distance_accuracy_value', 'NONE');
#73 = DIRECTION ( 'NONE',  ( -1.000000000000000000, 0.0000000000000000000, -3.002406016113702425E-16 ) ) ;
#74 = COLOUR_RGB ( '',0.2509803921568627416, 0.2509803921568627416, 0.2509803921568627416 ) ;
#75 = VERTEX_POINT ( 'NONE', #23 ) ;
#76 = PLANE ( 'NONE',  #36 ) ;
#77 = SURFACE_SIDE_STYLE ('',( #64 ) ) ;
#78 = ORIENTED_EDGE ( 'NONE', *, *, #301, .T. ) ;
#79 = PRESENTATION_LAYER_ASSIGNMENT (  '', '', ( #776 ) ) ;
#80 = LINE ( 'NONE', #600, #394 ) ;
#81 = SURFACE_STYLE_USAGE ( .BOTH. , #525 ) ;
#82 = CARTESIAN_POINT ( 'NONE',  ( -0.8350000000000004086, -1.050000000000000044, 1.574999999999998845 ) ) ;
#83 = APPLICATION_PROTOCOL_DEFINITION ( 'draft international standard', 'automotive_design', 1998, #146 ) ;
#84 = EDGE_CURVE ( 'NONE', #745, #487, #568, .T. ) ;
#85 = PRESENTATION_LAYER_ASSIGNMENT (  '', '', ( #783 ) ) ;
#86 = CARTESIAN_POINT ( 'NONE',  ( 1.899999999999999689, 1.050000000000000044, -2.000000000000000000 ) ) ;
#87 = APPLICATION_CONTEXT ( 'automotive_design' ) ;
#88 = FACE_OUTER_BOUND ( 'NONE', #750, .T. ) ;
#89 = DIRECTION ( 'NONE',  ( -2.644395542647578669E-16, 0.0000000000000000000, 1.000000000000000000 ) ) ;
#90 = SURFACE_STYLE_FILL_AREA ( #467 ) ;
#91 = ORIENTED_EDGE ( 'NONE', *, *, #97, .T. ) ;
#92 = SURFACE_STYLE_USAGE ( .BOTH. , #623 ) ;
#93 = EDGE_CURVE ( 'NONE', #487, #421, #554, .T. ) ;
#94 = CARTESIAN_POINT ( 'NONE',  ( 0.8349999999999999645, -1.050000000000000044, -1.574999999999999956 ) ) ;
#95 = AXIS2_PLACEMENT_3D ( 'NONE', #552, #432, #35 ) ;
#96 = DIRECTION ( 'NONE',  ( 0.0000000000000000000, -1.000000000000000000, 0.0000000000000000000 ) ) ;
#97 = EDGE_CURVE ( 'NONE', #582, #487, #369, .T. ) ;
#98 = VERTEX_POINT ( 'NONE', #567 ) ;
#99 = ORIENTED_EDGE ( 'NONE', *, *, #301, .F. ) ;
#100 =( NAMED_UNIT ( * ) PLANE_ANGLE_UNIT ( ) SI_UNIT ( $, .RADIAN. ) );
#101 = LINE ( 'NONE', #136, #389 ) ;
#102 = FACE_OUTER_BOUND ( 'NONE', #39, .T. ) ;
#103 = LINE ( 'NONE', #241, #145 ) ;
#104 = CYLINDRICAL_SURFACE ( 'NONE', #323, 0.04999999999999991257 ) ;
#105 = DIRECTION ( 'NONE',  ( 2.668805347656626678E-16, 0.0000000000000000000, -1.000000000000000000 ) ) ;
#106 = CARTESIAN_POINT ( 'NONE',  ( -1.899999999999999911, -1.000000000000000444, 2.000000000000000000 ) ) ;
#107 = CARTESIAN_POINT ( 'NONE',  ( -2.000000000000000000, 1.050000000000000044, -2.000000000000000000 ) ) ;
#108 = VERTEX_POINT ( 'NONE', #158 ) ;
#109 = MECHANICAL_DESIGN_GEOMETRIC_PRESENTATION_REPRESENTATION (  '', ( #316 ), #331 ) ;
#110 = LINE ( 'NONE', #440, #466 ) ;
#111 = ORIENTED_EDGE ( 'NONE', *, *, #483, .T. ) ;
#112 = CARTESIAN_POINT ( 'NONE',  ( 0.8350000000000000755, -1.050000000000000044, 1.574999999999999067 ) ) ;
#113 = CYLINDRICAL_SURFACE ( 'NONE', #423, 0.05000000000000002359 ) ;
#114 = CARTESIAN_POINT ( 'NONE',  ( -1.555000000000000604, -1.050000000000000044, 1.574999999999999067 ) ) ;
#115 = VECTOR ( 'NONE', #193, 1000.000000000000000 ) ;
#116 = CARTESIAN_POINT ( 'NONE',  ( 1.899999999999999689, 1.050000000000000044, 2.000000000000000000 ) ) ;
#117 = DIRECTION ( 'NONE',  ( 0.0000000000000000000, 0.0000000000000000000, 1.000000000000000000 ) ) ;
#118 = CARTESIAN_POINT ( 'NONE',  ( -1.899999999999999911, 1.050000000000000044, -1.899999999999999911 ) ) ;
#119 = FACE_OUTER_BOUND ( 'NONE', #406, .T. ) ;
#120 =( NAMED_UNIT ( * ) SI_UNIT ( $, .STERADIAN. ) SOLID_ANGLE_UNIT ( ) );
#121 = ORIENTED_EDGE ( 'NONE', *, *, #277, .T. ) ;
#122 = DIRECTION ( 'NONE',  ( -1.000000000000000000, 0.0000000000000000000, 0.0000000000000000000 ) ) ;
#123 = ORIENTED_EDGE ( 'NONE', *, *, #625, .T. ) ;
#124 = CIRCLE ( 'NONE', #95, 0.09999999999999982514 ) ;
#125 = PLANE ( 'NONE',  #624 ) ;
#126 = MECHANICAL_DESIGN_GEOMETRIC_PRESENTATION_REPRESENTATION (  '', ( #776 ), #159 ) ;
#127 = EDGE_CURVE ( 'NONE', #204, #61, #596, .T. ) ;
#128 = ORIENTED_EDGE ( 'NONE', *, *, #385, .F. ) ;
#129 = MECHANICAL_DESIGN_GEOMETRIC_PRESENTATION_REPRESENTATION (  '', ( #783 ), #164 ) ;
#130 = EDGE_LOOP ( 'NONE', ( #535, #91, #254, #237 ) ) ;
#131 = UNCERTAINTY_MEASURE_WITH_UNIT (LENGTH_MEASURE( 1.000000000000000082E-05 ), #282, 'distance_accuracy_value', 'NONE');
#132 = CARTESIAN_POINT ( 'NONE',  ( 0.0000000000000000000, -1.000000000000000222, -1.574999999999999956 ) ) ;
#133 = FACE_OUTER_BOUND ( 'NONE', #259, .T. ) ;
#134 = CARTESIAN_POINT ( 'NONE',  ( 1.899999999999999689, -1.000000000000000222, 2.000000000000000000 ) ) ;
#135 = CARTESIAN_POINT ( 'NONE',  ( -2.000000000000000000, 1.050000000000000044, -2.000000000000000000 ) ) ;
#136 = CARTESIAN_POINT ( 'NONE',  ( -2.000000000000000000, 1.050000000000000044, 1.899999999999999689 ) ) ;
#137 = STYLED_ITEM ( 'NONE', ( #603 ), #726 ) ;
#138 = CARTESIAN_POINT ( 'NONE',  ( -1.555000000000000604, -1.050000000000000044, 1.574999999999999067 ) ) ;
#139 =( LENGTH_UNIT ( ) NAMED_UNIT ( * ) SI_UNIT ( .MILLI., .METRE. ) );
#140 = EDGE_CURVE ( 'NONE', #219, #38, #583, .T. ) ;
#141 = ORIENTED_EDGE ( 'NONE', *, *, #84, .T. ) ;
#142 = ADVANCED_FACE ( 'NONE', ( #442 ), #125, .F. ) ;
#143 = STYLED_ITEM ( 'NONE', ( #65 ), #184 ) ;
#144 = SURFACE_SIDE_STYLE ('',( #734 ) ) ;
#145 = VECTOR ( 'NONE', #300, 1000.000000000000000 ) ;
#146 = APPLICATION_CONTEXT ( 'automotive_design' ) ;
#147 = ORIENTED_EDGE ( 'NONE', *, *, #437, .F. ) ;
#148 = PRODUCT_DEFINITION_SHAPE ( 'NONE', 'NONE',  #400 ) ;
#149 = UNCERTAINTY_MEASURE_WITH_UNIT (LENGTH_MEASURE( 1.000000000000000082E-05 ), #139, 'distance_accuracy_value', 'NONE');
#150 =( NAMED_UNIT ( * ) SI_UNIT ( $, .STERADIAN. ) SOLID_ANGLE_UNIT ( ) );
#151 =( LENGTH_UNIT ( ) NAMED_UNIT ( * ) SI_UNIT ( .MILLI., .METRE. ) );
#152 = MANIFOLD_SOLID_BREP ( 'Fillet2', #595 ) ;
#153 = PRODUCT ( 'XFL4020-152MEB', 'XFL4020-152MEB', '', ( #436 ) ) ;
#154 = COLOUR_RGB ( '',0.2509803921568627416, 0.2509803921568627416, 0.2509803921568627416 ) ;
#155 = FACE_OUTER_BOUND ( 'NONE', #31, .T. ) ;
#156 = ORIENTED_EDGE ( 'NONE', *, *, #211, .T. ) ;
#157 = DIRECTION ( 'NONE',  ( 1.000000000000000000, 0.0000000000000000000, 0.0000000000000000000 ) ) ;
#158 = CARTESIAN_POINT ( 'NONE',  ( -2.000000000000000000, 1.050000000000000044, 1.899999999999999689 ) ) ;
#159 =( GEOMETRIC_REPRESENTATION_CONTEXT ( 3 ) GLOBAL_UNCERTAINTY_ASSIGNED_CONTEXT ( ( #202 ) ) GLOBAL_UNIT_ASSIGNED_CONTEXT ( ( #329, #100, #509 ) ) REPRESENTATION_CONTEXT ( 'NONE', 'WORKASPACE' ) );
#160 = CARTESIAN_POINT ( 'NONE',  ( 0.0000000000000000000, -1.050000000000000044, 0.0000000000000000000 ) ) ;
#161 = VECTOR ( 'NONE', #730, 1000.000000000000000 ) ;
#162 = CARTESIAN_POINT ( 'NONE',  ( -1.605000000000000426, -1.050000000000000044, 1.574999999999999067 ) ) ;
#163 = DIRECTION ( 'NONE',  ( -1.000000000000000000, 0.0000000000000000000, 0.0000000000000000000 ) ) ;
#164 =( GEOMETRIC_REPRESENTATION_CONTEXT ( 3 ) GLOBAL_UNCERTAINTY_ASSIGNED_CONTEXT ( ( #508 ) ) GLOBAL_UNIT_ASSIGNED_CONTEXT ( ( #489, #187, #539 ) ) REPRESENTATION_CONTEXT ( 'NONE', 'WORKASPACE' ) );
#165 = CYLINDRICAL_SURFACE ( 'NONE', #495, 0.04999999999999991257 ) ;
#166 = SURFACE_STYLE_USAGE ( .BOTH. , #44 ) ;
#167 = VECTOR ( 'NONE', #712, 1000.000000000000000 ) ;
#168 = ORIENTED_EDGE ( 'NONE', *, *, #93, .F. ) ;
#169 = COLOUR_RGB ( '',0.2509803921568627416, 0.2509803921568627416, 0.2509803921568627416 ) ;
#170 = CARTESIAN_POINT ( 'NONE',  ( 2.000000000000000000, 1.050000000000000044, -2.000000000000000000 ) ) ;
#171 = COLOUR_RGB ( '',0.7921568627450980005, 0.8196078431372548767, 0.9333333333333333481 ) ;
#172 = PRESENTATION_LAYER_ASSIGNMENT (  '', '', ( #137 ) ) ;
#173 = FILL_AREA_STYLE ('',( #778 ) ) ;
#174 = AXIS2_PLACEMENT_3D ( 'NONE', #500, #690, #42 ) ;
#175 = LINE ( 'NONE', #527, #115 ) ;
#176 = VECTOR ( 'NONE', #775, 1000.000000000000000 ) ;
#177 = CARTESIAN_POINT ( 'NONE',  ( 0.7850000000000000311, -1.000000000000000222, 1.624999999999999112 ) ) ;
#178 = CARTESIAN_POINT ( 'NONE',  ( -1.554999999999999716, -1.050000000000000044, -1.625000000000000888 ) ) ;
#179 =( NAMED_UNIT ( * ) SI_UNIT ( $, .STERADIAN. ) SOLID_ANGLE_UNIT ( ) );
#180 = PRESENTATION_LAYER_ASSIGNMENT (  '', '', ( #143 ) ) ;
#181 = VERTEX_POINT ( 'NONE', #106 ) ;
#182 = DIRECTION ( 'NONE',  ( 0.0000000000000000000, -1.000000000000000000, 0.0000000000000000000 ) ) ;
#183 = VECTOR ( 'NONE', #698, 1000.000000000000000 ) ;
#184 = ADVANCED_FACE ( 'NONE', ( #646 ), #608, .T. ) ;
#185 = CARTESIAN_POINT ( 'NONE',  ( -0.8057106781186543776, -1.050000000000000044, -1.604289321881344987 ) ) ;
#186 = AXIS2_PLACEMENT_3D ( 'NONE', #353, #3, #419 ) ;
#187 =( NAMED_UNIT ( * ) PLANE_ANGLE_UNIT ( ) SI_UNIT ( $, .RADIAN. ) );
#188 = SURFACE_STYLE_FILL_AREA ( #368 ) ;
#189 = LINE ( 'NONE', #177, #330 ) ;
#190 = FILL_AREA_STYLE_COLOUR ( '', #48 ) ;
#191 = ORIENTED_EDGE ( 'NONE', *, *, #584, .T. ) ;
#192 = ADVANCED_FACE ( 'NONE', ( #713 ), #268, .T. ) ;
#193 = DIRECTION ( 'NONE',  ( 1.000000000000000000, 0.0000000000000000000, 0.0000000000000000000 ) ) ;
#194 =( NAMED_UNIT ( * ) SI_UNIT ( $, .STERADIAN. ) SOLID_ANGLE_UNIT ( ) );
#195 = ADVANCED_FACE ( 'NONE', ( #119 ), #599, .F. ) ;
#196 = CARTESIAN_POINT ( 'NONE',  ( -2.000000000000000000, 1.050000000000000044, -2.000000000000000000 ) ) ;
#197 = CARTESIAN_POINT ( 'NONE',  ( 1.604999999999999316, -1.000000000000000222, 1.625000000000000000 ) ) ;
#198 = VERTEX_POINT ( 'NONE', #94 ) ;
#199 = SURFACE_SIDE_STYLE ('',( #270 ) ) ;
#200 = EDGE_CURVE ( 'NONE', #784, #181, #326, .T. ) ;
#201 = CYLINDRICAL_SURFACE ( 'NONE', #174, 0.1000000000000000472 ) ;
#202 = UNCERTAINTY_MEASURE_WITH_UNIT (LENGTH_MEASURE( 1.000000000000000082E-05 ), #329, 'distance_accuracy_value', 'NONE');
#203 = EDGE_LOOP ( 'NONE', ( #381, #702, #356, #471 ) ) ;
#204 = VERTEX_POINT ( 'NONE', #206 ) ;
#205 = FACE_OUTER_BOUND ( 'NONE', #221, .T. ) ;
#206 = CARTESIAN_POINT ( 'NONE',  ( 2.000000000000000000, 1.050000000000000044, 1.899999999999999689 ) ) ;
#207 = VERTEX_POINT ( 'NONE', #537 ) ;
#208 = SURFACE_SIDE_STYLE ('',( #62 ) ) ;
#209 = MECHANICAL_DESIGN_GEOMETRIC_PRESENTATION_REPRESENTATION (  '', ( #137 ), #250 ) ;
#210 = AXIS2_PLACEMENT_3D ( 'NONE', #379, #351, #264 ) ;
#211 = EDGE_CURVE ( 'NONE', #781, #737, #189, .T. ) ;
#212 = CARTESIAN_POINT ( 'NONE',  ( -1.899999999999999911, -1.000000000000000222, 1.899999999999999911 ) ) ;
#213 = VECTOR ( 'NONE', #441, 1000.000000000000000 ) ;
#214 = MECHANICAL_DESIGN_GEOMETRIC_PRESENTATION_REPRESENTATION (  '', ( #143 ), #255 ) ;
#215 = PLANE ( 'NONE',  #274 ) ;
#216 =( NAMED_UNIT ( * ) SI_UNIT ( $, .STERADIAN. ) SOLID_ANGLE_UNIT ( ) );
#217 = FILL_AREA_STYLE_COLOUR ( '', #154 ) ;
#218 = DIRECTION ( 'NONE',  ( 0.0000000000000000000, 0.0000000000000000000, -1.000000000000000000 ) ) ;
#219 = VERTEX_POINT ( 'NONE', #228 ) ;
#220 =( BOUNDED_CURVE ( )  B_SPLINE_CURVE ( 3, ( #667, #305, #360, #7 ),
 .UNSPECIFIED., .F., .F. ) 
 B_SPLINE_CURVE_WITH_KNOTS ( ( 4, 4 ),
 ( 1.570796326794896558, 3.141592653589793116 ),
 .UNSPECIFIED. ) 
 CURVE ( )  GEOMETRIC_REPRESENTATION_ITEM ( )  RATIONAL_B_SPLINE_CURVE ( ( 1.000000000000000000, 0.8047378541243649375, 0.8047378541243649375, 1.000000000000000000 ) ) 
 REPRESENTATION_ITEM ( '' )  );
#221 = EDGE_LOOP ( 'NONE', ( #688, #630, #746, #147 ) ) ;
#222 = AXIS2_PLACEMENT_3D ( 'NONE', #462, #67, #657 ) ;
#223 =( NAMED_UNIT ( * ) PLANE_ANGLE_UNIT ( ) SI_UNIT ( $, .RADIAN. ) );
#224 = ORIENTED_EDGE ( 'NONE', *, *, #393, .F. ) ;
#225 = FILL_AREA_STYLE ('',( #233 ) ) ;
#226 = CARTESIAN_POINT ( 'NONE',  ( 1.584289321881344526, -1.050000000000000044, 1.604289321881344987 ) ) ;
#227 = DIRECTION ( 'NONE',  ( 1.000000000000000000, -0.0000000000000000000, 2.644395542647571273E-16 ) ) ;
#228 = CARTESIAN_POINT ( 'NONE',  ( 1.554999999999999272, -1.050000000000000044, 1.574999999999999956 ) ) ;
#229 = ADVANCED_FACE ( 'NONE', ( #133 ), #650, .F. ) ;
#230 = CARTESIAN_POINT ( 'NONE',  ( -1.555000000000000160, -1.000000000000000222, -4.149992315606055298E-16 ) ) ;
#231 = CYLINDRICAL_SURFACE ( 'NONE', #303, 0.04999999999999991257 ) ;
#232 = ORIENTED_EDGE ( 'NONE', *, *, #93, .T. ) ;
#233 = FILL_AREA_STYLE_COLOUR ( '', #169 ) ;
#234 = AXIS2_PLACEMENT_3D ( 'NONE', #118, #470, #55 ) ;
#235 = CARTESIAN_POINT ( 'NONE',  ( -0.7849999999999992539, -1.000000000000000222, -1.625000000000000666 ) ) ;
#236 = ORIENTED_EDGE ( 'NONE', *, *, #97, .F. ) ;
#237 = ORIENTED_EDGE ( 'NONE', *, *, #551, .F. ) ;
#238 = CARTESIAN_POINT ( 'NONE',  ( 2.000000000000000000, 1.050000000000000044, -2.000000000000000000 ) ) ;
#239 = EDGE_CURVE ( 'NONE', #108, #784, #285, .T. ) ;
#240 = AXIS2_PLACEMENT_3D ( 'NONE', #644, #472, #34 ) ;
#241 = CARTESIAN_POINT ( 'NONE',  ( -1.899999999999999911, 1.050000000000000044, -2.000000000000000000 ) ) ;
#242 = ORIENTED_EDGE ( 'NONE', *, *, #12, .T. ) ;
#243 = VECTOR ( 'NONE', #218, 1000.000000000000000 ) ;
#244 = SURFACE_STYLE_FILL_AREA ( #601 ) ;
#245 = ADVANCED_FACE ( 'NONE', ( #666 ), #272, .F. ) ;
#246 = VERTEX_POINT ( 'NONE', #116 ) ;
#247 = LINE ( 'NONE', #655, #452 ) ;
#248 = ADVANCED_FACE ( 'NONE', ( #205 ), #165, .T. ) ;
#249 = CARTESIAN_POINT ( 'NONE',  ( -1.899999999999999911, -1.000000000000000222, 1.899999999999999911 ) ) ;
#250 =( GEOMETRIC_REPRESENTATION_CONTEXT ( 3 ) GLOBAL_UNCERTAINTY_ASSIGNED_CONTEXT ( ( #587 ) ) GLOBAL_UNIT_ASSIGNED_CONTEXT ( ( #258, #682, #317 ) ) REPRESENTATION_CONTEXT ( 'NONE', 'WORKASPACE' ) );
#251 = DIRECTION ( 'NONE',  ( 0.0000000000000000000, 0.0000000000000000000, -1.000000000000000000 ) ) ;
#252 = ADVANCED_FACE ( 'NONE', ( #6 ), #201, .T. ) ;
#253 = CARTESIAN_POINT ( 'NONE',  ( -0.8350000000000004086, -1.050000000000000044, 1.574999999999998845 ) ) ;
#254 = ORIENTED_EDGE ( 'NONE', *, *, #84, .F. ) ;
#255 =( GEOMETRIC_REPRESENTATION_CONTEXT ( 3 ) GLOBAL_UNCERTAINTY_ASSIGNED_CONTEXT ( ( #765 ) ) GLOBAL_UNIT_ASSIGNED_CONTEXT ( ( #529, #640, #179 ) ) REPRESENTATION_CONTEXT ( 'NONE', 'WORKASPACE' ) );
#256 = FILL_AREA_STYLE_COLOUR ( '', #613 ) ;
#257 = CARTESIAN_POINT ( 'NONE',  ( -1.605000000000000426, -1.000000000000000222, 1.624999999999999112 ) ) ;
#258 =( LENGTH_UNIT ( ) NAMED_UNIT ( * ) SI_UNIT ( .MILLI., .METRE. ) );
#259 = EDGE_LOOP ( 'NONE', ( #373, #242, #99, #593 ) ) ;
#260 = VECTOR ( 'NONE', #738, 1000.000000000000000 ) ;
#261 = VECTOR ( 'NONE', #415, 1000.000000000000000 ) ;
#262 = UNCERTAINTY_MEASURE_WITH_UNIT (LENGTH_MEASURE( 1.000000000000000082E-05 ), #435, 'distance_accuracy_value', 'NONE');
#263 = VERTEX_POINT ( 'NONE', #684 ) ;
#264 = DIRECTION ( 'NONE',  ( 0.0000000000000000000, -0.0000000000000000000, 1.000000000000000000 ) ) ;
#265 = EDGE_CURVE ( 'NONE', #745, #522, #336, .T. ) ;
#266 = VECTOR ( 'NONE', #425, 1000.000000000000000 ) ;
#267 = LINE ( 'NONE', #134, #357 ) ;
#268 = PLANE ( 'NONE',  #577 ) ;
#269 = CARTESIAN_POINT ( 'NONE',  ( -2.000000000000000000, 1.050000000000000044, -1.899999999999999911 ) ) ;
#270 = SURFACE_STYLE_FILL_AREA ( #562 ) ;
#271 = ORIENTED_EDGE ( 'NONE', *, *, #325, .F. ) ;
#272 = PLANE ( 'NONE',  #405 ) ;
#273 = LINE ( 'NONE', #238, #445 ) ;
#274 = AXIS2_PLACEMENT_3D ( 'NONE', #170, #122, #473 ) ;
#275 = PLANE ( 'NONE',  #210 ) ;
#276 = EDGE_LOOP ( 'NONE', ( #438, #585, #639, #676 ) ) ;
#277 = EDGE_CURVE ( 'NONE', #747, #52, #581, .T. ) ;
#278 = CARTESIAN_POINT ( 'NONE',  ( -1.605000000000000426, -1.000000000000000222, 1.624999999999999112 ) ) ;
#279 = EDGE_LOOP ( 'NONE', ( #754, #641, #459, #439, #78, #622, #769, #572 ) ) ;
#280 = ORIENTED_EDGE ( 'NONE', *, *, #334, .F. ) ;
#281 = CARTESIAN_POINT ( 'NONE',  ( -1.604999999999999760, -1.000000000000000222, -1.625000000000000444 ) ) ;
#282 =( LENGTH_UNIT ( ) NAMED_UNIT ( * ) SI_UNIT ( .MILLI., .METRE. ) );
#283 = DIRECTION ( 'NONE',  ( 1.000000000000000000, 0.0000000000000000000, 2.668805347656631116E-16 ) ) ;
#284 = VERTEX_POINT ( 'NONE', #29 ) ;
#285 = CIRCLE ( 'NONE', #240, 0.1000000000000000472 ) ;
#286 = STYLED_ITEM ( 'NONE', ( #464 ), #410 ) ;
#287 = FACE_BOUND ( 'NONE', #276, .T. ) ;
#288 = CARTESIAN_POINT ( 'NONE',  ( -0.7849999999999994760, -1.050000000000000044, -1.575000000000000178 ) ) ;
#289 = EDGE_LOOP ( 'NONE', ( #686, #121, #18, #566 ) ) ;
#290 = AXIS2_PLACEMENT_3D ( 'NONE', #767, #324, #398 ) ;
#291 = LINE ( 'NONE', #178, #557 ) ;
#292 = DIRECTION ( 'NONE',  ( -3.336006684570783964E-17, 0.0000000000000000000, -1.000000000000000000 ) ) ;
#293 = PRESENTATION_LAYER_ASSIGNMENT (  '', '', ( #327 ) ) ;
#294 = ADVANCED_FACE ( 'NONE', ( #88 ), #275, .F. ) ;
#295 = DIRECTION ( 'NONE',  ( -3.002406016113705383E-16, 0.0000000000000000000, 1.000000000000000000 ) ) ;
#296 = FILL_AREA_STYLE_COLOUR ( '', #594 ) ;
#297 = ORIENTED_EDGE ( 'NONE', *, *, #339, .F. ) ;
#298 = CARTESIAN_POINT ( 'NONE',  ( 1.899999999999999689, -1.000000000000000222, -1.899999999999999911 ) ) ;
#299 = CARTESIAN_POINT ( 'NONE',  ( 4.164922979669925113E-16, -1.000000000000000222, -1.574999999999999956 ) ) ;
#300 = DIRECTION ( 'NONE',  ( -0.0000000000000000000, 1.000000000000000000, -0.0000000000000000000 ) ) ;
#301 = EDGE_CURVE ( 'NONE', #784, #246, #762, .T. ) ;
#302 = CARTESIAN_POINT ( 'NONE',  ( -0.7849999999999993650, -1.029289321881345476, -1.625000000000000444 ) ) ;
#303 = AXIS2_PLACEMENT_3D ( 'NONE', #132, #540, #70 ) ;
#304 = DIRECTION ( 'NONE',  ( 0.0000000000000000000, -1.000000000000000000, 0.0000000000000000000 ) ) ;
#305 = CARTESIAN_POINT ( 'NONE',  ( 1.584289321881345192, -1.050000000000000044, -1.604289321881344987 ) ) ;
#306 = LINE ( 'NONE', #514, #176 ) ;
#307 = ORIENTED_EDGE ( 'NONE', *, *, #41, .T. ) ;
#308 = DIRECTION ( 'NONE',  ( 0.0000000000000000000, 0.0000000000000000000, -1.000000000000000000 ) ) ;
#309 = LINE ( 'NONE', #58, #167 ) ;
#310 = VERTEX_POINT ( 'NONE', #618 ) ;
#311 =( NAMED_UNIT ( * ) SI_UNIT ( $, .STERADIAN. ) SOLID_ANGLE_UNIT ( ) );
#312 = ORIENTED_EDGE ( 'NONE', *, *, #763, .F. ) ;
#313 =( NAMED_UNIT ( * ) SI_UNIT ( $, .STERADIAN. ) SOLID_ANGLE_UNIT ( ) );
#314 = EDGE_LOOP ( 'NONE', ( #761, #543, #111, #658 ) ) ;
#315 = ORIENTED_EDGE ( 'NONE', *, *, #384, .T. ) ;
#316 = STYLED_ITEM ( 'NONE', ( #628 ), #142 ) ;
#317 =( NAMED_UNIT ( * ) SI_UNIT ( $, .STERADIAN. ) SOLID_ANGLE_UNIT ( ) );
#318 = SURFACE_STYLE_FILL_AREA ( #414 ) ;
#319 = ORIENTED_EDGE ( 'NONE', *, *, #325, .T. ) ;
#320 = CIRCLE ( 'NONE', #186, 0.1000000000000000472 ) ;
#321 =( NAMED_UNIT ( * ) SI_UNIT ( $, .STERADIAN. ) SOLID_ANGLE_UNIT ( ) );
#322 = ORIENTED_EDGE ( 'NONE', *, *, #460, .F. ) ;
#323 = AXIS2_PLACEMENT_3D ( 'NONE', #299, #374, #89 ) ;
#324 = DIRECTION ( 'NONE',  ( 0.0000000000000000000, 0.0000000000000000000, -1.000000000000000000 ) ) ;
#325 = EDGE_CURVE ( 'NONE', #421, #407, #559, .T. ) ;
#326 = LINE ( 'NONE', #424, #774 ) ;
#327 = STYLED_ITEM ( 'NONE', ( #611 ), #192 ) ;
#328 = ORIENTED_EDGE ( 'NONE', *, *, #385, .T. ) ;
#329 =( LENGTH_UNIT ( ) NAMED_UNIT ( * ) SI_UNIT ( .MILLI., .METRE. ) );
#330 = VECTOR ( 'NONE', #574, 1000.000000000000000 ) ;
#331 =( GEOMETRIC_REPRESENTATION_CONTEXT ( 3 ) GLOBAL_UNCERTAINTY_ASSIGNED_CONTEXT ( ( #72 ) ) GLOBAL_UNIT_ASSIGNED_CONTEXT ( ( #151, #32, #321 ) ) REPRESENTATION_CONTEXT ( 'NONE', 'WORKASPACE' ) );
#332 =( BOUNDED_CURVE ( )  B_SPLINE_CURVE ( 3, ( #344, #226, #411, #528 ),
 .UNSPECIFIED., .F., .T. ) 
 B_SPLINE_CURVE_WITH_KNOTS ( ( 4, 4 ),
 ( 1.570796326794896558, 3.141592653589793116 ),
 .UNSPECIFIED. ) 
 CURVE ( )  GEOMETRIC_REPRESENTATION_ITEM ( )  RATIONAL_B_SPLINE_CURVE ( ( 1.000000000000000000, 0.8047378541243649375, 0.8047378541243649375, 1.000000000000000000 ) ) 
 REPRESENTATION_ITEM ( '' )  );
#333 = CARTESIAN_POINT ( 'NONE',  ( 1.554999999999999716, -1.000000000000000222, 4.149992315606054805E-16 ) ) ;
#334 = EDGE_CURVE ( 'NONE', #246, #204, #124, .T. ) ;
#335 = AXIS2_PLACEMENT_3D ( 'NONE', #408, #304, #711 ) ;
#336 = LINE ( 'NONE', #162, #592 ) ;
#337 = ORIENTED_EDGE ( 'NONE', *, *, #127, .F. ) ;
#338 = LINE ( 'NONE', #433, #446 ) ;
#339 = EDGE_CURVE ( 'NONE', #1, #8, #306, .T. ) ;
#340 = PRESENTATION_STYLE_ASSIGNMENT (( #92 ) ) ;
#341 = FACE_OUTER_BOUND ( 'NONE', #390, .T. ) ;
#342 = CARTESIAN_POINT ( 'NONE',  ( 0.7850000000000000311, -1.000000000000000222, 1.624999999999999112 ) ) ;
#343 = CARTESIAN_POINT ( 'NONE',  ( 0.7849999999999999201, -1.029289321881345476, 1.624999999999999334 ) ) ;
#344 = CARTESIAN_POINT ( 'NONE',  ( 1.554999999999999272, -1.050000000000000044, 1.574999999999999956 ) ) ;
#345 = ORIENTED_EDGE ( 'NONE', *, *, #265, .F. ) ;
#346 = LINE ( 'NONE', #693, #266 ) ;
#347 = CARTESIAN_POINT ( 'NONE',  ( -1.605000000000000426, -1.000000000000000222, 1.624999999999999112 ) ) ;
#348 = AXIS2_PLACEMENT_3D ( 'NONE', #298, #719, #352 ) ;
#349 = CARTESIAN_POINT ( 'NONE',  ( 0.7849999999999999201, -1.000000000000000222, -1.625000000000000000 ) ) ;
#350 = SURFACE_STYLE_FILL_AREA ( #494 ) ;
#351 = DIRECTION ( 'NONE',  ( 0.0000000000000000000, 1.000000000000000000, 0.0000000000000000000 ) ) ;
#352 = DIRECTION ( 'NONE',  ( 0.0000000000000000000, 0.0000000000000000000, -1.000000000000000000 ) ) ;
#353 = CARTESIAN_POINT ( 'NONE',  ( 1.899999999999999689, 1.050000000000000044, -1.899999999999999911 ) ) ;
#354 = CARTESIAN_POINT ( 'NONE',  ( -1.604999999999999760, -1.000000000000000222, -1.625000000000000444 ) ) ;
#355 = LINE ( 'NONE', #86, #534 ) ;
#356 = ORIENTED_EDGE ( 'NONE', *, *, #696, .F. ) ;
#357 = VECTOR ( 'NONE', #163, 1000.000000000000000 ) ;
#358 = DIRECTION ( 'NONE',  ( 0.0000000000000000000, -1.000000000000000000, 0.0000000000000000000 ) ) ;
#359 = PRESENTATION_STYLE_ASSIGNMENT (( #491 ) ) ;
#360 = CARTESIAN_POINT ( 'NONE',  ( 1.605000000000000204, -1.029289321881345476, -1.625000000000000222 ) ) ;
#361 = ORIENTED_EDGE ( 'NONE', *, *, #710, .T. ) ;
#362 = FILL_AREA_STYLE_COLOUR ( '', #516 ) ;
#363 = AXIS2_PLACEMENT_3D ( 'NONE', #560, #377, #25 ) ;
#364 =( GEOMETRIC_REPRESENTATION_CONTEXT ( 3 ) GLOBAL_UNCERTAINTY_ASSIGNED_CONTEXT ( ( #485 ) ) GLOBAL_UNIT_ASSIGNED_CONTEXT ( ( #561, #757, #150 ) ) REPRESENTATION_CONTEXT ( 'NONE', 'WORKASPACE' ) );
#365 = PRESENTATION_LAYER_ASSIGNMENT (  '', '', ( #451 ) ) ;
#366 = DIRECTION ( 'NONE',  ( -1.000000000000000000, -0.0000000000000000000, -0.0000000000000000000 ) ) ;
#367 = ORIENTED_EDGE ( 'NONE', *, *, #643, .F. ) ;
#368 = FILL_AREA_STYLE ('',( #190 ) ) ;
#369 = LINE ( 'NONE', #637, #161 ) ;
#370 = ADVANCED_FACE ( 'NONE', ( #430 ), #104, .T. ) ;
#371 = DIRECTION ( 'NONE',  ( 0.0000000000000000000, -1.000000000000000000, 0.0000000000000000000 ) ) ;
#372 = AXIS2_PLACEMENT_3D ( 'NONE', #673, #96, #589 ) ;
#373 = ORIENTED_EDGE ( 'NONE', *, *, #384, .F. ) ;
#374 = DIRECTION ( 'NONE',  ( -1.000000000000000000, 0.0000000000000000000, -2.644395542647571273E-16 ) ) ;
#375 =( NAMED_UNIT ( * ) PLANE_ANGLE_UNIT ( ) SI_UNIT ( $, .RADIAN. ) );
#376 = SURFACE_STYLE_USAGE ( .BOTH. , #517 ) ;
#377 = DIRECTION ( 'NONE',  ( 0.0000000000000000000, 0.0000000000000000000, 1.000000000000000000 ) ) ;
#378 = CARTESIAN_POINT ( 'NONE',  ( 0.7850000000000000311, -1.050000000000000044, 1.574999999999999067 ) ) ;
#379 = CARTESIAN_POINT ( 'NONE',  ( 0.0000000000000000000, -1.050000000000000044, 0.0000000000000000000 ) ) ;
#380 = AXIS2_PLACEMENT_3D ( 'NONE', #249, #671, #308 ) ;
#381 = ORIENTED_EDGE ( 'NONE', *, *, #584, .F. ) ;
#382 = CARTESIAN_POINT ( 'NONE',  ( 2.000000000000000000, -1.000000000000000222, 1.899999999999999689 ) ) ;
#383 = CYLINDRICAL_SURFACE ( 'NONE', #612, 0.1000000000000000472 ) ;
#384 = EDGE_CURVE ( 'NONE', #207, #181, #267, .T. ) ;
#385 = EDGE_CURVE ( 'NONE', #284, #547, #175, .T. ) ;
#386 = SURFACE_SIDE_STYLE ('',( #318 ) ) ;
#387 =( NAMED_UNIT ( * ) PLANE_ANGLE_UNIT ( ) SI_UNIT ( $, .RADIAN. ) );
#388 = LINE ( 'NONE', #758, #565 ) ;
#389 = VECTOR ( 'NONE', #549, 1000.000000000000000 ) ;
#390 = EDGE_LOOP ( 'NONE', ( #45, #499, #501, #328, #575, #598, #580, #315 ) ) ;
#391 = AXIS2_PLACEMENT_3D ( 'NONE', #230, #768, #283 ) ;
#392 = FILL_AREA_STYLE_COLOUR ( '', #490 ) ;
#393 = EDGE_CURVE ( 'NONE', #421, #522, #645, .T. ) ;
#394 = VECTOR ( 'NONE', #295, 1000.000000000000000 ) ;
#395 = LINE ( 'NONE', #54, #183 ) ;
#396 = ORIENTED_EDGE ( 'NONE', *, *, #550, .T. ) ;
#397 = FACE_BOUND ( 'NONE', #638, .T. ) ;
#398 = DIRECTION ( 'NONE',  ( -1.000000000000000000, 0.0000000000000000000, -0.0000000000000000000 ) ) ;
#399 = DIRECTION ( 'NONE',  ( 2.668805347656626678E-16, 0.0000000000000000000, -1.000000000000000000 ) ) ;
#400 = PRODUCT_DEFINITION ( 'UNKNOWN', '', #447, #484 ) ;
#401 = CARTESIAN_POINT ( 'NONE',  ( 0.0000000000000000000, 1.050000000000000044, 0.0000000000000000000 ) ) ;
#402 = PRESENTATION_LAYER_ASSIGNMENT (  '', '', ( #286 ) ) ;
#403 = CARTESIAN_POINT ( 'NONE',  ( -0.7850000000000004752, -1.000000000000000222, 1.624999999999998890 ) ) ;
#404 = MECHANICAL_DESIGN_GEOMETRIC_PRESENTATION_REPRESENTATION (  '', ( #504 ), #364 ) ;
#405 = AXIS2_PLACEMENT_3D ( 'NONE', #160, #631, #40 ) ;
#406 = EDGE_LOOP ( 'NONE', ( #457, #361, #26, #656 ) ) ;
#407 = VERTEX_POINT ( 'NONE', #354 ) ;
#408 = CARTESIAN_POINT ( 'NONE',  ( 1.899999999999999911, -1.000000000000000222, 1.899999999999999689 ) ) ;
#409 = ORIENTED_EDGE ( 'NONE', *, *, #12, .F. ) ;
#410 = ADVANCED_FACE ( 'NONE', ( #426 ), #383, .T. ) ;
#411 = CARTESIAN_POINT ( 'NONE',  ( 1.604999999999998872, -1.029289321881345476, 1.625000000000000444 ) ) ;
#412 = MECHANICAL_DESIGN_GEOMETRIC_PRESENTATION_REPRESENTATION (  '', ( #327 ), #454 ) ;
#413 = CARTESIAN_POINT ( 'NONE',  ( 0.8057106781186548217, -1.050000000000000044, -1.604289321881345431 ) ) ;
#414 = FILL_AREA_STYLE ('',( #576 ) ) ;
#415 = DIRECTION ( 'NONE',  ( 1.000000000000000000, -0.0000000000000000000, 0.0000000000000000000 ) ) ;
#416 = CIRCLE ( 'NONE', #234, 0.1000000000000000472 ) ;
#417 = VERTEX_POINT ( 'NONE', #474 ) ;
#418 = ADVANCED_FACE ( 'NONE', ( #287, #397, #341 ), #76, .T. ) ;
#419 = DIRECTION ( 'NONE',  ( 0.0000000000000000000, 0.0000000000000000000, 1.000000000000000000 ) ) ;
#420 = EDGE_CURVE ( 'NONE', #747, #61, #110, .T. ) ;
#421 = VERTEX_POINT ( 'NONE', #347 ) ;
#422 = VECTOR ( 'NONE', #292, 1000.000000000000000 ) ;
#423 = AXIS2_PLACEMENT_3D ( 'NONE', #664, #544, #73 ) ;
#424 = CARTESIAN_POINT ( 'NONE',  ( -1.899999999999999911, 1.050000000000000044, 2.000000000000000000 ) ) ;
#425 = DIRECTION ( 'NONE',  ( 1.000000000000000000, 0.0000000000000000000, 0.0000000000000000000 ) ) ;
#426 = FACE_OUTER_BOUND ( 'NONE', #563, .T. ) ;
#427 = FILL_AREA_STYLE ('',( #362 ) ) ;
#428 = CARTESIAN_POINT ( 'NONE',  ( 2.000000000000000000, 1.050000000000000044, 1.899999999999999689 ) ) ;
#429 = CARTESIAN_POINT ( 'NONE',  ( -1.665969191867970045E-15, -1.000000000000000222, 1.574999999999998179 ) ) ;
#430 = FACE_OUTER_BOUND ( 'NONE', #555, .T. ) ;
#431 = ADVANCED_FACE ( 'NONE', ( #526 ), #215, .F. ) ;
#432 = DIRECTION ( 'NONE',  ( 0.0000000000000000000, 1.000000000000000000, 0.0000000000000000000 ) ) ;
#433 = CARTESIAN_POINT ( 'NONE',  ( 0.7850000000000000311, -1.000000000000000222, 1.624999999999999112 ) ) ;
#434 = ORIENTED_EDGE ( 'NONE', *, *, #743, .F. ) ;
#435 =( LENGTH_UNIT ( ) NAMED_UNIT ( * ) SI_UNIT ( .MILLI., .METRE. ) );
#436 = PRODUCT_CONTEXT ( 'NONE', #146, 'mechanical' ) ;
#437 = EDGE_CURVE ( 'NONE', #75, #219, #309, .T. ) ;
#438 = ORIENTED_EDGE ( 'NONE', *, *, #211, .F. ) ;
#439 = ORIENTED_EDGE ( 'NONE', *, *, #239, .T. ) ;
#440 = CARTESIAN_POINT ( 'NONE',  ( 2.000000000000000000, -1.000000000000000222, -1.899999999999999911 ) ) ;
#441 = DIRECTION ( 'NONE',  ( -1.000000000000000000, 0.0000000000000000000, -1.057758217059029693E-15 ) ) ;
#442 = FACE_OUTER_BOUND ( 'NONE', #732, .T. ) ;
#443 = VECTOR ( 'NONE', #700, 1000.000000000000000 ) ;
#444 = DIRECTION ( 'NONE',  ( 0.0000000000000000000, 0.0000000000000000000, -1.000000000000000000 ) ) ;
#445 = VECTOR ( 'NONE', #661, 1000.000000000000000 ) ;
#446 = VECTOR ( 'NONE', #615, 1000.000000000000000 ) ;
#447 = PRODUCT_DEFINITION_FORMATION_WITH_SPECIFIED_SOURCE ( 'ANY', '', #153, .NOT_KNOWN. ) ;
#448 = MECHANICAL_DESIGN_GEOMETRIC_PRESENTATION_REPRESENTATION (  '', ( #286 ), #493 ) ;
#449 = PRESENTATION_LAYER_ASSIGNMENT (  '', '', ( #504 ) ) ;
#450 =( LENGTH_UNIT ( ) NAMED_UNIT ( * ) SI_UNIT ( .MILLI., .METRE. ) );
#451 = STYLED_ITEM ( 'NONE', ( #340 ), #252 ) ;
#452 = VECTOR ( 'NONE', #704, 1000.000000000000000 ) ;
#453 = CARTESIAN_POINT ( 'NONE',  ( -1.605000000000000426, -1.029289321881345476, 1.624999999999999334 ) ) ;
#454 =( GEOMETRIC_REPRESENTATION_CONTEXT ( 3 ) GLOBAL_UNCERTAINTY_ASSIGNED_CONTEXT ( ( #262 ) ) GLOBAL_UNIT_ASSIGNED_CONTEXT ( ( #435, #387, #311 ) ) REPRESENTATION_CONTEXT ( 'NONE', 'WORKASPACE' ) );
#455 = SURFACE_STYLE_USAGE ( .BOTH. , #689 ) ;
#456 = PRESENTATION_STYLE_ASSIGNMENT (( #166 ) ) ;
#457 = ORIENTED_EDGE ( 'NONE', *, *, #545, .F. ) ;
#458 = ORIENTED_EDGE ( 'NONE', *, *, #437, .T. ) ;
#459 = ORIENTED_EDGE ( 'NONE', *, *, #683, .T. ) ;
#460 = EDGE_CURVE ( 'NONE', #98, #310, #468, .T. ) ;
#461 = CARTESIAN_POINT ( 'NONE',  ( -1.584289321881345858, -1.050000000000000044, 1.604289321881343877 ) ) ;
#462 = CARTESIAN_POINT ( 'NONE',  ( 4.164922979669922154E-16, -1.000000000000000222, 1.574999999999998623 ) ) ;
#463 = DIRECTION ( 'NONE',  ( 2.668805347656627171E-16, 0.0000000000000000000, -1.000000000000000000 ) ) ;
#464 = PRESENTATION_STYLE_ASSIGNMENT (( #455 ) ) ;
#465 = EDGE_CURVE ( 'NONE', #38, #198, #753, .T. ) ;
#466 = VECTOR ( 'NONE', #117, 1000.000000000000000 ) ;
#467 = FILL_AREA_STYLE ('',( #66 ) ) ;
#468 = LINE ( 'NONE', #288, #610 ) ;
#469 = EDGE_CURVE ( 'NONE', #536, #1, #416, .T. ) ;
#470 = DIRECTION ( 'NONE',  ( 0.0000000000000000000, 1.000000000000000000, 0.0000000000000000000 ) ) ;
#471 = ORIENTED_EDGE ( 'NONE', *, *, #625, .F. ) ;
#472 = DIRECTION ( 'NONE',  ( 0.0000000000000000000, 1.000000000000000000, 0.0000000000000000000 ) ) ;
#473 = DIRECTION ( 'NONE',  ( 0.0000000000000000000, 0.0000000000000000000, 1.000000000000000000 ) ) ;
#474 = CARTESIAN_POINT ( 'NONE',  ( 1.604999999999999982, -1.000000000000000222, -1.625000000000000000 ) ) ;
#475 = EDGE_LOOP ( 'NONE', ( #20, #697, #668, #634 ) ) ;
#476 = VERTEX_POINT ( 'NONE', #531 ) ;
#477 = CARTESIAN_POINT ( 'NONE',  ( 0.8349999999999999645, -1.050000000000000044, -1.574999999999999956 ) ) ;
#478 = ORIENTED_EDGE ( 'NONE', *, *, #200, .F. ) ;
#479 =( LENGTH_UNIT ( ) NAMED_UNIT ( * ) SI_UNIT ( .MILLI., .METRE. ) );
#480 =( BOUNDED_CURVE ( )  B_SPLINE_CURVE ( 3, ( #281, #716, #777, #60 ),
 .UNSPECIFIED., .F., .T. ) 
 B_SPLINE_CURVE_WITH_KNOTS ( ( 4, 4 ),
 ( 3.141592653589793116, 4.712388980384689674 ),
 .UNSPECIFIED. ) 
 CURVE ( )  GEOMETRIC_REPRESENTATION_ITEM ( )  RATIONAL_B_SPLINE_CURVE ( ( 1.000000000000000000, 0.8047378541243649375, 0.8047378541243649375, 1.000000000000000000 ) ) 
 REPRESENTATION_ITEM ( '' )  );
#481 = VECTOR ( 'NONE', #680, 1000.000000000000000 ) ;
#482 = CARTESIAN_POINT ( 'NONE',  ( 1.604999999999999982, -1.050000000000000044, -1.574999999999999956 ) ) ;
#483 = EDGE_CURVE ( 'NONE', #522, #98, #291, .T. ) ;
#484 = PRODUCT_DEFINITION_CONTEXT ( 'detailed design', #87, 'design' ) ;
#485 = UNCERTAINTY_MEASURE_WITH_UNIT (LENGTH_MEASURE( 1.000000000000000082E-05 ), #561, 'distance_accuracy_value', 'NONE');
#486 = DIRECTION ( 'NONE',  ( 0.0000000000000000000, 0.0000000000000000000, 1.000000000000000000 ) ) ;
#487 = VERTEX_POINT ( 'NONE', #403 ) ;
#488 = SURFACE_STYLE_FILL_AREA ( #542 ) ;
#489 =( LENGTH_UNIT ( ) NAMED_UNIT ( * ) SI_UNIT ( .MILLI., .METRE. ) );
#490 = COLOUR_RGB ( '',0.2509803921568627416, 0.2509803921568627416, 0.2509803921568627416 ) ;
#491 = SURFACE_STYLE_USAGE ( .BOTH. , #77 ) ;
#492 = PRODUCT_RELATED_PRODUCT_CATEGORY ( 'part', '', ( #153 ) ) ;
#493 =( GEOMETRIC_REPRESENTATION_CONTEXT ( 3 ) GLOBAL_UNCERTAINTY_ASSIGNED_CONTEXT ( ( #701 ) ) GLOBAL_UNIT_ASSIGNED_CONTEXT ( ( #450, #744, #216 ) ) REPRESENTATION_CONTEXT ( 'NONE', 'WORKASPACE' ) );
#494 = FILL_AREA_STYLE ('',( #296 ) ) ;
#495 = AXIS2_PLACEMENT_3D ( 'NONE', #333, #463, #718 ) ;
#496 = ADVANCED_FACE ( 'NONE', ( #629 ), #770, .T. ) ;
#497 = DIRECTION ( 'NONE',  ( 1.000000000000000000, -0.0000000000000000000, 1.057758217059029693E-15 ) ) ;
#498 = CARTESIAN_POINT ( 'NONE',  ( 1.899999999999999689, 1.050000000000000044, -2.000000000000000000 ) ) ;
#499 = ORIENTED_EDGE ( 'NONE', *, *, #545, .T. ) ;
#500 = CARTESIAN_POINT ( 'NONE',  ( 1.899999999999999689, 1.050000000000000044, -1.899999999999999911 ) ) ;
#501 = ORIENTED_EDGE ( 'NONE', *, *, #743, .T. ) ;
#502 =( NAMED_UNIT ( * ) PLANE_ANGLE_UNIT ( ) SI_UNIT ( $, .RADIAN. ) );
#503 = EDGE_LOOP ( 'NONE', ( #367, #434, #297, #652 ) ) ;
#504 = STYLED_ITEM ( 'NONE', ( #619 ), #152 ) ;
#505 = APPLICATION_PROTOCOL_DEFINITION ( 'draft international standard', 'automotive_design', 1998, #87 ) ;
#506 = DIRECTION ( 'NONE',  ( -0.0000000000000000000, 1.000000000000000000, -0.0000000000000000000 ) ) ;
#507 = EDGE_CURVE ( 'NONE', #219, #781, #332, .T. ) ;
#508 = UNCERTAINTY_MEASURE_WITH_UNIT (LENGTH_MEASURE( 1.000000000000000082E-05 ), #489, 'distance_accuracy_value', 'NONE');
#509 =( NAMED_UNIT ( * ) SI_UNIT ( $, .STERADIAN. ) SOLID_ANGLE_UNIT ( ) );
#510 = STYLED_ITEM ( 'NONE', ( #359 ), #721 ) ;
#511 = CARTESIAN_POINT ( 'NONE',  ( -2.000000000000000000, 1.050000000000000044, 2.000000000000000000 ) ) ;
#512 = EDGE_LOOP ( 'NONE', ( #71, #156, #307, #760 ) ) ;
#513 = FACE_OUTER_BOUND ( 'NONE', #512, .T. ) ;
#514 = CARTESIAN_POINT ( 'NONE',  ( -2.000000000000000000, 1.050000000000000044, -1.899999999999999911 ) ) ;
#515 = SURFACE_SIDE_STYLE ('',( #244 ) ) ;
#516 = COLOUR_RGB ( '',0.2509803921568627416, 0.2509803921568627416, 0.2509803921568627416 ) ;
#517 = SURFACE_SIDE_STYLE ('',( #756 ) ) ;
#518 = CYLINDRICAL_SURFACE ( 'NONE', #53, 0.04999999999999991257 ) ;
#519 = LINE ( 'NONE', #135, #605 ) ;
#520 = DIRECTION ( 'NONE',  ( -1.000000000000000000, 0.0000000000000000000, 2.644395542647571766E-16 ) ) ;
#521 = EDGE_CURVE ( 'NONE', #417, #781, #247, .T. ) ;
#522 = VERTEX_POINT ( 'NONE', #114 ) ;
#523 = VECTOR ( 'NONE', #105, 1000.000000000000000 ) ;
#524 = CARTESIAN_POINT ( 'NONE',  ( -2.000000000000000000, -1.000000000000000222, 1.899999999999999689 ) ) ;
#525 = SURFACE_SIDE_STYLE ('',( #731 ) ) ;
#526 = FACE_OUTER_BOUND ( 'NONE', #289, .T. ) ;
#527 = CARTESIAN_POINT ( 'NONE',  ( -1.899999999999999911, -1.000000000000000222, -2.000000000000000000 ) ) ;
#528 = CARTESIAN_POINT ( 'NONE',  ( 1.604999999999999316, -1.000000000000000222, 1.625000000000000000 ) ) ;
#529 =( LENGTH_UNIT ( ) NAMED_UNIT ( * ) SI_UNIT ( .MILLI., .METRE. ) );
#530 = PRESENTATION_LAYER_ASSIGNMENT (  '', '', ( #571 ) ) ;
#531 = CARTESIAN_POINT ( 'NONE',  ( 0.7849999999999999201, -1.000000000000000222, -1.625000000000000000 ) ) ;
#532 = MECHANICAL_DESIGN_GEOMETRIC_PRESENTATION_REPRESENTATION (  '', ( #451 ), #573 ) ;
#533 = ORIENTED_EDGE ( 'NONE', *, *, #550, .F. ) ;
#534 = VECTOR ( 'NONE', #182, 1000.000000000000000 ) ;
#535 = ORIENTED_EDGE ( 'NONE', *, *, #672, .T. ) ;
#536 = VERTEX_POINT ( 'NONE', #46 ) ;
#537 = CARTESIAN_POINT ( 'NONE',  ( 1.899999999999999689, -1.000000000000000222, 2.000000000000000000 ) ) ;
#538 = STYLED_ITEM ( 'NONE', ( #456 ), #195 ) ;
#539 =( NAMED_UNIT ( * ) SI_UNIT ( $, .STERADIAN. ) SOLID_ANGLE_UNIT ( ) );
#540 = DIRECTION ( 'NONE',  ( -1.000000000000000000, 0.0000000000000000000, 0.0000000000000000000 ) ) ;
#541 =( BOUNDED_CURVE ( )  B_SPLINE_CURVE ( 3, ( #607, #185, #302, #725 ),
 .UNSPECIFIED., .F., .T. ) 
 B_SPLINE_CURVE_WITH_KNOTS ( ( 4, 4 ),
 ( 1.570796326794896558, 3.141592653589793116 ),
 .UNSPECIFIED. ) 
 CURVE ( )  GEOMETRIC_REPRESENTATION_ITEM ( )  RATIONAL_B_SPLINE_CURVE ( ( 1.000000000000000000, 0.8047378541243649375, 0.8047378541243649375, 1.000000000000000000 ) ) 
 REPRESENTATION_ITEM ( '' )  );
#542 = FILL_AREA_STYLE ('',( #63 ) ) ;
#543 = ORIENTED_EDGE ( 'NONE', *, *, #265, .T. ) ;
#544 = DIRECTION ( 'NONE',  ( 3.002406016113705383E-16, 0.0000000000000000000, -1.000000000000000000 ) ) ;
#545 = EDGE_CURVE ( 'NONE', #263, #8, #740, .T. ) ;
#546 = ORIENTED_EDGE ( 'NONE', *, *, #465, .T. ) ;
#547 = VERTEX_POINT ( 'NONE', #651 ) ;
#548 = PRESENTATION_LAYER_ASSIGNMENT (  '', '', ( #510 ) ) ;
#549 = DIRECTION ( 'NONE',  ( -0.0000000000000000000, 1.000000000000000000, -0.0000000000000000000 ) ) ;
#550 = EDGE_CURVE ( 'NONE', #407, #98, #480, .T. ) ;
#551 = EDGE_CURVE ( 'NONE', #310, #745, #80, .T. ) ;
#552 = CARTESIAN_POINT ( 'NONE',  ( 1.899999999999999911, 1.050000000000000044, 1.899999999999999689 ) ) ;
#553 =( NAMED_UNIT ( * ) PLANE_ANGLE_UNIT ( ) SI_UNIT ( $, .RADIAN. ) );
#554 = LINE ( 'NONE', #569, #564 ) ;
#555 = EDGE_LOOP ( 'NONE', ( #533, #558, #10, #322 ) ) ;
#556 = CARTESIAN_POINT ( 'NONE',  ( 0.7850000000000000311, -1.000000000000000222, 1.624999999999999112 ) ) ;
#557 = VECTOR ( 'NONE', #399, 1000.000000000000000 ) ;
#558 = ORIENTED_EDGE ( 'NONE', *, *, #15, .T. ) ;
#559 = LINE ( 'NONE', #278, #523 ) ;
#560 = CARTESIAN_POINT ( 'NONE',  ( 0.0000000000000000000, 0.0000000000000000000, 0.0000000000000000000 ) ) ;
#561 =( LENGTH_UNIT ( ) NAMED_UNIT ( * ) SI_UNIT ( .MILLI., .METRE. ) );
#562 = FILL_AREA_STYLE ('',( #256 ) ) ;
#563 = EDGE_LOOP ( 'NONE', ( #409, #773, #337, #280 ) ) ;
#564 = VECTOR ( 'NONE', #520, 1000.000000000000000 ) ;
#565 = VECTOR ( 'NONE', #506, 1000.000000000000000 ) ;
#566 = ORIENTED_EDGE ( 'NONE', *, *, #127, .T. ) ;
#567 = CARTESIAN_POINT ( 'NONE',  ( -1.554999999999999716, -1.050000000000000044, -1.575000000000000400 ) ) ;
#568 =( BOUNDED_CURVE ( )  B_SPLINE_CURVE ( 3, ( #82, #663, #727, #717 ),
 .UNSPECIFIED., .F., .T. ) 
 B_SPLINE_CURVE_WITH_KNOTS ( ( 4, 4 ),
 ( 1.570796326794896558, 3.141592653589793116 ),
 .UNSPECIFIED. ) 
 CURVE ( )  GEOMETRIC_REPRESENTATION_ITEM ( )  RATIONAL_B_SPLINE_CURVE ( ( 1.000000000000000000, 0.8047378541243649375, 0.8047378541243649375, 1.000000000000000000 ) ) 
 REPRESENTATION_ITEM ( '' )  );
#569 = CARTESIAN_POINT ( 'NONE',  ( -0.7850000000000004752, -1.000000000000000222, 1.624999999999998890 ) ) ;
#570 = ORIENTED_EDGE ( 'NONE', *, *, #393, .T. ) ;
#571 = STYLED_ITEM ( 'NONE', ( #695 ), #418 ) ;
#572 = ORIENTED_EDGE ( 'NONE', *, *, #633, .T. ) ;
#573 =( GEOMETRIC_REPRESENTATION_CONTEXT ( 3 ) GLOBAL_UNCERTAINTY_ASSIGNED_CONTEXT ( ( #620 ) ) GLOBAL_UNIT_ASSIGNED_CONTEXT ( ( #694, #49, #313 ) ) REPRESENTATION_CONTEXT ( 'NONE', 'WORKASPACE' ) );
#574 = DIRECTION ( 'NONE',  ( -1.000000000000000000, -0.0000000000000000000, -1.057758217059029693E-15 ) ) ;
#575 = ORIENTED_EDGE ( 'NONE', *, *, #590, .T. ) ;
#576 = FILL_AREA_STYLE_COLOUR ( '', #692 ) ;
#577 = AXIS2_PLACEMENT_3D ( 'NONE', #401, #635, #19 ) ;
#578 = CARTESIAN_POINT ( 'NONE',  ( -2.000000000000000000, -1.000000000000000222, -1.899999999999999911 ) ) ;
#579 = FILL_AREA_STYLE ('',( #392 ) ) ;
#580 = ORIENTED_EDGE ( 'NONE', *, *, #57, .T. ) ;
#581 = LINE ( 'NONE', #27, #443 ) ;
#582 = VERTEX_POINT ( 'NONE', #235 ) ;
#583 = LINE ( 'NONE', #378, #213 ) ;
#584 = EDGE_CURVE ( 'NONE', #476, #198, #759, .T. ) ;
#585 = ORIENTED_EDGE ( 'NONE', *, *, #521, .F. ) ;
#586 = CARTESIAN_POINT ( 'NONE',  ( 0.8350000000000000755, -1.050000000000000044, 1.574999999999999067 ) ) ;
#587 = UNCERTAINTY_MEASURE_WITH_UNIT (LENGTH_MEASURE( 1.000000000000000082E-05 ), #258, 'distance_accuracy_value', 'NONE');
#588 = MECHANICAL_DESIGN_GEOMETRIC_PRESENTATION_REPRESENTATION (  '', ( #510 ), #627 ) ;
#589 = DIRECTION ( 'NONE',  ( 0.0000000000000000000, 0.0000000000000000000, -1.000000000000000000 ) ) ;
#590 = EDGE_CURVE ( 'NONE', #547, #747, #706, .T. ) ;
#591 = SURFACE_STYLE_USAGE ( .BOTH. , #144 ) ;
#592 = VECTOR ( 'NONE', #709, 1000.000000000000000 ) ;
#593 = ORIENTED_EDGE ( 'NONE', *, *, #200, .T. ) ;
#594 = COLOUR_RGB ( '',0.2509803921568627416, 0.2509803921568627416, 0.2509803921568627416 ) ;
#595 = CLOSED_SHELL ( 'NONE', ( #431, #142, #195, #229, #184, #252, #410, #721, #192, #418, #294, #245, #662, #248, #728, #736, #370, #675, #496, #614 ) ) ;
#596 = LINE ( 'NONE', #428, #260 ) ;
#597 = EDGE_LOOP ( 'NONE', ( #396, #5, #224, #319 ) ) ;
#598 = ORIENTED_EDGE ( 'NONE', *, *, #420, .T. ) ;
#599 = PLANE ( 'NONE',  #43 ) ;
#600 = CARTESIAN_POINT ( 'NONE',  ( -0.8350000000000004086, -1.050000000000000044, 1.624999999999998890 ) ) ;
#601 = FILL_AREA_STYLE ('',( #217 ) ) ;
#602 =( NAMED_UNIT ( * ) SI_UNIT ( $, .STERADIAN. ) SOLID_ANGLE_UNIT ( ) );
#603 = PRESENTATION_STYLE_ASSIGNMENT (( #621 ) ) ;
#604 = EDGE_CURVE ( 'NONE', #204, #52, #273, .T. ) ;
#605 = VECTOR ( 'NONE', #486, 1000.000000000000000 ) ;
#606 = ORIENTED_EDGE ( 'NONE', *, *, #41, .F. ) ;
#607 = CARTESIAN_POINT ( 'NONE',  ( -0.8349999999999995204, -1.050000000000000044, -1.575000000000000178 ) ) ;
#608 = CYLINDRICAL_SURFACE ( 'NONE', #372, 0.1000000000000000472 ) ;
#609 = CARTESIAN_POINT ( 'NONE',  ( -1.899999999999999911, 1.050000000000000044, 1.899999999999999911 ) ) ;
#610 = VECTOR ( 'NONE', #227, 1000.000000000000000 ) ;
#611 = PRESENTATION_STYLE_ASSIGNMENT (( #376 ) ) ;
#612 = AXIS2_PLACEMENT_3D ( 'NONE', #741, #665, #444 ) ;
#613 = COLOUR_RGB ( '',0.7921568627450980005, 0.8196078431372548767, 0.9333333333333333481 ) ;
#614 = ADVANCED_FACE ( 'NONE', ( #155 ), #616, .T. ) ;
#615 = DIRECTION ( 'NONE',  ( -3.336006684570783964E-17, 0.0000000000000000000, -1.000000000000000000 ) ) ;
#616 = CYLINDRICAL_SURFACE ( 'NONE', #222, 0.04999999999999991257 ) ;
#617 = PRESENTATION_LAYER_ASSIGNMENT (  '', '', ( #538 ) ) ;
#618 = CARTESIAN_POINT ( 'NONE',  ( -0.8349999999999995204, -1.050000000000000044, -1.575000000000000178 ) ) ;
#619 = PRESENTATION_STYLE_ASSIGNMENT (( #591 ) ) ;
#620 = UNCERTAINTY_MEASURE_WITH_UNIT (LENGTH_MEASURE( 1.000000000000000082E-05 ), #694, 'distance_accuracy_value', 'NONE');
#621 = SURFACE_STYLE_USAGE ( .BOTH. , #199 ) ;
#622 = ORIENTED_EDGE ( 'NONE', *, *, #334, .T. ) ;
#623 = SURFACE_SIDE_STYLE ('',( #488 ) ) ;
#624 = AXIS2_PLACEMENT_3D ( 'NONE', #752, #37, #766 ) ;
#625 = EDGE_CURVE ( 'NONE', #198, #75, #33, .T. ) ;
#626 = SURFACE_STYLE_USAGE ( .BOTH. , #782 ) ;
#627 =( GEOMETRIC_REPRESENTATION_CONTEXT ( 3 ) GLOBAL_UNCERTAINTY_ASSIGNED_CONTEXT ( ( #149 ) ) GLOBAL_UNIT_ASSIGNED_CONTEXT ( ( #139, #553, #194 ) ) REPRESENTATION_CONTEXT ( 'NONE', 'WORKASPACE' ) );
#628 = PRESENTATION_STYLE_ASSIGNMENT (( #30 ) ) ;
#629 = FACE_OUTER_BOUND ( 'NONE', #597, .T. ) ;
#630 = ORIENTED_EDGE ( 'NONE', *, *, #521, .T. ) ;
#631 = DIRECTION ( 'NONE',  ( 0.0000000000000000000, 1.000000000000000000, 0.0000000000000000000 ) ) ;
#632 = PRESENTATION_STYLE_ASSIGNMENT (( #772 ) ) ;
#633 = EDGE_CURVE ( 'NONE', #52, #771, #320, .T. ) ;
#634 = ORIENTED_EDGE ( 'NONE', *, *, #633, .F. ) ;
#635 = DIRECTION ( 'NONE',  ( 0.0000000000000000000, 1.000000000000000000, 0.0000000000000000000 ) ) ;
#636 = PRESENTATION_STYLE_ASSIGNMENT (( #81 ) ) ;
#637 = CARTESIAN_POINT ( 'NONE',  ( -0.7850000000000004752, -1.000000000000000222, 1.624999999999998890 ) ) ;
#638 = EDGE_LOOP ( 'NONE', ( #168, #236, #24, #271 ) ) ;
#639 = ORIENTED_EDGE ( 'NONE', *, *, #28, .F. ) ;
#640 =( NAMED_UNIT ( * ) PLANE_ANGLE_UNIT ( ) SI_UNIT ( $, .RADIAN. ) );
#641 = ORIENTED_EDGE ( 'NONE', *, *, #469, .T. ) ;
#642 = COLOUR_RGB ( '',0.2509803921568627416, 0.2509803921568627416, 0.2509803921568627416 ) ;
#643 = EDGE_CURVE ( 'NONE', #284, #536, #103, .T. ) ;
#644 = CARTESIAN_POINT ( 'NONE',  ( -1.899999999999999911, 1.050000000000000044, 1.899999999999999911 ) ) ;
#645 =( BOUNDED_CURVE ( )  B_SPLINE_CURVE ( 3, ( #257, #453, #461, #138 ),
 .UNSPECIFIED., .F., .T. ) 
 B_SPLINE_CURVE_WITH_KNOTS ( ( 4, 4 ),
 ( 0.0000000000000000000, 1.570796326794896558 ),
 .UNSPECIFIED. ) 
 CURVE ( )  GEOMETRIC_REPRESENTATION_ITEM ( )  RATIONAL_B_SPLINE_CURVE ( ( 1.000000000000000000, 0.8047378541243649375, 0.8047378541243649375, 1.000000000000000000 ) ) 
 REPRESENTATION_ITEM ( '' )  );
#646 = FACE_OUTER_BOUND ( 'NONE', #503, .T. ) ;
#647 = CARTESIAN_POINT ( 'NONE',  ( 0.8349999999999999645, -1.050000000000000044, -1.625000000000000000 ) ) ;
#648 = CYLINDRICAL_SURFACE ( 'NONE', #9, 0.05000000000000002359 ) ;
#649 = EDGE_LOOP ( 'NONE', ( #685, #14, #478, #748 ) ) ;
#650 = PLANE ( 'NONE',  #290 ) ;
#651 = CARTESIAN_POINT ( 'NONE',  ( 1.899999999999999689, -1.000000000000000222, -2.000000000000000000 ) ) ;
#652 = ORIENTED_EDGE ( 'NONE', *, *, #469, .F. ) ;
#653 = DIRECTION ( 'NONE',  ( 0.0000000000000000000, -1.000000000000000000, 0.0000000000000000000 ) ) ;
#654 = MECHANICAL_DESIGN_GEOMETRIC_PRESENTATION_REPRESENTATION (  '', ( #571 ), #691 ) ;
#655 = CARTESIAN_POINT ( 'NONE',  ( 1.604999999999999316, -1.000000000000000222, 1.625000000000000000 ) ) ;
#656 = ORIENTED_EDGE ( 'NONE', *, *, #339, .T. ) ;
#657 = DIRECTION ( 'NONE',  ( -2.644395542647578669E-16, 0.0000000000000000000, -1.000000000000000000 ) ) ;
#658 = ORIENTED_EDGE ( 'NONE', *, *, #460, .T. ) ;
#659 = CARTESIAN_POINT ( 'NONE',  ( 2.000000000000000000, 1.050000000000000044, -1.899999999999999911 ) ) ;
#660 = MECHANICAL_DESIGN_GEOMETRIC_PRESENTATION_REPRESENTATION (  '', ( #538 ), #699 ) ;
#661 = DIRECTION ( 'NONE',  ( -0.0000000000000000000, -0.0000000000000000000, -1.000000000000000000 ) ) ;
#662 = ADVANCED_FACE ( 'NONE', ( #720 ), #231, .T. ) ;
#663 = CARTESIAN_POINT ( 'NONE',  ( -0.8057106781186553768, -1.050000000000000044, 1.604289321881343877 ) ) ;
#664 = CARTESIAN_POINT ( 'NONE',  ( -0.8350000000000000755, -1.000000000000000222, -2.507009023454944392E-16 ) ) ;
#665 = DIRECTION ( 'NONE',  ( 0.0000000000000000000, -1.000000000000000000, 0.0000000000000000000 ) ) ;
#666 = FACE_OUTER_BOUND ( 'NONE', #314, .T. ) ;
#667 = CARTESIAN_POINT ( 'NONE',  ( 1.555000000000000160, -1.050000000000000044, -1.574999999999999956 ) ) ;
#668 = ORIENTED_EDGE ( 'NONE', *, *, #47, .F. ) ;
#669 =( GEOMETRIC_REPRESENTATION_CONTEXT ( 3 ) GLOBAL_UNCERTAINTY_ASSIGNED_CONTEXT ( ( #4 ) ) GLOBAL_UNIT_ASSIGNED_CONTEXT ( ( #742, #375, #21 ) ) REPRESENTATION_CONTEXT ( 'NONE', 'WORKASPACE' ) );
#670 = COLOUR_RGB ( '',0.2509803921568627416, 0.2509803921568627416, 0.2509803921568627416 ) ;
#671 = DIRECTION ( 'NONE',  ( 0.0000000000000000000, -1.000000000000000000, 0.0000000000000000000 ) ) ;
#672 = EDGE_CURVE ( 'NONE', #310, #582, #541, .T. ) ;
#673 = CARTESIAN_POINT ( 'NONE',  ( -1.899999999999999911, 1.050000000000000044, -1.899999999999999911 ) ) ;
#674 = CARTESIAN_POINT ( 'NONE',  ( 0.8350000000000000755, -1.000000000000000222, -2.785565581616604743E-17 ) ) ;
#675 = ADVANCED_FACE ( 'NONE', ( #715 ), #113, .T. ) ;
#676 = ORIENTED_EDGE ( 'NONE', *, *, #780, .F. ) ;
#677 = CARTESIAN_POINT ( 'NONE',  ( 2.000000000000000000, -1.000000000000000222, -1.899999999999999911 ) ) ;
#678 = CARTESIAN_POINT ( 'NONE',  ( -1.899999999999999911, 1.050000000000000044, 2.000000000000000000 ) ) ;
#679 = CYLINDRICAL_SURFACE ( 'NONE', #751, 0.1000000000000000472 ) ;
#680 = DIRECTION ( 'NONE',  ( 1.000000000000000000, 0.0000000000000000000, 0.0000000000000000000 ) ) ;
#681 = LINE ( 'NONE', #196, #749 ) ;
#682 =( NAMED_UNIT ( * ) PLANE_ANGLE_UNIT ( ) SI_UNIT ( $, .RADIAN. ) );
#683 = EDGE_CURVE ( 'NONE', #1, #108, #519, .T. ) ;
#684 = CARTESIAN_POINT ( 'NONE',  ( -2.000000000000000000, -1.000000000000000222, 1.899999999999999689 ) ) ;
#685 = ORIENTED_EDGE ( 'NONE', *, *, #710, .F. ) ;
#686 = ORIENTED_EDGE ( 'NONE', *, *, #420, .F. ) ;
#687 = DIRECTION ( 'NONE',  ( 0.0000000000000000000, 0.0000000000000000000, -1.000000000000000000 ) ) ;
#688 = ORIENTED_EDGE ( 'NONE', *, *, #696, .T. ) ;
#689 = SURFACE_SIDE_STYLE ('',( #90 ) ) ;
#690 = DIRECTION ( 'NONE',  ( 0.0000000000000000000, -1.000000000000000000, 0.0000000000000000000 ) ) ;
#691 =( GEOMETRIC_REPRESENTATION_CONTEXT ( 3 ) GLOBAL_UNCERTAINTY_ASSIGNED_CONTEXT ( ( #68 ) ) GLOBAL_UNIT_ASSIGNED_CONTEXT ( ( #479, #502, #120 ) ) REPRESENTATION_CONTEXT ( 'NONE', 'WORKASPACE' ) );
#692 = COLOUR_RGB ( '',0.2509803921568627416, 0.2509803921568627416, 0.2509803921568627416 ) ;
#693 = CARTESIAN_POINT ( 'NONE',  ( 0.7849999999999999201, -1.000000000000000222, -1.625000000000000000 ) ) ;
#694 =( LENGTH_UNIT ( ) NAMED_UNIT ( * ) SI_UNIT ( .MILLI., .METRE. ) );
#695 = PRESENTATION_STYLE_ASSIGNMENT (( #626 ) ) ;
#696 = EDGE_CURVE ( 'NONE', #75, #417, #220, .T. ) ;
#697 = ORIENTED_EDGE ( 'NONE', *, *, #590, .F. ) ;
#698 = DIRECTION ( 'NONE',  ( 1.000000000000000000, -0.0000000000000000000, 2.644395542647571273E-16 ) ) ;
#699 =( GEOMETRIC_REPRESENTATION_CONTEXT ( 3 ) GLOBAL_UNCERTAINTY_ASSIGNED_CONTEXT ( ( #131 ) ) GLOBAL_UNIT_ASSIGNED_CONTEXT ( ( #282, #223, #602 ) ) REPRESENTATION_CONTEXT ( 'NONE', 'WORKASPACE' ) );
#700 = DIRECTION ( 'NONE',  ( -0.0000000000000000000, 1.000000000000000000, -0.0000000000000000000 ) ) ;
#701 = UNCERTAINTY_MEASURE_WITH_UNIT (LENGTH_MEASURE( 1.000000000000000082E-05 ), #450, 'distance_accuracy_value', 'NONE');
#702 = ORIENTED_EDGE ( 'NONE', *, *, #28, .T. ) ;
#703 = ORIENTED_EDGE ( 'NONE', *, *, #465, .F. ) ;
#704 = DIRECTION ( 'NONE',  ( -2.668805347656626678E-16, -0.0000000000000000000, 1.000000000000000000 ) ) ;
#705 = EDGE_CURVE ( 'NONE', #181, #263, #723, .T. ) ;
#706 = CIRCLE ( 'NONE', #348, 0.1000000000000000472 ) ;
#707 =( BOUNDED_CURVE ( )  B_SPLINE_CURVE ( 3, ( #342, #343, #714, #112 ),
 .UNSPECIFIED., .F., .F. ) 
 B_SPLINE_CURVE_WITH_KNOTS ( ( 4, 4 ),
 ( 0.0000000000000000000, 1.570796326794896558 ),
 .UNSPECIFIED. ) 
 CURVE ( )  GEOMETRIC_REPRESENTATION_ITEM ( )  RATIONAL_B_SPLINE_CURVE ( ( 1.000000000000000000, 0.8047378541243649375, 0.8047378541243649375, 1.000000000000000000 ) ) 
 REPRESENTATION_ITEM ( '' )  );
#708 = AXIS2_PLACEMENT_3D ( 'NONE', #739, #371, #17 ) ;
#709 = DIRECTION ( 'NONE',  ( -1.000000000000000000, 0.0000000000000000000, 2.644395542647571766E-16 ) ) ;
#710 = EDGE_CURVE ( 'NONE', #263, #108, #101, .T. ) ;
#711 = DIRECTION ( 'NONE',  ( 0.0000000000000000000, 0.0000000000000000000, -1.000000000000000000 ) ) ;
#712 = DIRECTION ( 'NONE',  ( -2.668805347656627171E-16, 0.0000000000000000000, 1.000000000000000000 ) ) ;
#713 = FACE_OUTER_BOUND ( 'NONE', #279, .T. ) ;
#714 = CARTESIAN_POINT ( 'NONE',  ( 0.8057106781186548217, -1.050000000000000044, 1.604289321881343877 ) ) ;
#715 = FACE_OUTER_BOUND ( 'NONE', #130, .T. ) ;
#716 = CARTESIAN_POINT ( 'NONE',  ( -1.604999999999999760, -1.029289321881345476, -1.625000000000000444 ) ) ;
#717 = CARTESIAN_POINT ( 'NONE',  ( -0.7850000000000004752, -1.000000000000000222, 1.624999999999998890 ) ) ;
#718 = DIRECTION ( 'NONE',  ( -1.000000000000000000, 0.0000000000000000000, -2.668805347656631116E-16 ) ) ;
#719 = DIRECTION ( 'NONE',  ( 0.0000000000000000000, -1.000000000000000000, 0.0000000000000000000 ) ) ;
#720 = FACE_OUTER_BOUND ( 'NONE', #203, .T. ) ;
#721 = ADVANCED_FACE ( 'NONE', ( #722 ), #679, .T. ) ;
#722 = FACE_OUTER_BOUND ( 'NONE', #649, .T. ) ;
#723 = CIRCLE ( 'NONE', #380, 0.1000000000000000472 ) ;
#724 = SURFACE_STYLE_USAGE ( .BOTH. , #208 ) ;
#725 = CARTESIAN_POINT ( 'NONE',  ( -0.7849999999999992539, -1.000000000000000222, -1.625000000000000666 ) ) ;
#726 = ADVANCED_BREP_SHAPE_REPRESENTATION ( 'XFL4020-152MEB', ( #152, #363 ), #669 ) ;
#727 = CARTESIAN_POINT ( 'NONE',  ( -0.7850000000000004752, -1.029289321881345476, 1.624999999999999112 ) ) ;
#728 = ADVANCED_FACE ( 'NONE', ( #102 ), #648, .T. ) ;
#729 = DIRECTION ( 'NONE',  ( 0.0000000000000000000, -1.000000000000000000, 0.0000000000000000000 ) ) ;
#730 = DIRECTION ( 'NONE',  ( -3.002406016113705383E-16, -0.0000000000000000000, 1.000000000000000000 ) ) ;
#731 = SURFACE_STYLE_FILL_AREA ( #173 ) ;
#732 = EDGE_LOOP ( 'NONE', ( #128, #50, #312, #59 ) ) ;
#733 = DIRECTION ( 'NONE',  ( 3.336006684570783964E-17, -0.0000000000000000000, 1.000000000000000000 ) ) ;
#734 = SURFACE_STYLE_FILL_AREA ( #56 ) ;
#735 = ORIENTED_EDGE ( 'NONE', *, *, #140, .T. ) ;
#736 = ADVANCED_FACE ( 'NONE', ( #513 ), #518, .T. ) ;
#737 = VERTEX_POINT ( 'NONE', #556 ) ;
#738 = DIRECTION ( 'NONE',  ( 0.0000000000000000000, -1.000000000000000000, 0.0000000000000000000 ) ) ;
#739 = CARTESIAN_POINT ( 'NONE',  ( -1.899999999999999911, -1.000000000000000222, -1.899999999999999911 ) ) ;
#740 = LINE ( 'NONE', #524, #243 ) ;
#741 = CARTESIAN_POINT ( 'NONE',  ( 1.899999999999999911, 1.050000000000000044, 1.899999999999999689 ) ) ;
#742 =( LENGTH_UNIT ( ) NAMED_UNIT ( * ) SI_UNIT ( .MILLI., .METRE. ) );
#743 = EDGE_CURVE ( 'NONE', #8, #284, #22, .T. ) ;
#744 =( NAMED_UNIT ( * ) PLANE_ANGLE_UNIT ( ) SI_UNIT ( $, .RADIAN. ) );
#745 = VERTEX_POINT ( 'NONE', #253 ) ;
#746 = ORIENTED_EDGE ( 'NONE', *, *, #507, .F. ) ;
#747 = VERTEX_POINT ( 'NONE', #677 ) ;
#748 = ORIENTED_EDGE ( 'NONE', *, *, #239, .F. ) ;
#749 = VECTOR ( 'NONE', #366, 1000.000000000000000 ) ;
#750 = EDGE_LOOP ( 'NONE', ( #458, #735, #546, #123 ) ) ;
#751 = AXIS2_PLACEMENT_3D ( 'NONE', #609, #729, #251 ) ;
#752 = CARTESIAN_POINT ( 'NONE',  ( -2.000000000000000000, 1.050000000000000044, -2.000000000000000000 ) ) ;
#753 = LINE ( 'NONE', #647, #422 ) ;
#754 = ORIENTED_EDGE ( 'NONE', *, *, #763, .T. ) ;
#755 = DIRECTION ( 'NONE',  ( 0.0000000000000000000, -0.0000000000000000000, -1.000000000000000000 ) ) ;
#756 = SURFACE_STYLE_FILL_AREA ( #225 ) ;
#757 =( NAMED_UNIT ( * ) PLANE_ANGLE_UNIT ( ) SI_UNIT ( $, .RADIAN. ) );
#758 = CARTESIAN_POINT ( 'NONE',  ( 1.899999999999999689, 1.050000000000000044, 2.000000000000000000 ) ) ;
#759 =( BOUNDED_CURVE ( )  B_SPLINE_CURVE ( 3, ( #349, #779, #413, #477 ),
 .UNSPECIFIED., .F., .F. ) 
 B_SPLINE_CURVE_WITH_KNOTS ( ( 4, 4 ),
 ( 3.141592653589793116, 4.712388980384688786 ),
 .UNSPECIFIED. ) 
 CURVE ( )  GEOMETRIC_REPRESENTATION_ITEM ( )  RATIONAL_B_SPLINE_CURVE ( ( 1.000000000000000000, 0.8047378541243652705, 0.8047378541243652705, 1.000000000000000000 ) ) 
 REPRESENTATION_ITEM ( '' )  );
#760 = ORIENTED_EDGE ( 'NONE', *, *, #140, .F. ) ;
#761 = ORIENTED_EDGE ( 'NONE', *, *, #551, .T. ) ;
#762 = LINE ( 'NONE', #511, #481 ) ;
#763 = EDGE_CURVE ( 'NONE', #771, #536, #681, .T. ) ;
#764 = CIRCLE ( 'NONE', #335, 0.1000000000000002554 ) ;
#765 = UNCERTAINTY_MEASURE_WITH_UNIT (LENGTH_MEASURE( 1.000000000000000082E-05 ), #529, 'distance_accuracy_value', 'NONE');
#766 = DIRECTION ( 'NONE',  ( 1.000000000000000000, 0.0000000000000000000, -0.0000000000000000000 ) ) ;
#767 = CARTESIAN_POINT ( 'NONE',  ( -2.000000000000000000, 1.050000000000000044, 2.000000000000000000 ) ) ;
#768 = DIRECTION ( 'NONE',  ( -2.668805347656626678E-16, 0.0000000000000000000, 1.000000000000000000 ) ) ;
#769 = ORIENTED_EDGE ( 'NONE', *, *, #604, .T. ) ;
#770 = CYLINDRICAL_SURFACE ( 'NONE', #391, 0.04999999999999991257 ) ;
#771 = VERTEX_POINT ( 'NONE', #498 ) ;
#772 = SURFACE_STYLE_USAGE ( .BOTH. , #515 ) ;
#773 = ORIENTED_EDGE ( 'NONE', *, *, #57, .F. ) ;
#774 = VECTOR ( 'NONE', #653, 1000.000000000000000 ) ;
#775 = DIRECTION ( 'NONE',  ( 0.0000000000000000000, -1.000000000000000000, 0.0000000000000000000 ) ) ;
#776 = STYLED_ITEM ( 'NONE', ( #632 ), #431 ) ;
#777 = CARTESIAN_POINT ( 'NONE',  ( -1.584289321881345192, -1.050000000000000044, -1.604289321881345654 ) ) ;
#778 = FILL_AREA_STYLE_COLOUR ( '', #74 ) ;
#779 = CARTESIAN_POINT ( 'NONE',  ( 0.7850000000000000311, -1.029289321881345476, -1.625000000000000000 ) ) ;
#780 = EDGE_CURVE ( 'NONE', #737, #476, #338, .T. ) ;
#781 = VERTEX_POINT ( 'NONE', #197 ) ;
#782 = SURFACE_SIDE_STYLE ('',( #188 ) ) ;
#783 = STYLED_ITEM ( 'NONE', ( #636 ), #229 ) ;
#784 = VERTEX_POINT ( 'NONE', #678 ) ;
ENDSEC;
END-ISO-10303-21;
