%TF.GenerationSoftware,KiCad,Pcbnew,9.0.1*%
%TF.CreationDate,2025-05-30T14:05:53-04:00*%
%TF.ProjectId,watch-pcb,77617463-682d-4706-9362-2e6b69636164,rev?*%
%TF.SameCoordinates,Original*%
%TF.FileFunction,Legend,Top*%
%TF.FilePolarity,Positive*%
%FSLAX46Y46*%
G04 Gerber Fmt 4.6, Leading zero omitted, Abs format (unit mm)*
G04 Created by KiCad (PCBNEW 9.0.1) date 2025-05-30 14:05:53*
%MOMM*%
%LPD*%
G01*
G04 APERTURE LIST*
%ADD10C,0.120000*%
%ADD11C,0.127000*%
%ADD12C,0.200000*%
G04 APERTURE END LIST*
D10*
%TO.C,U5*%
X153000000Y-69550000D02*
X153800000Y-69550000D01*
X153300000Y-69250000D02*
X153300000Y-63250000D01*
X161300000Y-69250000D02*
X153300000Y-69250000D01*
X153000000Y-68750000D02*
X153000000Y-69550000D01*
X153300000Y-63250000D02*
X161300000Y-63250000D01*
X161300000Y-63250000D02*
X161300000Y-69250000D01*
%TO.C,C30*%
X157857836Y-70860000D02*
X157642164Y-70860000D01*
X157857836Y-70140000D02*
X157642164Y-70140000D01*
%TO.C,C28*%
X156610000Y-72557836D02*
X156610000Y-72342164D01*
X155890000Y-72557836D02*
X155890000Y-72342164D01*
%TO.C,C27*%
X154940000Y-72557836D02*
X154940000Y-72342164D01*
X155660000Y-72557836D02*
X155660000Y-72342164D01*
%TO.C,C35*%
X151990000Y-76307836D02*
X151990000Y-76092164D01*
X151270000Y-76307836D02*
X151270000Y-76092164D01*
%TO.C,C82*%
X164890000Y-77240580D02*
X164890000Y-76959420D01*
X165910000Y-77240580D02*
X165910000Y-76959420D01*
%TO.C,L9*%
X161490000Y-80861252D02*
X161490000Y-80338748D01*
X163710000Y-80861252D02*
X163710000Y-80338748D01*
%TO.C,SW4*%
X166334326Y-75131356D02*
X167597181Y-78180158D01*
X166611490Y-75016551D02*
X166334326Y-75131356D01*
X167597181Y-78180158D02*
X167874345Y-78065353D01*
X168644025Y-74174647D02*
X168921189Y-74059842D01*
X168921189Y-74059842D02*
X170184044Y-77108644D01*
X169465574Y-74537905D02*
X169169933Y-74660364D01*
X170007989Y-74854424D02*
X169465574Y-74537905D01*
X170007989Y-74854424D02*
X170390674Y-75778305D01*
X170184044Y-77108644D02*
X169906880Y-77223449D01*
X170230941Y-76385664D02*
X169935301Y-76508122D01*
X170390674Y-75778305D02*
X170230941Y-76385664D01*
%TO.C,R46*%
X149870000Y-83696359D02*
X149870000Y-84003641D01*
X150630000Y-83696359D02*
X150630000Y-84003641D01*
%TO.C,SW1*%
X128112500Y-83020000D02*
X128492500Y-82520000D01*
X128112500Y-84020000D02*
X128112500Y-83020000D01*
X128112500Y-84020000D02*
X128492500Y-84520001D01*
X128492500Y-82520000D02*
X128812499Y-82520000D01*
X128492500Y-84520001D02*
X128812501Y-84520000D01*
X128812499Y-85170000D02*
X128812500Y-81870000D01*
X128812500Y-81870000D02*
X129112500Y-81870000D01*
X129112500Y-85170001D02*
X128812499Y-85170000D01*
X131312500Y-85170000D02*
X131612500Y-85170000D01*
X131612500Y-85170000D02*
X131612501Y-81870000D01*
X131612501Y-81870000D02*
X131312500Y-81869999D01*
%TO.C,MK1*%
X136067501Y-68055002D02*
X139467500Y-68055000D01*
X136067501Y-70905001D02*
X136067501Y-68055002D01*
X139767501Y-68355001D02*
X139767501Y-70905000D01*
X139767501Y-70905000D02*
X136067501Y-70905001D01*
X140047501Y-68054999D02*
X139767501Y-68055001D01*
X139767500Y-67775000D01*
X140047501Y-68054999D01*
G36*
X140047501Y-68054999D02*
G01*
X139767501Y-68055001D01*
X139767500Y-67775000D01*
X140047501Y-68054999D01*
G37*
%TO.C,C84*%
X154390000Y-76405580D02*
X154390000Y-76124420D01*
X155410000Y-76405580D02*
X155410000Y-76124420D01*
%TO.C,SW3*%
X163603933Y-71133745D02*
X165576096Y-73779604D01*
X163844466Y-70954457D02*
X163603933Y-71133745D01*
X165576096Y-73779604D02*
X165816629Y-73600317D01*
X165608371Y-69639683D02*
X165848904Y-69460396D01*
X165848904Y-69460396D02*
X167821067Y-72106255D01*
X166493929Y-69790311D02*
X166237360Y-69981547D01*
X167097416Y-69964099D02*
X166493929Y-69790311D01*
X167097416Y-69964099D02*
X167695041Y-70765875D01*
X167689180Y-71393861D02*
X167432612Y-71585098D01*
X167695041Y-70765875D02*
X167689180Y-71393861D01*
X167821067Y-72106255D02*
X167580534Y-72285543D01*
%TO.C,C41*%
X142105000Y-72142164D02*
X142105000Y-72357836D01*
X142825000Y-72142164D02*
X142825000Y-72357836D01*
%TO.C,C38*%
X140255000Y-70457836D02*
X140255000Y-70242164D01*
X140975000Y-70457836D02*
X140975000Y-70242164D01*
%TO.C,C22*%
X142090000Y-68587836D02*
X142090000Y-68372164D01*
X142810000Y-68587836D02*
X142810000Y-68372164D01*
%TO.C,R4*%
X167740000Y-82407258D02*
X167740000Y-81932742D01*
X168785000Y-82407258D02*
X168785000Y-81932742D01*
%TO.C,C33*%
X143872164Y-67090000D02*
X144087836Y-67090000D01*
X143872164Y-67810000D02*
X144087836Y-67810000D01*
%TO.C,J10*%
X154362500Y-100920000D02*
X158162500Y-100920000D01*
X158162500Y-103120000D01*
X154362500Y-103120000D01*
X154362500Y-100920000D01*
%TO.C,C32*%
X149190000Y-77492164D02*
X149190000Y-77707836D01*
X149910000Y-77492164D02*
X149910000Y-77707836D01*
%TO.C,R47*%
X163532500Y-73773641D02*
X163532500Y-73466359D01*
X164292500Y-73773641D02*
X164292500Y-73466359D01*
%TO.C,R16*%
X136790000Y-86407258D02*
X136790000Y-85932742D01*
X137835000Y-86407258D02*
X137835000Y-85932742D01*
%TO.C,L6*%
X144990000Y-66867164D02*
X144990000Y-67082836D01*
X145710000Y-66867164D02*
X145710000Y-67082836D01*
%TO.C,C34*%
X143872164Y-66140000D02*
X144087836Y-66140000D01*
X143872164Y-66860000D02*
X144087836Y-66860000D01*
%TO.C,C76*%
X151560000Y-83957836D02*
X151560000Y-83742164D01*
X150840000Y-83957836D02*
X150840000Y-83742164D01*
D11*
%TO.C,D2*%
X169292500Y-86992500D02*
X169292500Y-85332500D01*
X170032500Y-88032500D02*
X170332500Y-88032500D01*
X170332500Y-84292500D02*
X170032500Y-84292500D01*
X170332500Y-88032500D02*
X170332500Y-84292500D01*
D12*
X169612500Y-88862500D02*
G75*
G02*
X169412500Y-88862500I-100000J0D01*
G01*
X169412500Y-88862500D02*
G75*
G02*
X169612500Y-88862500I100000J0D01*
G01*
D10*
%TO.C,C47*%
X148390000Y-64407836D02*
X148390000Y-64192164D01*
X149110000Y-64407836D02*
X149110000Y-64192164D01*
%TO.C,U13*%
X154512500Y-95660000D02*
X153012500Y-95660000D01*
X154512500Y-95660000D02*
X156012500Y-95660000D01*
X154512500Y-98880000D02*
X153012500Y-98880000D01*
X154512500Y-98880000D02*
X156012500Y-98880000D01*
X156965000Y-99010000D02*
X156485000Y-99010000D01*
X156725000Y-98680000D01*
X156965000Y-99010000D01*
G36*
X156965000Y-99010000D02*
G01*
X156485000Y-99010000D01*
X156725000Y-98680000D01*
X156965000Y-99010000D01*
G37*
%TO.C,C55*%
X163002500Y-84962164D02*
X163002500Y-85177836D01*
X163722500Y-84962164D02*
X163722500Y-85177836D01*
%TO.C,C58*%
X162902500Y-88777836D02*
X162902500Y-88562164D01*
X163622500Y-88777836D02*
X163622500Y-88562164D01*
D11*
%TO.C,J6*%
X155712500Y-93270000D02*
X155712500Y-90770000D01*
X162812500Y-93270000D02*
X162812500Y-90770000D01*
D12*
X157162500Y-90070000D02*
G75*
G02*
X156962500Y-90070000I-100000J0D01*
G01*
X156962500Y-90070000D02*
G75*
G02*
X157162500Y-90070000I100000J0D01*
G01*
D11*
%TO.C,D1*%
X169292500Y-81692500D02*
X169292500Y-80032500D01*
X170032500Y-82732500D02*
X170332500Y-82732500D01*
X170332500Y-78992500D02*
X170032500Y-78992500D01*
X170332500Y-82732500D02*
X170332500Y-78992500D01*
D12*
X169612500Y-83562500D02*
G75*
G02*
X169412500Y-83562500I-100000J0D01*
G01*
X169412500Y-83562500D02*
G75*
G02*
X169612500Y-83562500I100000J0D01*
G01*
D10*
%TO.C,U10*%
X151980000Y-63200000D02*
X151980000Y-63700000D01*
X151480000Y-63200000D02*
X151980000Y-63200000D01*
X150280000Y-63200000D02*
X149980000Y-63200000D01*
X149780000Y-63200000D02*
X149780000Y-63200000D01*
X151980000Y-63700000D02*
X151980000Y-63700000D01*
X149780000Y-63700000D02*
X149780000Y-63400000D01*
X151980000Y-64900000D02*
X151980000Y-65400000D01*
X149780000Y-64900000D02*
X149780000Y-64900000D01*
X151980000Y-65400000D02*
X151480000Y-65400000D01*
X151480000Y-65400000D02*
X151480000Y-65400000D01*
X150280000Y-65400000D02*
X149780000Y-65400000D01*
X149780000Y-65400000D02*
X149780000Y-64900000D01*
X149780000Y-63200000D02*
X149420000Y-63200000D01*
X149780000Y-62840000D01*
X149780000Y-63200000D01*
G36*
X149780000Y-63200000D02*
G01*
X149420000Y-63200000D01*
X149780000Y-62840000D01*
X149780000Y-63200000D01*
G37*
%TO.C,R36*%
X159370336Y-95510000D02*
X159154664Y-95510000D01*
X159370336Y-96230000D02*
X159154664Y-96230000D01*
%TO.C,R29*%
X156912742Y-83142500D02*
X157387258Y-83142500D01*
X156912742Y-84187500D02*
X157387258Y-84187500D01*
%TO.C,C78*%
X156370336Y-99160000D02*
X156154664Y-99160000D01*
X156370336Y-99880000D02*
X156154664Y-99880000D01*
%TO.C,C21*%
X140190000Y-68342164D02*
X140190000Y-68557836D01*
X140910000Y-68342164D02*
X140910000Y-68557836D01*
%TO.C,R26*%
X132082500Y-84273641D02*
X132082500Y-83966359D01*
X132842500Y-84273641D02*
X132842500Y-83966359D01*
%TO.C,C73*%
X152710000Y-81553080D02*
X152710000Y-81271920D01*
X151690000Y-81553080D02*
X151690000Y-81271920D01*
%TO.C,C43*%
X148102500Y-66892164D02*
X148102500Y-67107836D01*
X148822500Y-66892164D02*
X148822500Y-67107836D01*
%TO.C,J2*%
X131954176Y-80452160D02*
X133494900Y-81170613D01*
X135901431Y-71987245D02*
X137442155Y-72705698D01*
%TO.C,C59*%
X149507500Y-66577836D02*
X149507500Y-66362164D01*
X150227500Y-66577836D02*
X150227500Y-66362164D01*
%TO.C,C57*%
X158152500Y-87362164D02*
X158152500Y-87577836D01*
X158872500Y-87362164D02*
X158872500Y-87577836D01*
%TO.C,C46*%
X143190000Y-64407836D02*
X143190000Y-64192164D01*
X143910000Y-64407836D02*
X143910000Y-64192164D01*
%TO.C,J7*%
X143512500Y-96770000D02*
X145912500Y-96770000D01*
X143512500Y-99170000D02*
X143512500Y-96770000D01*
X145912500Y-96770000D02*
X145912500Y-99170000D01*
X145912500Y-99170000D02*
X143512500Y-99170000D01*
%TO.C,C77*%
X150640000Y-82107836D02*
X150640000Y-81892164D01*
X151360000Y-82107836D02*
X151360000Y-81892164D01*
%TO.C,R28*%
X157387258Y-84642500D02*
X156912742Y-84642500D01*
X157387258Y-85687500D02*
X156912742Y-85687500D01*
%TO.C,U16*%
X164102499Y-80620000D02*
X164102500Y-79820000D01*
X164102499Y-80620000D02*
X164102500Y-81420000D01*
X167222501Y-80620000D02*
X167222500Y-79820000D01*
X167222501Y-80620000D02*
X167222500Y-81420000D01*
X164152500Y-81920000D02*
X163822500Y-82160000D01*
X163822500Y-81680000D01*
X164152500Y-81920000D01*
G36*
X164152500Y-81920000D02*
G01*
X163822500Y-82160000D01*
X163822500Y-81680000D01*
X164152500Y-81920000D01*
G37*
%TO.C,C37*%
X142122836Y-69540000D02*
X141907164Y-69540000D01*
X142122836Y-70260000D02*
X141907164Y-70260000D01*
%TO.C,U17*%
X157700000Y-79655000D02*
X156900000Y-79655000D01*
X157700000Y-79655000D02*
X158500000Y-79655000D01*
X157700000Y-82775000D02*
X156900000Y-82775000D01*
X157700000Y-82775000D02*
X158500000Y-82775000D01*
X159240000Y-83055000D02*
X158760000Y-83055000D01*
X159000000Y-82725000D01*
X159240000Y-83055000D01*
G36*
X159240000Y-83055000D02*
G01*
X158760000Y-83055000D01*
X159000000Y-82725000D01*
X159240000Y-83055000D01*
G37*
%TO.C,C29*%
X159610000Y-73342164D02*
X159610000Y-73557836D01*
X158890000Y-73342164D02*
X158890000Y-73557836D01*
%TO.C,SW5*%
X166414179Y-92058689D02*
X166694254Y-92166201D01*
X167596794Y-88977878D02*
X166414179Y-92058689D01*
X167876869Y-89085389D02*
X167596794Y-88977878D01*
X169028206Y-93062122D02*
X168748131Y-92954611D01*
X169559890Y-92569972D02*
X169261145Y-92455294D01*
X169930746Y-89873799D02*
X170210821Y-89981311D01*
X170093836Y-92239363D02*
X169559890Y-92569972D01*
X170210821Y-89981311D02*
X169028206Y-93062122D01*
X170276626Y-90702814D02*
X169977883Y-90588134D01*
X170452204Y-91305783D02*
X170093836Y-92239363D01*
X170452204Y-91305783D02*
X170276626Y-90702814D01*
%TO.C,C50*%
X151337836Y-65690000D02*
X151122164Y-65690000D01*
X151337836Y-66410000D02*
X151122164Y-66410000D01*
%TO.C,J3*%
X139050000Y-63630000D02*
X139850000Y-63630000D01*
X139050000Y-63830000D02*
X139050000Y-63630000D01*
X139050000Y-66630000D02*
X139050000Y-66430000D01*
X139850000Y-63630000D02*
X139850000Y-63130000D01*
X139850000Y-66630000D02*
X139050000Y-66630000D01*
X141250000Y-63630000D02*
X141250000Y-63130000D01*
X141250000Y-63630000D02*
X141850000Y-63630000D01*
X141850000Y-63630000D02*
X142050000Y-63830000D01*
X142050000Y-66430000D02*
X142050000Y-66630000D01*
X142050000Y-66630000D02*
X141250000Y-66630000D01*
%TO.C,R21*%
X146942164Y-78640000D02*
X147157836Y-78640000D01*
X146942164Y-79360000D02*
X147157836Y-79360000D01*
%TO.C,U9*%
X159662500Y-86185000D02*
X162162500Y-86185000D01*
X159662500Y-88955000D02*
X162162500Y-88955000D01*
X159112500Y-86270000D02*
X158632500Y-86270000D01*
X159112500Y-85790000D01*
X159112500Y-86270000D01*
G36*
X159112500Y-86270000D02*
G01*
X158632500Y-86270000D01*
X159112500Y-85790000D01*
X159112500Y-86270000D01*
G37*
%TO.C,Y2*%
X144150000Y-62650000D02*
X144150000Y-65950000D01*
X144150000Y-65950000D02*
X148150000Y-65950000D01*
D11*
%TO.C,J5*%
X135872563Y-99269210D02*
X129322565Y-87924278D01*
X138210832Y-97919209D02*
X140722305Y-96469209D01*
X143320382Y-94969208D02*
X145139036Y-93919210D01*
X144328221Y-85814838D02*
X141827220Y-81482977D01*
X147703221Y-91660509D02*
X147202220Y-90792752D01*
D12*
X133497854Y-95882885D02*
G75*
G02*
X133297852Y-95882885I-100001J0D01*
G01*
X133297852Y-95882885D02*
G75*
G02*
X133497854Y-95882885I100001J0D01*
G01*
D10*
%TO.C,MK2*%
X161732500Y-94325000D02*
X165432500Y-94325000D01*
X161732500Y-96875000D02*
X161732500Y-94325000D01*
X165432500Y-94325000D02*
X165432500Y-97175000D01*
X165432500Y-97175000D02*
X162032500Y-97175000D01*
X161732500Y-97455000D02*
X161452500Y-97175000D01*
X161732500Y-97175000D01*
X161732500Y-97455000D01*
G36*
X161732500Y-97455000D02*
G01*
X161452500Y-97175000D01*
X161732500Y-97175000D01*
X161732500Y-97455000D01*
G37*
%TO.C,C81*%
X154390000Y-79405580D02*
X154390000Y-79124420D01*
X155410000Y-79405580D02*
X155410000Y-79124420D01*
%TO.C,R48*%
X164696359Y-74770000D02*
X165003641Y-74770000D01*
X164696359Y-75530000D02*
X165003641Y-75530000D01*
%TO.C,C48*%
X151337836Y-66640000D02*
X151122164Y-66640000D01*
X151337836Y-67360000D02*
X151122164Y-67360000D01*
%TO.C,J8*%
X147212500Y-96770000D02*
X149612500Y-96770000D01*
X147212500Y-99170000D02*
X147212500Y-96770000D01*
X149612500Y-96770000D02*
X149612500Y-99170000D01*
X149612500Y-99170000D02*
X147212500Y-99170000D01*
%TO.C,Y1*%
X146375000Y-76475000D02*
X147725000Y-76475000D01*
X146375000Y-78225000D02*
X147725000Y-78225000D01*
%TO.C,C56*%
X163704664Y-86110000D02*
X163920336Y-86110000D01*
X163704664Y-86830000D02*
X163920336Y-86830000D01*
%TO.C,C31*%
X144190000Y-77492164D02*
X144190000Y-77707836D01*
X144910000Y-77492164D02*
X144910000Y-77707836D01*
%TO.C,R49*%
X164858859Y-91490000D02*
X165166141Y-91490000D01*
X164858859Y-92250000D02*
X165166141Y-92250000D01*
%TO.C,U7*%
X143440000Y-69090000D02*
X143440000Y-68680000D01*
X143440000Y-75660000D02*
X143440000Y-75010000D01*
X144090000Y-68440000D02*
X143740000Y-68440000D01*
X144090000Y-75660000D02*
X143440000Y-75660000D01*
X150010000Y-68440000D02*
X150660000Y-68440000D01*
X150010000Y-75660000D02*
X150660000Y-75660000D01*
X150660000Y-68440000D02*
X150660000Y-69090000D01*
X150660000Y-75660000D02*
X150660000Y-75010000D01*
X143440000Y-68440000D02*
X143200000Y-68110000D01*
X143680000Y-68110000D01*
X143440000Y-68440000D01*
G36*
X143440000Y-68440000D02*
G01*
X143200000Y-68110000D01*
X143680000Y-68110000D01*
X143440000Y-68440000D01*
G37*
%TO.C,C51*%
X162690000Y-77557836D02*
X162690000Y-77342164D01*
X163410000Y-77557836D02*
X163410000Y-77342164D01*
%TO.C,C67*%
X138842164Y-71240000D02*
X139057836Y-71240000D01*
X138842164Y-71960000D02*
X139057836Y-71960000D01*
%TO.C,R23*%
X140911359Y-71420000D02*
X141218641Y-71420000D01*
X140911359Y-72180000D02*
X141218641Y-72180000D01*
%TO.C,L7*%
X161123752Y-83510000D02*
X160601248Y-83510000D01*
X161123752Y-85730000D02*
X160601248Y-85730000D01*
%TO.C,L3*%
X155796000Y-79369000D02*
X155796000Y-75061000D01*
X160104000Y-75061000D02*
X160104000Y-79369000D01*
%TO.C,C36*%
X152190000Y-76307836D02*
X152190000Y-76092164D01*
X152910000Y-76307836D02*
X152910000Y-76092164D01*
%TO.C,R30*%
X153270000Y-78961359D02*
X153270000Y-79268641D01*
X154030000Y-78961359D02*
X154030000Y-79268641D01*
%TO.C,C72*%
X152510000Y-83957836D02*
X152510000Y-83742164D01*
X151790000Y-83957836D02*
X151790000Y-83742164D01*
%TO.C,L8*%
X164002500Y-89481252D02*
X164002500Y-88958748D01*
X166222500Y-89481252D02*
X166222500Y-88958748D01*
%TD*%
M02*
