%TF.GenerationSoftware,KiCad,Pcbnew,9.0.1*%
%TF.CreationDate,2025-05-30T14:05:53-04:00*%
%TF.ProjectId,watch-pcb,77617463-682d-4706-9362-2e6b69636164,rev?*%
%TF.SameCoordinates,Original*%
%TF.FileFunction,Paste,Bot*%
%TF.FilePolarity,Positive*%
%FSLAX46Y46*%
G04 Gerber Fmt 4.6, Leading zero omitted, Abs format (unit mm)*
G04 Created by KiCad (PCBNEW 9.0.1) date 2025-05-30 14:05:53*
%MOMM*%
%LPD*%
G01*
G04 APERTURE LIST*
G04 Aperture macros list*
%AMRoundRect*
0 Rectangle with rounded corners*
0 $1 Rounding radius*
0 $2 $3 $4 $5 $6 $7 $8 $9 X,Y pos of 4 corners*
0 Add a 4 corners polygon primitive as box body*
4,1,4,$2,$3,$4,$5,$6,$7,$8,$9,$2,$3,0*
0 Add four circle primitives for the rounded corners*
1,1,$1+$1,$2,$3*
1,1,$1+$1,$4,$5*
1,1,$1+$1,$6,$7*
1,1,$1+$1,$8,$9*
0 Add four rect primitives between the rounded corners*
20,1,$1+$1,$2,$3,$4,$5,0*
20,1,$1+$1,$4,$5,$6,$7,0*
20,1,$1+$1,$6,$7,$8,$9,0*
20,1,$1+$1,$8,$9,$2,$3,0*%
G04 Aperture macros list end*
%ADD10C,0.400000*%
%ADD11RoundRect,0.135000X-0.185000X0.135000X-0.185000X-0.135000X0.185000X-0.135000X0.185000X0.135000X0*%
%ADD12RoundRect,0.140000X-0.170000X0.140000X-0.170000X-0.140000X0.170000X-0.140000X0.170000X0.140000X0*%
%ADD13R,0.500000X0.350000*%
%ADD14RoundRect,0.250000X-0.250000X-0.475000X0.250000X-0.475000X0.250000X0.475000X-0.250000X0.475000X0*%
%ADD15RoundRect,0.140000X0.140000X0.170000X-0.140000X0.170000X-0.140000X-0.170000X0.140000X-0.170000X0*%
%ADD16RoundRect,0.112500X-0.112500X-0.237500X0.112500X-0.237500X0.112500X0.237500X-0.112500X0.237500X0*%
%ADD17R,0.550000X1.500000*%
%ADD18RoundRect,0.140000X0.170000X-0.140000X0.170000X0.140000X-0.170000X0.140000X-0.170000X-0.140000X0*%
%ADD19RoundRect,0.062500X-0.117500X-0.062500X0.117500X-0.062500X0.117500X0.062500X-0.117500X0.062500X0*%
%ADD20RoundRect,0.087500X-0.287500X-0.087500X0.287500X-0.087500X0.287500X0.087500X-0.287500X0.087500X0*%
%ADD21RoundRect,0.250000X-1.450000X-0.650000X1.450000X-0.650000X1.450000X0.650000X-1.450000X0.650000X0*%
G04 APERTURE END LIST*
D10*
%TO.C,U6*%
X159250000Y-73950000D03*
X159250000Y-72950000D03*
X159250000Y-71950000D03*
X159250000Y-70950000D03*
X159250000Y-69950000D03*
X158250000Y-73950000D03*
X158250001Y-72950000D03*
X158250001Y-71950000D03*
X158250000Y-70949999D03*
X158250000Y-69950000D03*
X157250000Y-73950000D03*
X157250000Y-72950001D03*
X157250000Y-71950000D03*
X157250000Y-70949999D03*
X157250000Y-69950000D03*
X156250000Y-73950000D03*
X156250000Y-72950001D03*
X156249999Y-71950000D03*
X156249999Y-70950000D03*
X156250000Y-69950000D03*
X155250000Y-73950000D03*
X155250000Y-72950000D03*
X155250000Y-71950000D03*
X155250000Y-70950000D03*
%TD*%
D11*
%TO.C,R45*%
X138600000Y-68540000D03*
X138600000Y-69560000D03*
%TD*%
D12*
%TO.C,C62*%
X152500000Y-66120000D03*
X152500000Y-67080000D03*
%TD*%
D13*
%TO.C,U3*%
X149450000Y-64600000D03*
X149450000Y-65250000D03*
X149450000Y-65900000D03*
X149450000Y-66550000D03*
X151500000Y-66550000D03*
X151500000Y-65900000D03*
X151500000Y-65250000D03*
X151500000Y-64600000D03*
%TD*%
D12*
%TO.C,C54*%
X152500000Y-64270000D03*
X152500000Y-65230000D03*
%TD*%
D14*
%TO.C,C63*%
X145512500Y-94720000D03*
X147412500Y-94720000D03*
%TD*%
D15*
%TO.C,C42*%
X147480000Y-75150000D03*
X146520000Y-75150000D03*
%TD*%
%TO.C,C68*%
X163180000Y-94850000D03*
X162220000Y-94850000D03*
%TD*%
D16*
%TO.C,Q1*%
X155512500Y-96020000D03*
X156812500Y-96020000D03*
X156162500Y-98020000D03*
%TD*%
D17*
%TO.C,SW8*%
X142875000Y-65250000D03*
X146125000Y-65250000D03*
%TD*%
D18*
%TO.C,C40*%
X139700000Y-70830000D03*
X139700000Y-69870000D03*
%TD*%
D12*
%TO.C,C75*%
X152262500Y-95840000D03*
X152262500Y-96800000D03*
%TD*%
D19*
%TO.C,D3*%
X146859998Y-96220000D03*
X146020000Y-96220000D03*
%TD*%
D20*
%TO.C,U14*%
X148800000Y-85900000D03*
X148800000Y-85100000D03*
X148800000Y-84300000D03*
X148800000Y-83500000D03*
X148800000Y-82700000D03*
X148800000Y-81900000D03*
X148800000Y-81100000D03*
X151200000Y-81100000D03*
X151200000Y-81900000D03*
X151200000Y-82700000D03*
X151200000Y-83500000D03*
X151200000Y-84300000D03*
X151200000Y-85100000D03*
X151200000Y-85900000D03*
%TD*%
D15*
%TO.C,C39*%
X139430000Y-71750000D03*
X138470000Y-71750000D03*
%TD*%
D12*
%TO.C,C71*%
X152262500Y-97710000D03*
X152262500Y-98670000D03*
%TD*%
D21*
%TO.C,J9*%
X156262500Y-100520000D03*
%TD*%
M02*
