%TF.GenerationSoftware,KiCad,Pcbnew,9.0.1*%
%TF.CreationDate,2025-05-30T14:05:53-04:00*%
%TF.ProjectId,watch-pcb,77617463-682d-4706-9362-2e6b69636164,rev?*%
%TF.SameCoordinates,Original*%
%TF.FileFunction,Copper,L1,Top*%
%TF.FilePolarity,Positive*%
%FSLAX46Y46*%
G04 Gerber Fmt 4.6, Leading zero omitted, Abs format (unit mm)*
G04 Created by KiCad (PCBNEW 9.0.1) date 2025-05-30 14:05:53*
%MOMM*%
%LPD*%
G01*
G04 APERTURE LIST*
G04 Aperture macros list*
%AMRoundRect*
0 Rectangle with rounded corners*
0 $1 Rounding radius*
0 $2 $3 $4 $5 $6 $7 $8 $9 X,Y pos of 4 corners*
0 Add a 4 corners polygon primitive as box body*
4,1,4,$2,$3,$4,$5,$6,$7,$8,$9,$2,$3,0*
0 Add four circle primitives for the rounded corners*
1,1,$1+$1,$2,$3*
1,1,$1+$1,$4,$5*
1,1,$1+$1,$6,$7*
1,1,$1+$1,$8,$9*
0 Add four rect primitives between the rounded corners*
20,1,$1+$1,$2,$3,$4,$5,0*
20,1,$1+$1,$4,$5,$6,$7,0*
20,1,$1+$1,$6,$7,$8,$9,0*
20,1,$1+$1,$8,$9,$2,$3,0*%
%AMHorizOval*
0 Thick line with rounded ends*
0 $1 width*
0 $2 $3 position (X,Y) of the first rounded end (center of the circle)*
0 $4 $5 position (X,Y) of the second rounded end (center of the circle)*
0 Add line between two ends*
20,1,$1,$2,$3,$4,$5,0*
0 Add two circle primitives to create the rounded ends*
1,1,$1,$2,$3*
1,1,$1,$4,$5*%
%AMRotRect*
0 Rectangle, with rotation*
0 The origin of the aperture is its center*
0 $1 length*
0 $2 width*
0 $3 Rotation angle, in degrees counterclockwise*
0 Add horizontal line*
21,1,$1,$2,0,0,$3*%
%AMFreePoly0*
4,1,64,0.235856,1.440014,0.383010,1.379061,0.515445,1.290571,0.628071,1.177945,0.716561,1.045510,0.777514,0.898356,0.808588,0.742139,0.808588,0.582861,0.777514,0.426644,0.716561,0.279490,0.628071,0.147055,0.515445,0.034429,0.383010,-0.054061,0.235856,-0.115014,0.079639,-0.146088,0.031751,-0.146088,0.029264,-0.147118,-0.029264,-0.147118,-0.031751,-0.146088,-0.079639,-0.146088,
-0.235856,-0.115014,-0.383010,-0.054061,-0.515445,0.034429,-0.628071,0.147055,-0.716561,0.279490,-0.777514,0.426644,-0.808588,0.582861,-0.808588,0.729972,-0.512500,0.729972,-0.512500,0.595028,-0.477574,0.464683,-0.410102,0.347818,-0.314682,0.252398,-0.197817,0.184926,-0.067472,0.150000,0.067472,0.150000,0.197817,0.184926,0.314682,0.252398,0.410102,0.347818,0.477574,0.464683,
0.512500,0.595028,0.512500,0.729972,0.477574,0.860317,0.410102,0.977182,0.314682,1.072602,0.197817,1.140074,0.067472,1.175000,-0.067472,1.175000,-0.197817,1.140074,-0.314682,1.072602,-0.410102,0.977182,-0.477574,0.860317,-0.512500,0.729972,-0.808588,0.729972,-0.808588,0.742139,-0.777514,0.898356,-0.716561,1.045510,-0.628071,1.177945,-0.515445,1.290571,-0.383010,1.379061,
-0.235856,1.440014,-0.079639,1.471088,0.079639,1.471088,0.235856,1.440014,0.235856,1.440014,$1*%
%AMFreePoly1*
4,1,17,0.503536,0.203536,0.505000,0.200000,0.505000,-0.500000,0.503536,-0.503536,0.500000,-0.505000,0.100000,-0.505000,0.096464,-0.503536,0.095000,-0.500000,0.095000,-0.205000,-0.500000,-0.205000,-0.503536,-0.203536,-0.505000,-0.200000,-0.505000,0.200000,-0.503536,0.203536,-0.500000,0.205000,0.500000,0.205000,0.503536,0.203536,0.503536,0.203536,$1*%
%AMFreePoly2*
4,1,17,0.503536,0.203536,0.505000,0.200000,0.505000,-0.200000,0.503536,-0.203536,0.500000,-0.205000,-0.095000,-0.205000,-0.095000,-0.500000,-0.096464,-0.503536,-0.100000,-0.505000,-0.500000,-0.505000,-0.503536,-0.503536,-0.505000,-0.500000,-0.505000,0.200000,-0.503536,0.203536,-0.500000,0.205000,0.500000,0.205000,0.503536,0.203536,0.503536,0.203536,$1*%
G04 Aperture macros list end*
%TA.AperFunction,BGAPad,CuDef*%
%ADD10C,0.400000*%
%TD*%
%TA.AperFunction,SMDPad,CuDef*%
%ADD11RoundRect,0.140000X0.140000X0.170000X-0.140000X0.170000X-0.140000X-0.170000X0.140000X-0.170000X0*%
%TD*%
%TA.AperFunction,SMDPad,CuDef*%
%ADD12RoundRect,0.140000X0.170000X-0.140000X0.170000X0.140000X-0.170000X0.140000X-0.170000X-0.140000X0*%
%TD*%
%TA.AperFunction,SMDPad,CuDef*%
%ADD13RoundRect,0.100000X-0.130000X-0.100000X0.130000X-0.100000X0.130000X0.100000X-0.130000X0.100000X0*%
%TD*%
%TA.AperFunction,SMDPad,CuDef*%
%ADD14RoundRect,0.225000X0.250000X-0.225000X0.250000X0.225000X-0.250000X0.225000X-0.250000X-0.225000X0*%
%TD*%
%TA.AperFunction,SMDPad,CuDef*%
%ADD15RoundRect,0.250000X0.850000X-0.375000X0.850000X0.375000X-0.850000X0.375000X-0.850000X-0.375000X0*%
%TD*%
%TA.AperFunction,SMDPad,CuDef*%
%ADD16RotRect,0.900000X1.700000X292.500000*%
%TD*%
%TA.AperFunction,SMDPad,CuDef*%
%ADD17RoundRect,0.135000X-0.185000X0.135000X-0.185000X-0.135000X0.185000X-0.135000X0.185000X0.135000X0*%
%TD*%
%TA.AperFunction,SMDPad,CuDef*%
%ADD18R,1.700000X0.900000*%
%TD*%
%TA.AperFunction,SMDPad,CuDef*%
%ADD19RoundRect,0.147500X-0.172500X0.147500X-0.172500X-0.147500X0.172500X-0.147500X0.172500X0.147500X0*%
%TD*%
%TA.AperFunction,SMDPad,CuDef*%
%ADD20R,0.522000X0.600000*%
%TD*%
%TA.AperFunction,SMDPad,CuDef*%
%ADD21FreePoly0,0.000000*%
%TD*%
%TA.AperFunction,SMDPad,CuDef*%
%ADD22RotRect,0.900000X1.700000X306.700000*%
%TD*%
%TA.AperFunction,SMDPad,CuDef*%
%ADD23RoundRect,0.140000X-0.170000X0.140000X-0.170000X-0.140000X0.170000X-0.140000X0.170000X0.140000X0*%
%TD*%
%TA.AperFunction,SMDPad,CuDef*%
%ADD24RoundRect,0.200000X0.275000X-0.200000X0.275000X0.200000X-0.275000X0.200000X-0.275000X-0.200000X0*%
%TD*%
%TA.AperFunction,SMDPad,CuDef*%
%ADD25RoundRect,0.140000X-0.140000X-0.170000X0.140000X-0.170000X0.140000X0.170000X-0.140000X0.170000X0*%
%TD*%
%TA.AperFunction,SMDPad,CuDef*%
%ADD26RoundRect,0.250000X-1.450000X-0.650000X1.450000X-0.650000X1.450000X0.650000X-1.450000X0.650000X0*%
%TD*%
%TA.AperFunction,SMDPad,CuDef*%
%ADD27RoundRect,0.135000X0.185000X-0.135000X0.185000X0.135000X-0.185000X0.135000X-0.185000X-0.135000X0*%
%TD*%
%TA.AperFunction,SMDPad,CuDef*%
%ADD28FreePoly1,90.000000*%
%TD*%
%TA.AperFunction,SMDPad,CuDef*%
%ADD29FreePoly2,90.000000*%
%TD*%
%TA.AperFunction,SMDPad,CuDef*%
%ADD30RoundRect,0.075000X0.650000X0.075000X-0.650000X0.075000X-0.650000X-0.075000X0.650000X-0.075000X0*%
%TD*%
%TA.AperFunction,SMDPad,CuDef*%
%ADD31R,0.240000X0.450000*%
%TD*%
%TA.AperFunction,SMDPad,CuDef*%
%ADD32R,0.500000X0.470000*%
%TD*%
%TA.AperFunction,SMDPad,CuDef*%
%ADD33R,0.375000X0.350000*%
%TD*%
%TA.AperFunction,SMDPad,CuDef*%
%ADD34R,0.350000X0.375000*%
%TD*%
%TA.AperFunction,SMDPad,CuDef*%
%ADD35RoundRect,0.200000X-0.200000X-0.275000X0.200000X-0.275000X0.200000X0.275000X-0.200000X0.275000X0*%
%TD*%
%TA.AperFunction,SMDPad,CuDef*%
%ADD36RoundRect,0.150000X-0.321788X0.315559X-0.448574X0.043667X0.321788X-0.315559X0.448574X-0.043667X0*%
%TD*%
%TA.AperFunction,SMDPad,CuDef*%
%ADD37RoundRect,0.075000X-0.421458X0.279282X-0.484850X0.143336X0.421458X-0.279282X0.484850X-0.143336X0*%
%TD*%
%TA.AperFunction,HeatsinkPad*%
%ADD38HorizOval,1.000000X-0.498469X0.232440X0.498469X-0.232440X0*%
%TD*%
%TA.AperFunction,HeatsinkPad*%
%ADD39HorizOval,1.000000X-0.362523X0.169047X0.362523X-0.169047X0*%
%TD*%
%TA.AperFunction,ComponentPad*%
%ADD40R,2.000000X2.000000*%
%TD*%
%TA.AperFunction,SMDPad,CuDef*%
%ADD41RoundRect,0.147500X0.147500X0.172500X-0.147500X0.172500X-0.147500X-0.172500X0.147500X-0.172500X0*%
%TD*%
%TA.AperFunction,SMDPad,CuDef*%
%ADD42RoundRect,0.200000X0.200000X0.275000X-0.200000X0.275000X-0.200000X-0.275000X0.200000X-0.275000X0*%
%TD*%
%TA.AperFunction,SMDPad,CuDef*%
%ADD43RoundRect,0.150000X0.150000X-0.512500X0.150000X0.512500X-0.150000X0.512500X-0.150000X-0.512500X0*%
%TD*%
%TA.AperFunction,SMDPad,CuDef*%
%ADD44RoundRect,0.150000X0.512500X0.150000X-0.512500X0.150000X-0.512500X-0.150000X0.512500X-0.150000X0*%
%TD*%
%TA.AperFunction,SMDPad,CuDef*%
%ADD45RotRect,0.900000X1.700000X249.000000*%
%TD*%
%TA.AperFunction,SMDPad,CuDef*%
%ADD46RoundRect,0.100000X0.400000X0.400000X-0.400000X0.400000X-0.400000X-0.400000X0.400000X-0.400000X0*%
%TD*%
%TA.AperFunction,SMDPad,CuDef*%
%ADD47RoundRect,0.105000X0.420000X0.995000X-0.420000X0.995000X-0.420000X-0.995000X0.420000X-0.995000X0*%
%TD*%
%TA.AperFunction,SMDPad,CuDef*%
%ADD48RoundRect,0.062500X-0.350000X-0.062500X0.350000X-0.062500X0.350000X0.062500X-0.350000X0.062500X0*%
%TD*%
%TA.AperFunction,HeatsinkPad*%
%ADD49C,0.500000*%
%TD*%
%TA.AperFunction,HeatsinkPad*%
%ADD50R,1.200000X2.000000*%
%TD*%
%TA.AperFunction,SMDPad,CuDef*%
%ADD51R,1.400000X1.200000*%
%TD*%
%TA.AperFunction,SMDPad,CuDef*%
%ADD52RotRect,0.700000X1.100000X120.000000*%
%TD*%
%TA.AperFunction,SMDPad,CuDef*%
%ADD53RotRect,0.900000X0.930000X120.000000*%
%TD*%
%TA.AperFunction,SMDPad,CuDef*%
%ADD54RotRect,1.050000X0.780000X120.000000*%
%TD*%
%TA.AperFunction,SMDPad,CuDef*%
%ADD55RotRect,1.140000X1.830000X120.000000*%
%TD*%
%TA.AperFunction,SMDPad,CuDef*%
%ADD56RotRect,0.860000X2.800000X120.000000*%
%TD*%
%TA.AperFunction,SMDPad,CuDef*%
%ADD57RotRect,0.700000X3.330000X120.000000*%
%TD*%
%TA.AperFunction,SMDPad,CuDef*%
%ADD58FreePoly0,180.000000*%
%TD*%
%TA.AperFunction,SMDPad,CuDef*%
%ADD59RoundRect,0.135000X-0.135000X-0.185000X0.135000X-0.185000X0.135000X0.185000X-0.135000X0.185000X0*%
%TD*%
%TA.AperFunction,SMDPad,CuDef*%
%ADD60R,1.000000X1.800000*%
%TD*%
%TA.AperFunction,SMDPad,CuDef*%
%ADD61RoundRect,0.050000X-0.350000X-0.050000X0.350000X-0.050000X0.350000X0.050000X-0.350000X0.050000X0*%
%TD*%
%TA.AperFunction,SMDPad,CuDef*%
%ADD62RoundRect,0.050000X-0.050000X-0.350000X0.050000X-0.350000X0.050000X0.350000X-0.050000X0.350000X0*%
%TD*%
%TA.AperFunction,HeatsinkPad*%
%ADD63R,4.000000X4.000000*%
%TD*%
%TA.AperFunction,SMDPad,CuDef*%
%ADD64RoundRect,0.250000X0.375000X0.850000X-0.375000X0.850000X-0.375000X-0.850000X0.375000X-0.850000X0*%
%TD*%
%TA.AperFunction,SMDPad,CuDef*%
%ADD65R,3.400000X0.980000*%
%TD*%
%TA.AperFunction,ComponentPad*%
%ADD66R,1.500000X1.500000*%
%TD*%
%TA.AperFunction,ViaPad*%
%ADD67C,0.400000*%
%TD*%
%TA.AperFunction,ViaPad*%
%ADD68C,0.800000*%
%TD*%
%TA.AperFunction,Conductor*%
%ADD69C,0.200000*%
%TD*%
%TA.AperFunction,Conductor*%
%ADD70C,0.400000*%
%TD*%
G04 APERTURE END LIST*
D10*
%TO.P,U5,E5,VSSQ*%
%TO.N,GND*%
X159300000Y-64250000D03*
%TO.P,U5,E4,VCCQ*%
%TO.N,+1V8*%
X159300000Y-65250000D03*
%TO.P,U5,E3,SIO5*%
%TO.N,/ESP MCU/MEM_D5*%
X159300001Y-66250000D03*
%TO.P,U5,E2,SIO6*%
%TO.N,/ESP MCU/MEM_D6*%
X159300000Y-67250000D03*
%TO.P,U5,E1,SIO7*%
%TO.N,/ESP MCU/MEM_D7*%
X159300000Y-68250000D03*
%TO.P,U5,D5,SIO4*%
%TO.N,/ESP MCU/MEM_D4*%
X158300000Y-64250000D03*
%TO.P,U5,D4,SIO3*%
%TO.N,/ESP MCU/MEM_D3*%
X158300000Y-65250000D03*
%TO.P,U5,D3,SIO0*%
%TO.N,/ESP MCU/MEM_D0*%
X158300000Y-66250000D03*
%TO.P,U5,D2,SIO1*%
%TO.N,/ESP MCU/MEM_D1*%
X158300000Y-67250000D03*
%TO.P,U5,D1,VCCQ*%
%TO.N,+1V8*%
X158300000Y-68250000D03*
%TO.P,U5,C5,NC*%
%TO.N,unconnected-(U5-NC-PadC5)*%
X157300000Y-64249999D03*
%TO.P,U5,C4,SIO2*%
%TO.N,/ESP MCU/MEM_D2*%
X157300000Y-65250000D03*
%TO.P,U5,C3,DQS*%
%TO.N,/ESP MCU/MEM_DQS*%
X157300000Y-66250000D03*
%TO.P,U5,C2,CS#*%
%TO.N,/ESP MCU/MEM_CS0*%
X157300000Y-67250000D03*
%TO.P,U5,C1,VSSQ*%
%TO.N,GND*%
X157300000Y-68250001D03*
%TO.P,U5,B5,DNU*%
%TO.N,unconnected-(U5-DNU-PadB5)*%
X156300000Y-64250000D03*
%TO.P,U5,B4,VCC*%
%TO.N,+1V8*%
X156300000Y-65250000D03*
%TO.P,U5,B3,GND*%
%TO.N,GND*%
X156300000Y-66250000D03*
%TO.P,U5,B2,SCLK*%
%TO.N,/ESP MCU/MEM_CLK*%
X156300000Y-67250000D03*
%TO.P,U5,B1,DNU*%
%TO.N,unconnected-(U5-DNU-PadB1)*%
X156300000Y-68250000D03*
%TO.P,U5,A5,ECS#*%
%TO.N,unconnected-(U5-ECS#-PadA5)*%
X155300000Y-64250000D03*
%TO.P,U5,A4,RESET#*%
%TO.N,Net-(U5-RESET#)*%
X155300000Y-65250000D03*
%TO.P,U5,A3,NC*%
%TO.N,unconnected-(U5-NC-PadA3)*%
X155299999Y-66250000D03*
%TO.P,U5,A2,NC*%
%TO.N,unconnected-(U5-NC-PadA2)*%
X155300000Y-67250000D03*
%TD*%
D11*
%TO.P,C30,2*%
%TO.N,GND*%
X157270000Y-70500000D03*
%TO.P,C30,1*%
%TO.N,+1V8*%
X158230000Y-70500000D03*
%TD*%
D12*
%TO.P,C28,2*%
%TO.N,GND*%
X156250000Y-71970000D03*
%TO.P,C28,1*%
%TO.N,+1V8*%
X156250000Y-72930000D03*
%TD*%
%TO.P,C27,2*%
%TO.N,GND*%
X155300000Y-71970000D03*
%TO.P,C27,1*%
%TO.N,+1V8*%
X155300000Y-72930000D03*
%TD*%
%TO.P,C35,2*%
%TO.N,+1V8*%
X151630000Y-75720000D03*
%TO.P,C35,1*%
%TO.N,GND*%
X151630000Y-76680000D03*
%TD*%
D13*
%TO.P,R55,1*%
%TO.N,Net-(U7-GPIO37)*%
X151530000Y-68600000D03*
%TO.P,R55,2*%
%TO.N,/ESP MCU/MEM_DQS*%
X152170000Y-68600000D03*
%TD*%
%TO.P,R54,1*%
%TO.N,Net-(U7-SPID)*%
X151530000Y-72100000D03*
%TO.P,R54,2*%
%TO.N,/ESP MCU/MEM_D0*%
X152170000Y-72100000D03*
%TD*%
%TO.P,R53,1*%
%TO.N,Net-(U7-SPIQ)*%
X151530000Y-72800000D03*
%TO.P,R53,2*%
%TO.N,/ESP MCU/MEM_D1*%
X152170000Y-72800000D03*
%TD*%
%TO.P,R52,1*%
%TO.N,Net-(U7-SPICLK)*%
X151530000Y-73500000D03*
%TO.P,R52,2*%
%TO.N,/ESP MCU/MEM_CLK*%
X152170000Y-73500000D03*
%TD*%
%TO.P,R51,1*%
%TO.N,Net-(U7-SPIWP)*%
X151530000Y-74200000D03*
%TO.P,R51,2*%
%TO.N,/ESP MCU/MEM_D2*%
X152170000Y-74200000D03*
%TD*%
%TO.P,R50,1*%
%TO.N,Net-(U7-SPIHD)*%
X151530000Y-74900000D03*
%TO.P,R50,2*%
%TO.N,/ESP MCU/MEM_D3*%
X152170000Y-74900000D03*
%TD*%
%TO.P,R44,1*%
%TO.N,Net-(U7-GPIO36)*%
X151530000Y-69300000D03*
%TO.P,R44,2*%
%TO.N,/ESP MCU/MEM_D7*%
X152170000Y-69300000D03*
%TD*%
%TO.P,R37,1*%
%TO.N,Net-(U7-GPIO35)*%
X151530000Y-70000000D03*
%TO.P,R37,2*%
%TO.N,/ESP MCU/MEM_D6*%
X152170000Y-70000000D03*
%TD*%
%TO.P,R35,1*%
%TO.N,Net-(U7-GPIO34)*%
X151530000Y-70700000D03*
%TO.P,R35,2*%
%TO.N,/ESP MCU/MEM_D5*%
X152170000Y-70700000D03*
%TD*%
%TO.P,R8,1*%
%TO.N,Net-(U7-GPIO33)*%
X151530000Y-71400000D03*
%TO.P,R8,2*%
%TO.N,/ESP MCU/MEM_D4*%
X152170000Y-71400000D03*
%TD*%
D14*
%TO.P,C82,1*%
%TO.N,Net-(D1-A)*%
X165400000Y-77875000D03*
%TO.P,C82,2*%
%TO.N,GND*%
X165400000Y-76325000D03*
%TD*%
D15*
%TO.P,L9,1,1*%
%TO.N,Net-(U16-SW)*%
X162600000Y-81675000D03*
%TO.P,L9,2,2*%
%TO.N,+VSW*%
X162600000Y-79525000D03*
%TD*%
D16*
%TO.P,SW4,1,1*%
%TO.N,/ESP MCU/EXT_IO6*%
X167608624Y-74549406D03*
%TO.P,SW4,2,2*%
%TO.N,GND*%
X168909746Y-77690594D03*
%TD*%
D17*
%TO.P,R46,1*%
%TO.N,+3V3*%
X150250000Y-83340000D03*
%TO.P,R46,2*%
%TO.N,/ESP MCU/IO5*%
X150250000Y-84360000D03*
%TD*%
D18*
%TO.P,SW1,1,1*%
%TO.N,Net-(U2-QON)*%
X130212500Y-85220000D03*
%TO.P,SW1,2,2*%
%TO.N,GND*%
X130212500Y-81820000D03*
%TD*%
D19*
%TO.P,L4,1,1*%
%TO.N,Net-(J3-In)*%
X141500000Y-67995000D03*
%TO.P,L4,2,2*%
%TO.N,/ESP MCU/ESP_ANT*%
X141500000Y-68965000D03*
%TD*%
D20*
%TO.P,MK1,1,WS*%
%TO.N,/ESP MCU/I2S_WS*%
X139281502Y-68580000D03*
%TO.P,MK1,2,LR*%
%TO.N,GND*%
X138459501Y-68580001D03*
D21*
%TO.P,MK1,3,GND*%
X137207501Y-70142502D03*
D20*
%TO.P,MK1,4,SCK*%
%TO.N,/ESP MCU/I2S_SCK*%
X138459501Y-70380001D03*
%TO.P,MK1,5,VDD*%
%TO.N,+3V3*%
X139281501Y-70380001D03*
%TO.P,MK1,6,SD*%
%TO.N,/ESP MCU/I2S_SD*%
X139281502Y-69480000D03*
%TD*%
D14*
%TO.P,C84,1*%
%TO.N,GND*%
X154900000Y-77040000D03*
%TO.P,C84,2*%
%TO.N,+1V8*%
X154900000Y-75490000D03*
%TD*%
D22*
%TO.P,SW3,1,1*%
%TO.N,/ESP MCU/EXT_IO5*%
X164696538Y-70256983D03*
%TO.P,SW3,2,2*%
%TO.N,GND*%
X166728462Y-72983017D03*
%TD*%
D23*
%TO.P,C41,1*%
%TO.N,Net-(U7-CHIP_PU)*%
X142465000Y-71770000D03*
%TO.P,C41,2*%
%TO.N,GND*%
X142465000Y-72730000D03*
%TD*%
D12*
%TO.P,C38,1*%
%TO.N,+3V3*%
X140615000Y-70830000D03*
%TO.P,C38,2*%
%TO.N,GND*%
X140615000Y-69870000D03*
%TD*%
%TO.P,C22,1*%
%TO.N,/ESP MCU/ESP_ANT*%
X142450000Y-68960000D03*
%TO.P,C22,2*%
%TO.N,GND*%
X142450000Y-68000000D03*
%TD*%
D24*
%TO.P,R4,1*%
%TO.N,Net-(D2-K)*%
X168262500Y-82995000D03*
%TO.P,R4,2*%
%TO.N,GND*%
X168262500Y-81345000D03*
%TD*%
D25*
%TO.P,C33,1*%
%TO.N,GND*%
X143500000Y-67450000D03*
%TO.P,C33,2*%
%TO.N,+3V3*%
X144460000Y-67450000D03*
%TD*%
D26*
%TO.P,J10,1,Pin_1*%
%TO.N,Net-(J10-Pin_1)*%
X156262500Y-102020000D03*
%TD*%
D23*
%TO.P,C32,1*%
%TO.N,GND*%
X149550000Y-77120000D03*
%TO.P,C32,2*%
%TO.N,/ESP MCU/RTC_N*%
X149550000Y-78080000D03*
%TD*%
D27*
%TO.P,R47,1*%
%TO.N,+3V3*%
X163912500Y-74130000D03*
%TO.P,R47,2*%
%TO.N,/ESP MCU/EXT_IO5*%
X163912500Y-73110000D03*
%TD*%
D24*
%TO.P,R16,1*%
%TO.N,Net-(J2-CC1)*%
X137312500Y-86995000D03*
%TO.P,R16,2*%
%TO.N,GND*%
X137312500Y-85345000D03*
%TD*%
D23*
%TO.P,L6,1,1*%
%TO.N,Net-(C46-Pad1)*%
X145350000Y-66495000D03*
%TO.P,L6,2,2*%
%TO.N,/ESP MCU/CLK_P*%
X145350000Y-67455000D03*
%TD*%
D25*
%TO.P,C34,1*%
%TO.N,GND*%
X143500000Y-66500000D03*
%TO.P,C34,2*%
%TO.N,+3V3*%
X144460000Y-66500000D03*
%TD*%
D12*
%TO.P,C76,1*%
%TO.N,GND*%
X151200000Y-84330000D03*
%TO.P,C76,2*%
%TO.N,+1V8*%
X151200000Y-83370000D03*
%TD*%
D28*
%TO.P,D2,1,K*%
%TO.N,Net-(D2-K)*%
X169512500Y-87812500D03*
D29*
%TO.P,D2,2,A*%
%TO.N,Net-(D1-K)*%
X169512500Y-84512500D03*
%TD*%
D12*
%TO.P,C47,1*%
%TO.N,GND*%
X148750000Y-64780000D03*
%TO.P,C47,2*%
%TO.N,/ESP MCU/CLK_N*%
X148750000Y-63820000D03*
%TD*%
D30*
%TO.P,U13,1,REG*%
%TO.N,Net-(U13-REG)*%
X156712500Y-98270000D03*
%TO.P,U13,2,SCL*%
%TO.N,/IO/MTR_SCL*%
X156712500Y-97769999D03*
%TO.P,U13,3,SDA*%
%TO.N,/IO/MTR_SDA*%
X156712500Y-97270000D03*
%TO.P,U13,4,IN/TRIG*%
%TO.N,GND*%
X156712500Y-96770001D03*
%TO.P,U13,5,EN*%
%TO.N,/ESP MCU/EXT_IO1*%
X156712500Y-96270000D03*
%TO.P,U13,6,VDD/NC*%
%TO.N,+VSW*%
X152312500Y-96270000D03*
%TO.P,U13,7,OUT+*%
%TO.N,Net-(J11-Pin_1)*%
X152312500Y-96770001D03*
%TO.P,U13,8,GND*%
%TO.N,GND*%
X152312500Y-97270000D03*
%TO.P,U13,9,OUT-*%
%TO.N,Net-(J13-Pin_1)*%
X152312500Y-97769999D03*
%TO.P,U13,10,VDD*%
%TO.N,+VSW*%
X152312500Y-98270000D03*
%TD*%
D23*
%TO.P,C55,1*%
%TO.N,GND*%
X163362500Y-84590000D03*
%TO.P,C55,2*%
%TO.N,+3V3*%
X163362500Y-85550000D03*
%TD*%
D12*
%TO.P,C58,1*%
%TO.N,GND*%
X163262500Y-89150000D03*
%TO.P,C58,2*%
%TO.N,/IO/AMOLED_M*%
X163262500Y-88190000D03*
%TD*%
D31*
%TO.P,J6,1,VDD*%
%TO.N,+3V3*%
X157062500Y-93195000D03*
%TO.P,J6,2,INT*%
%TO.N,/ESP MCU/IO2*%
X157462500Y-93195000D03*
%TO.P,J6,3,SDA*%
%TO.N,/IO/TP_SDA*%
X157862500Y-93195000D03*
%TO.P,J6,4,SCL*%
%TO.N,/IO/TP_SCL*%
X158262500Y-93195000D03*
%TO.P,J6,5,RST*%
%TO.N,/ESP MCU/EXT_IO2*%
X158662500Y-93195000D03*
%TO.P,J6,6,GND*%
%TO.N,GND*%
X159062500Y-93195000D03*
%TO.P,J6,7,CS*%
%TO.N,/ESP MCU/FSPI_CS*%
X159462500Y-93195000D03*
%TO.P,J6,8,D0*%
%TO.N,/ESP MCU/FSPI_D*%
X159862500Y-93195000D03*
%TO.P,J6,9,D3*%
%TO.N,/ESP MCU/FSPI_HD*%
X160262500Y-93195000D03*
%TO.P,J6,10,GND*%
%TO.N,GND*%
X160662500Y-93195000D03*
%TO.P,J6,11,SCL*%
%TO.N,/ESP MCU/FSPI_CLK*%
X161062500Y-93195000D03*
%TO.P,J6,12,GND*%
%TO.N,GND*%
X161462500Y-93195000D03*
%TO.P,J6,13,D1*%
%TO.N,/ESP MCU/FSPI_Q*%
X161462500Y-90845000D03*
%TO.P,J6,14,D2*%
%TO.N,/ESP MCU/FSPI_WP*%
X161062500Y-90845000D03*
%TO.P,J6,15,RST*%
%TO.N,/ESP MCU/EXT_IO3*%
X160662500Y-90845000D03*
%TO.P,J6,16,TE*%
%TO.N,/ESP MCU/IO3*%
X160262500Y-90845000D03*
%TO.P,J6,17,SWIRE*%
%TO.N,/IO/SWIRE*%
X159862500Y-90845000D03*
%TO.P,J6,18,GND*%
%TO.N,GND*%
X159462500Y-90845000D03*
%TO.P,J6,19,IOVCC*%
%TO.N,+3V3*%
X159062500Y-90845000D03*
%TO.P,J6,20,VDD*%
X158662500Y-90845000D03*
%TO.P,J6,21*%
%TO.N,N/C*%
X158262500Y-90845000D03*
%TO.P,J6,22,ELVDD*%
%TO.N,/IO/AMOLED_P*%
X157862500Y-90845000D03*
%TO.P,J6,23,ELVSS*%
%TO.N,/IO/AMOLED_M*%
X157462500Y-90845000D03*
%TO.P,J6,24,MTP_PWR*%
%TO.N,GND*%
X157062500Y-90845000D03*
D32*
%TO.P,J6,SH,SHIELD*%
X156312500Y-90875000D03*
X156312500Y-93165000D03*
X162212500Y-90875000D03*
X162212500Y-93165000D03*
%TD*%
D28*
%TO.P,D1,1,K*%
%TO.N,Net-(D1-K)*%
X169512500Y-82512500D03*
D29*
%TO.P,D1,2,A*%
%TO.N,Net-(D1-A)*%
X169512500Y-79212500D03*
%TD*%
D33*
%TO.P,U10,1,SCL/SPC*%
%TO.N,/IO/MAG_SCL*%
X150117500Y-63550000D03*
%TO.P,U10,2,GND*%
%TO.N,GND*%
X150117500Y-64050000D03*
%TO.P,U10,3,GND*%
X150117500Y-64550000D03*
%TO.P,U10,4,C1*%
%TO.N,Net-(U10-C1)*%
X150117500Y-65050000D03*
D34*
%TO.P,U10,5,Vdd*%
%TO.N,+3V3*%
X150630000Y-65062500D03*
%TO.P,U10,6,Vdd_IO*%
X151130000Y-65062500D03*
D33*
%TO.P,U10,7,INT*%
%TO.N,/ESP MCU/EXT_IO9*%
X151642500Y-65050000D03*
%TO.P,U10,8,DRDY*%
%TO.N,/ESP MCU/IO8*%
X151642500Y-64550000D03*
%TO.P,U10,9,SDO/SA1*%
%TO.N,GND*%
X151642500Y-64050000D03*
%TO.P,U10,10,~{CS}*%
%TO.N,+3V3*%
X151642500Y-63550000D03*
D34*
%TO.P,U10,11,SDA/SDI/SDO*%
%TO.N,/IO/MAG_SDA*%
X151130000Y-63537500D03*
%TO.P,U10,12,GND*%
%TO.N,GND*%
X150630000Y-63537500D03*
%TD*%
D11*
%TO.P,R36,1*%
%TO.N,/ESP MCU/IO6*%
X159742500Y-95870000D03*
%TO.P,R36,2*%
%TO.N,Net-(Q1-G)*%
X158782500Y-95870000D03*
%TD*%
D35*
%TO.P,R29,1*%
%TO.N,Net-(U17-FB)*%
X156325000Y-83665000D03*
%TO.P,R29,2*%
%TO.N,GND*%
X157975000Y-83665000D03*
%TD*%
D11*
%TO.P,C78,1*%
%TO.N,Net-(U13-REG)*%
X156742500Y-99520000D03*
%TO.P,C78,2*%
%TO.N,GND*%
X155782500Y-99520000D03*
%TD*%
D23*
%TO.P,C21,1*%
%TO.N,Net-(J3-In)*%
X140550000Y-67970000D03*
%TO.P,C21,2*%
%TO.N,GND*%
X140550000Y-68930000D03*
%TD*%
D27*
%TO.P,R26,1*%
%TO.N,Net-(U2-QON)*%
X132462500Y-84630000D03*
%TO.P,R26,2*%
%TO.N,/ESP MCU/IO1*%
X132462500Y-83610000D03*
%TD*%
D14*
%TO.P,C73,1*%
%TO.N,+3V3*%
X152200000Y-82187500D03*
%TO.P,C73,2*%
%TO.N,GND*%
X152200000Y-80637500D03*
%TD*%
D23*
%TO.P,C43,1*%
%TO.N,GND*%
X148462500Y-66520000D03*
%TO.P,C43,2*%
%TO.N,+3V3*%
X148462500Y-67480000D03*
%TD*%
D36*
%TO.P,J2,A1,GND*%
%TO.N,GND*%
X138524763Y-74832493D03*
%TO.P,J2,A4,VBUS*%
%TO.N,VBUS*%
X138186671Y-75557539D03*
D37*
%TO.P,J2,A5,CC1*%
%TO.N,Net-(J2-CC1)*%
X137700659Y-76599793D03*
%TO.P,J2,A6,D+*%
%TO.N,/ESP MCU/USB_D+*%
X137278039Y-77506100D03*
%TO.P,J2,A7,D-*%
%TO.N,/ESP MCU/USB_D-*%
X137066730Y-77959254D03*
%TO.P,J2,A8,SBU1*%
%TO.N,unconnected-(J2-SBU1-PadA8)*%
X136644111Y-78865561D03*
D36*
%TO.P,J2,A9,VBUS*%
%TO.N,VBUS*%
X136158100Y-79907815D03*
%TO.P,J2,A12,GND*%
%TO.N,GND*%
X135820007Y-80632863D03*
%TO.P,J2,B1,GND*%
X135820007Y-80632863D03*
%TO.P,J2,B4,VBUS*%
%TO.N,VBUS*%
X136158100Y-79907815D03*
D37*
%TO.P,J2,B5,CC2*%
%TO.N,Net-(J2-CC2)*%
X136432804Y-79318714D03*
%TO.P,J2,B6,D+*%
%TO.N,/ESP MCU/USB_D+*%
X136855420Y-78412405D03*
%TO.P,J2,B7,D-*%
%TO.N,/ESP MCU/USB_D-*%
X137489349Y-77052942D03*
%TO.P,J2,B8,SBU2*%
%TO.N,unconnected-(J2-SBU2-PadB8)*%
X137911969Y-76146638D03*
D36*
%TO.P,J2,B9,VBUS*%
%TO.N,VBUS*%
X138186671Y-75557539D03*
%TO.P,J2,B12,GND*%
%TO.N,GND*%
X138524763Y-74832493D03*
D38*
%TO.P,J2,S1,SHIELD*%
X138476971Y-73574421D03*
D39*
X134688599Y-71807876D03*
X131037181Y-79638377D03*
D38*
X134825547Y-81404922D03*
%TD*%
D12*
%TO.P,C59,1*%
%TO.N,GND*%
X149867500Y-66950000D03*
%TO.P,C59,2*%
%TO.N,Net-(U10-C1)*%
X149867500Y-65990000D03*
%TD*%
D23*
%TO.P,C57,1*%
%TO.N,GND*%
X158512500Y-86990000D03*
%TO.P,C57,2*%
%TO.N,/IO/AMOLED_P*%
X158512500Y-87950000D03*
%TD*%
D12*
%TO.P,C46,1*%
%TO.N,Net-(C46-Pad1)*%
X143550000Y-64780000D03*
%TO.P,C46,2*%
%TO.N,GND*%
X143550000Y-63820000D03*
%TD*%
D40*
%TO.P,J7,1,Pin_1*%
%TO.N,+BATT*%
X144712500Y-97970000D03*
%TD*%
D41*
%TO.P,L5,1,1*%
%TO.N,Net-(U7-VDD3P3)*%
X142500000Y-70850000D03*
%TO.P,L5,2,2*%
%TO.N,+3V3*%
X141530000Y-70850000D03*
%TD*%
D12*
%TO.P,C77,1*%
%TO.N,+3V3*%
X151000000Y-82480000D03*
%TO.P,C77,2*%
%TO.N,GND*%
X151000000Y-81520000D03*
%TD*%
D42*
%TO.P,R28,1*%
%TO.N,+1V8*%
X157975000Y-85165000D03*
%TO.P,R28,2*%
%TO.N,Net-(U17-FB)*%
X156325000Y-85165000D03*
%TD*%
D43*
%TO.P,U16,1,SW*%
%TO.N,Net-(U16-SW)*%
X164712501Y-81757500D03*
%TO.P,U16,2,GND*%
%TO.N,GND*%
X165662500Y-81757500D03*
%TO.P,U16,3,FB*%
%TO.N,Net-(D2-K)*%
X166612499Y-81757500D03*
%TO.P,U16,4,CTRL*%
%TO.N,/ESP MCU/IO7*%
X166612499Y-79482500D03*
%TO.P,U16,5,V_{OUT}*%
%TO.N,Net-(D1-A)*%
X165662500Y-79482500D03*
%TO.P,U16,6,V_{IN}*%
%TO.N,+VSW*%
X164712501Y-79482500D03*
%TD*%
D11*
%TO.P,C37,1*%
%TO.N,Net-(U7-VDD3P3)*%
X142495000Y-69900000D03*
%TO.P,C37,2*%
%TO.N,GND*%
X141535000Y-69900000D03*
%TD*%
D44*
%TO.P,U17,1,EN*%
%TO.N,+VSW*%
X158837500Y-82165000D03*
%TO.P,U17,2,GND*%
%TO.N,GND*%
X158837500Y-81215000D03*
%TO.P,U17,3,SW*%
%TO.N,Net-(U17-SW)*%
X158837500Y-80265000D03*
%TO.P,U17,4,VIN*%
%TO.N,+VSW*%
X156562500Y-80265000D03*
%TO.P,U17,5,PG*%
%TO.N,/USB and Power/1V8G*%
X156562500Y-81215000D03*
%TO.P,U17,6,FB*%
%TO.N,Net-(U17-FB)*%
X156562500Y-82165000D03*
%TD*%
D23*
%TO.P,C29,1*%
%TO.N,+1V8*%
X159250000Y-72970000D03*
%TO.P,C29,2*%
%TO.N,GND*%
X159250000Y-73930000D03*
%TD*%
D45*
%TO.P,SW5,1,1*%
%TO.N,GND*%
X168921727Y-89432913D03*
%TO.P,SW5,2,2*%
%TO.N,/ESP MCU/EXT_IO7*%
X167703273Y-92607087D03*
%TD*%
D11*
%TO.P,C50,1*%
%TO.N,GND*%
X151710000Y-66050000D03*
%TO.P,C50,2*%
%TO.N,+3V3*%
X150750000Y-66050000D03*
%TD*%
D46*
%TO.P,J3,1,In*%
%TO.N,Net-(J3-In)*%
X140550000Y-66630000D03*
D47*
%TO.P,J3,2,Ext*%
%TO.N,GND*%
X139075000Y-65130000D03*
D46*
X140550000Y-63630000D03*
D47*
X142025000Y-65130000D03*
%TD*%
D25*
%TO.P,R21,1*%
%TO.N,/ESP MCU/RTC_P*%
X146570000Y-79000000D03*
%TO.P,R21,2*%
%TO.N,/ESP MCU/RTC_N*%
X147530000Y-79000000D03*
%TD*%
D48*
%TO.P,U9,1,SWP*%
%TO.N,Net-(U9-SWP)*%
X159700000Y-86570000D03*
%TO.P,U9,2,PGND*%
%TO.N,GND*%
X159700000Y-87070000D03*
%TO.P,U9,3,OUTP*%
%TO.N,/IO/AMOLED_P*%
X159700000Y-87570000D03*
%TO.P,U9,4,FBS*%
X159700000Y-88070000D03*
%TO.P,U9,5,AGND*%
%TO.N,GND*%
X159700000Y-88570000D03*
%TO.P,U9,6,CTRL*%
%TO.N,/IO/SWIRE*%
X162125000Y-88570000D03*
%TO.P,U9,7,OUTN*%
%TO.N,/IO/AMOLED_M*%
X162125000Y-88070000D03*
%TO.P,U9,8,SWN*%
%TO.N,Net-(U9-SWN)*%
X162125000Y-87570000D03*
%TO.P,U9,9,AVIN*%
%TO.N,+3V3*%
X162125000Y-87070000D03*
%TO.P,U9,10,PVIN*%
X162125000Y-86570000D03*
D49*
%TO.P,U9,11,GND*%
%TO.N,GND*%
X160562500Y-86820000D03*
X160562500Y-87570000D03*
X160562500Y-88320000D03*
D50*
X160912500Y-87570000D03*
D49*
X161262500Y-86820000D03*
X161262500Y-87570000D03*
X161262500Y-88320000D03*
%TD*%
D51*
%TO.P,Y2,1,1*%
%TO.N,Net-(C46-Pad1)*%
X145050000Y-65150000D03*
%TO.P,Y2,2,2*%
%TO.N,GND*%
X147250000Y-65150000D03*
%TO.P,Y2,3,3*%
%TO.N,/ESP MCU/CLK_N*%
X147250000Y-63450000D03*
%TO.P,Y2,4,4*%
%TO.N,GND*%
X145050000Y-63450000D03*
%TD*%
D52*
%TO.P,J5,1,DAT2*%
%TO.N,/ESP MCU/SD_D2*%
X134999997Y-94957884D03*
%TO.P,J5,2,DAT3/CD*%
%TO.N,/ESP MCU/SD_D3*%
X134450000Y-94005256D03*
%TO.P,J5,3,CMD*%
%TO.N,/ESP MCU/SD_CMD*%
X133899999Y-93052628D03*
%TO.P,J5,4,VDD*%
%TO.N,+3V3*%
X133350000Y-92100000D03*
%TO.P,J5,5,CLK*%
%TO.N,/ESP MCU/SD_CLK*%
X132799999Y-91147375D03*
%TO.P,J5,6,VSS*%
%TO.N,GND*%
X132249999Y-90194744D03*
%TO.P,J5,7,DAT0*%
%TO.N,/ESP MCU/SD_D0*%
X131700001Y-89242116D03*
%TO.P,J5,8,DAT1*%
%TO.N,/ESP MCU/SD_D1*%
X131149999Y-88289488D03*
D53*
%TO.P,J5,9,SHIELD*%
%TO.N,GND*%
X146690008Y-90275570D03*
D54*
%TO.P,J5,10*%
%TO.N,N/C*%
X144622457Y-86544469D03*
D55*
%TO.P,J5,P1*%
X136952988Y-98310562D03*
D56*
%TO.P,J5,P2*%
X131043012Y-87104178D03*
D57*
%TO.P,J5,P3*%
X146805775Y-92876091D03*
%TO.P,J5,P4*%
X140325775Y-81652398D03*
%TD*%
D20*
%TO.P,MK2,1,WS*%
%TO.N,/ESP MCU/I2S_WS*%
X162218500Y-96650000D03*
%TO.P,MK2,2,LR*%
%TO.N,+3V3*%
X163040499Y-96650000D03*
D58*
%TO.P,MK2,3,GND*%
%TO.N,GND*%
X164292500Y-95087500D03*
D20*
%TO.P,MK2,4,SCK*%
%TO.N,/ESP MCU/I2S_SCK*%
X163040500Y-94850000D03*
%TO.P,MK2,5,VDD*%
%TO.N,+3V3*%
X162218500Y-94849999D03*
%TO.P,MK2,6,SD*%
%TO.N,/ESP MCU/I2S_SD*%
X162218500Y-95750000D03*
%TD*%
D14*
%TO.P,C81,1*%
%TO.N,+VSW*%
X154900000Y-80040000D03*
%TO.P,C81,2*%
%TO.N,GND*%
X154900000Y-78490000D03*
%TD*%
D59*
%TO.P,R48,1*%
%TO.N,+3V3*%
X164340000Y-75150000D03*
%TO.P,R48,2*%
%TO.N,/ESP MCU/EXT_IO6*%
X165360000Y-75150000D03*
%TD*%
D11*
%TO.P,C48,1*%
%TO.N,GND*%
X151710000Y-67000000D03*
%TO.P,C48,2*%
%TO.N,+3V3*%
X150750000Y-67000000D03*
%TD*%
D40*
%TO.P,J8,1,Pin_1*%
%TO.N,GND*%
X148412500Y-97970000D03*
%TD*%
D60*
%TO.P,Y1,1,1*%
%TO.N,/ESP MCU/RTC_N*%
X148300000Y-77350000D03*
%TO.P,Y1,2,2*%
%TO.N,/ESP MCU/RTC_P*%
X145800000Y-77350000D03*
%TD*%
D25*
%TO.P,C56,1*%
%TO.N,+3V3*%
X163332500Y-86470000D03*
%TO.P,C56,2*%
%TO.N,GND*%
X164292500Y-86470000D03*
%TD*%
D23*
%TO.P,C31,1*%
%TO.N,GND*%
X144550000Y-77120000D03*
%TO.P,C31,2*%
%TO.N,/ESP MCU/RTC_P*%
X144550000Y-78080000D03*
%TD*%
D59*
%TO.P,R49,1*%
%TO.N,+3V3*%
X164502500Y-91870000D03*
%TO.P,R49,2*%
%TO.N,/ESP MCU/EXT_IO7*%
X165522500Y-91870000D03*
%TD*%
D61*
%TO.P,U7,1,LNA_IN*%
%TO.N,/ESP MCU/ESP_ANT*%
X143600000Y-69450000D03*
%TO.P,U7,2,VDD3P3*%
%TO.N,Net-(U7-VDD3P3)*%
X143600000Y-69850000D03*
%TO.P,U7,3,VDD3P3__1*%
X143600000Y-70250000D03*
%TO.P,U7,4,CHIP_PU*%
%TO.N,Net-(U7-CHIP_PU)*%
X143600000Y-70650000D03*
%TO.P,U7,5,GPIO0*%
%TO.N,/ESP MCU/MCU_SCL*%
X143600000Y-71050000D03*
%TO.P,U7,6,GPIO1*%
%TO.N,/ESP MCU/MCU_SDA*%
X143600000Y-71450000D03*
%TO.P,U7,7,GPIO2*%
%TO.N,/ESP MCU/RTC_SCL*%
X143600000Y-71850000D03*
%TO.P,U7,8,GPIO3*%
%TO.N,/ESP MCU/RTC_SDA*%
X143600000Y-72250000D03*
%TO.P,U7,9,GPIO4*%
%TO.N,/ESP MCU/IO1*%
X143600000Y-72650000D03*
%TO.P,U7,10,GPIO5*%
%TO.N,/ESP MCU/IO2*%
X143600000Y-73050000D03*
%TO.P,U7,11,GPIO6*%
%TO.N,/ESP MCU/IO3*%
X143600000Y-73450000D03*
%TO.P,U7,12,GPIO7*%
%TO.N,/ESP MCU/IO4*%
X143600000Y-73850000D03*
%TO.P,U7,13,GPIO8*%
%TO.N,/ESP MCU/IO5*%
X143600000Y-74250000D03*
%TO.P,U7,14,GPIO9*%
%TO.N,/ESP MCU/FSPI_HD*%
X143600000Y-74650000D03*
D62*
%TO.P,U7,15,GPIO10*%
%TO.N,/ESP MCU/FSPI_CS*%
X144450000Y-75500000D03*
%TO.P,U7,16,GPIO11*%
%TO.N,/ESP MCU/FSPI_D*%
X144850000Y-75500000D03*
%TO.P,U7,17,GPIO12*%
%TO.N,/ESP MCU/FSPI_CLK*%
X145250000Y-75500000D03*
%TO.P,U7,18,GPIO13*%
%TO.N,/ESP MCU/FSPI_Q*%
X145650000Y-75500000D03*
%TO.P,U7,19,GPIO14*%
%TO.N,/ESP MCU/FSPI_WP*%
X146050000Y-75500000D03*
%TO.P,U7,20,VDD3P3_RTC*%
%TO.N,+3V3*%
X146450000Y-75500000D03*
%TO.P,U7,21,XTAL_32K_P*%
%TO.N,/ESP MCU/RTC_P*%
X146850000Y-75500000D03*
%TO.P,U7,22,XTAL_32K_N*%
%TO.N,/ESP MCU/RTC_N*%
X147250000Y-75500000D03*
%TO.P,U7,23,GPIO17*%
%TO.N,/ESP MCU/IO6*%
X147650000Y-75500000D03*
%TO.P,U7,24,GPIO18*%
%TO.N,/ESP MCU/IO7*%
X148050000Y-75500000D03*
%TO.P,U7,25,GPIO19*%
%TO.N,/ESP MCU/USB_D-*%
X148450000Y-75500000D03*
%TO.P,U7,26,GPIO20*%
%TO.N,/ESP MCU/USB_D+*%
X148850000Y-75500000D03*
%TO.P,U7,27,GPIO21*%
%TO.N,/ESP MCU/EXT_INT*%
X149250000Y-75500000D03*
%TO.P,U7,28,SPICS1*%
%TO.N,/ESP MCU/MEM_CS1*%
X149650000Y-75500000D03*
D61*
%TO.P,U7,29,VDD_SPI*%
%TO.N,+1V8*%
X150500000Y-74650000D03*
%TO.P,U7,30,SPIHD*%
%TO.N,Net-(U7-SPIHD)*%
X150500000Y-74250000D03*
%TO.P,U7,31,SPIWP*%
%TO.N,Net-(U7-SPIWP)*%
X150500000Y-73850000D03*
%TO.P,U7,32,SPICS0*%
%TO.N,/ESP MCU/MEM_CS0*%
X150500000Y-73450000D03*
%TO.P,U7,33,SPICLK*%
%TO.N,Net-(U7-SPICLK)*%
X150500000Y-73050000D03*
%TO.P,U7,34,SPIQ*%
%TO.N,Net-(U7-SPIQ)*%
X150500000Y-72650000D03*
%TO.P,U7,35,SPID*%
%TO.N,Net-(U7-SPID)*%
X150500000Y-72250000D03*
%TO.P,U7,36,SPICLK_N*%
%TO.N,/ESP MCU/IO8*%
X150500000Y-71850000D03*
%TO.P,U7,37,SPICLK_P*%
%TO.N,/ESP MCU/IO9*%
X150500000Y-71450000D03*
%TO.P,U7,38,GPIO33*%
%TO.N,Net-(U7-GPIO33)*%
X150500000Y-71050000D03*
%TO.P,U7,39,GPIO34*%
%TO.N,Net-(U7-GPIO34)*%
X150500000Y-70650000D03*
%TO.P,U7,40,GPIO35*%
%TO.N,Net-(U7-GPIO35)*%
X150500000Y-70250000D03*
%TO.P,U7,41,GPIO36*%
%TO.N,Net-(U7-GPIO36)*%
X150500000Y-69850000D03*
%TO.P,U7,42,GPIO37*%
%TO.N,Net-(U7-GPIO37)*%
X150500000Y-69450000D03*
D62*
%TO.P,U7,43,GPIO38*%
%TO.N,/ESP MCU/I2S_SD*%
X149650000Y-68600000D03*
%TO.P,U7,44,MTCK*%
%TO.N,/ESP MCU/I2S_WS*%
X149250000Y-68600000D03*
%TO.P,U7,45,MTDO*%
%TO.N,/ESP MCU/I2S_SCK*%
X148850000Y-68600000D03*
%TO.P,U7,46,VDD3P3_CPU*%
%TO.N,+3V3*%
X148450000Y-68600000D03*
%TO.P,U7,47,MTDI*%
%TO.N,/ESP MCU/SD_D1*%
X148050000Y-68600000D03*
%TO.P,U7,48,MTMS*%
%TO.N,/ESP MCU/SD_D0*%
X147650000Y-68600000D03*
%TO.P,U7,49,U0TXD*%
%TO.N,/ESP MCU/SD_CLK*%
X147250000Y-68600000D03*
%TO.P,U7,50,U0RXD*%
%TO.N,/ESP MCU/SD_CMD*%
X146850000Y-68600000D03*
%TO.P,U7,51,GPIO45*%
%TO.N,/ESP MCU/SD_D3*%
X146450000Y-68600000D03*
%TO.P,U7,52,GPIO46*%
%TO.N,/ESP MCU/SD_D2*%
X146050000Y-68600000D03*
%TO.P,U7,53,XTAL_N*%
%TO.N,/ESP MCU/CLK_N*%
X145650000Y-68600000D03*
%TO.P,U7,54,XTAL_P*%
%TO.N,/ESP MCU/CLK_P*%
X145250000Y-68600000D03*
%TO.P,U7,55,VDDA1*%
%TO.N,+3V3*%
X144850000Y-68600000D03*
%TO.P,U7,56,VDDA2*%
X144450000Y-68600000D03*
D49*
%TO.P,U7,57,GND*%
%TO.N,GND*%
X145300000Y-70300000D03*
X145300000Y-72050000D03*
X145300000Y-73800000D03*
X147050000Y-70300000D03*
X147050000Y-72050000D03*
D63*
X147050000Y-72050000D03*
D49*
X147050000Y-73800000D03*
X148800000Y-70300000D03*
X148800000Y-72050000D03*
X148800000Y-73800000D03*
%TD*%
D12*
%TO.P,C51,1*%
%TO.N,+VSW*%
X163050000Y-77930000D03*
%TO.P,C51,2*%
%TO.N,GND*%
X163050000Y-76970000D03*
%TD*%
D25*
%TO.P,C67,1*%
%TO.N,GND*%
X138470000Y-71600000D03*
%TO.P,C67,2*%
%TO.N,+3V3*%
X139430000Y-71600000D03*
%TD*%
D59*
%TO.P,R23,1*%
%TO.N,/ESP MCU/EN*%
X140555000Y-71800000D03*
%TO.P,R23,2*%
%TO.N,Net-(U7-CHIP_PU)*%
X141575000Y-71800000D03*
%TD*%
D64*
%TO.P,L7,1,1*%
%TO.N,+3V3*%
X161937500Y-84620000D03*
%TO.P,L7,2,2*%
%TO.N,Net-(U9-SWP)*%
X159787500Y-84620000D03*
%TD*%
D65*
%TO.P,L3,1,1*%
%TO.N,Net-(U17-SW)*%
X157950000Y-78400000D03*
%TO.P,L3,2,2*%
%TO.N,+1V8*%
X157950000Y-76030000D03*
%TD*%
D12*
%TO.P,C36,1*%
%TO.N,GND*%
X152550000Y-76680000D03*
%TO.P,C36,2*%
%TO.N,+1V8*%
X152550000Y-75720000D03*
%TD*%
D17*
%TO.P,R30,1*%
%TO.N,/USB and Power/1V8G*%
X153650000Y-78605000D03*
%TO.P,R30,2*%
%TO.N,+VSW*%
X153650000Y-79625000D03*
%TD*%
D12*
%TO.P,C72,1*%
%TO.N,GND*%
X152150000Y-84330000D03*
%TO.P,C72,2*%
%TO.N,+1V8*%
X152150000Y-83370000D03*
%TD*%
D15*
%TO.P,L8,1,1*%
%TO.N,GND*%
X165112500Y-90295000D03*
%TO.P,L8,2,2*%
%TO.N,Net-(U9-SWN)*%
X165112500Y-88145000D03*
%TD*%
D66*
%TO.P,J11,1,Pin_1*%
%TO.N,Net-(J11-Pin_1)*%
X152112500Y-103220000D03*
%TD*%
%TO.P,J13,1,Pin_1*%
%TO.N,Net-(J13-Pin_1)*%
X152112500Y-100720000D03*
%TD*%
D67*
%TO.N,/ESP MCU/MEM_D1*%
X157700000Y-71500000D03*
%TO.N,/ESP MCU/MEM_CLK*%
X156249999Y-70950000D03*
%TO.N,/ESP MCU/MEM_D4*%
X153250000Y-71550000D03*
%TO.N,/ESP MCU/MEM_DQS*%
X152800000Y-68600000D03*
%TO.N,/ESP MCU/MEM_D7*%
X155250000Y-69499000D03*
%TO.N,/ESP MCU/MEM_D6*%
X154199000Y-70000000D03*
%TO.N,/ESP MCU/MEM_D3*%
X158250000Y-72950000D03*
%TO.N,/ESP MCU/MEM_D0*%
X158250000Y-71950000D03*
%TO.N,+1V8*%
X156250000Y-72950001D03*
%TO.N,GND*%
X157250000Y-69950000D03*
X159250000Y-73950000D03*
%TO.N,+1V8*%
X159250000Y-72950000D03*
%TO.N,/ESP MCU/MEM_D2*%
X157250000Y-72950000D03*
%TO.N,/ESP MCU/MEM_D7*%
X159250000Y-69950000D03*
%TO.N,/ESP MCU/MEM_D5*%
X159250000Y-71950000D03*
D68*
%TO.N,/ESP MCU/SD_D1*%
X131149999Y-88289488D03*
D67*
%TO.N,+1V8*%
X158250000Y-69950000D03*
%TD*%
D69*
%TO.N,/ESP MCU/MEM_D4*%
X153250000Y-71550000D02*
X153100000Y-71400000D01*
X153100000Y-71400000D02*
X152170000Y-71400000D01*
%TO.N,/ESP MCU/MEM_D6*%
X154199000Y-70000000D02*
X152170000Y-70000000D01*
%TO.N,/ESP MCU/MEM_DQS*%
X152170000Y-68600000D02*
X152800000Y-68600000D01*
%TO.N,/ESP MCU/MEM_D7*%
X155250000Y-69499000D02*
X155249000Y-69499000D01*
X155249000Y-69499000D02*
X155050000Y-69300000D01*
X155050000Y-69300000D02*
X152170000Y-69300000D01*
%TO.N,/ESP MCU/MEM_D2*%
X152170000Y-74200000D02*
X156000000Y-74200000D01*
X156000000Y-74200000D02*
X157250000Y-72950000D01*
%TO.N,/ESP MCU/MEM_D3*%
X156300000Y-74900000D02*
X158250000Y-72950000D01*
X152170000Y-74900000D02*
X156300000Y-74900000D01*
%TO.N,Net-(U7-SPID)*%
X150500000Y-72250000D02*
X151380000Y-72250000D01*
X151380000Y-72250000D02*
X151530000Y-72100000D01*
%TO.N,Net-(U7-GPIO37)*%
X150500000Y-69450000D02*
X150680000Y-69450000D01*
X150680000Y-69450000D02*
X151530000Y-68600000D01*
%TO.N,Net-(U7-GPIO36)*%
X150500000Y-69850000D02*
X150980000Y-69850000D01*
X150980000Y-69850000D02*
X151530000Y-69300000D01*
%TO.N,Net-(U7-GPIO35)*%
X150500000Y-70250000D02*
X151280000Y-70250000D01*
X151280000Y-70250000D02*
X151530000Y-70000000D01*
%TO.N,Net-(U7-GPIO34)*%
X150500000Y-70650000D02*
X151480000Y-70650000D01*
X151480000Y-70650000D02*
X151530000Y-70700000D01*
%TO.N,Net-(U7-SPIQ)*%
X150500000Y-72650000D02*
X151380000Y-72650000D01*
X151380000Y-72650000D02*
X151530000Y-72800000D01*
%TO.N,Net-(U7-SPICLK)*%
X150500000Y-73050000D02*
X151080000Y-73050000D01*
X151080000Y-73050000D02*
X151530000Y-73500000D01*
%TO.N,Net-(U7-SPIWP)*%
X150500000Y-73850000D02*
X151180000Y-73850000D01*
X151180000Y-73850000D02*
X151530000Y-74200000D01*
%TO.N,Net-(U7-SPIHD)*%
X150500000Y-74250000D02*
X150880000Y-74250000D01*
X150880000Y-74250000D02*
X151530000Y-74900000D01*
D70*
%TO.N,GND*%
X157250000Y-69950000D02*
X157250000Y-70480000D01*
%TO.N,+1V8*%
X158250000Y-69950000D02*
X158250000Y-70480000D01*
D69*
%TO.N,Net-(U7-GPIO33)*%
X150500000Y-71050000D02*
X151180000Y-71050000D01*
X151180000Y-71050000D02*
X151530000Y-71400000D01*
D70*
%TO.N,+1V8*%
X158250000Y-70480000D02*
X158230000Y-70500000D01*
%TO.N,GND*%
X157250000Y-70480000D02*
X157270000Y-70500000D01*
D69*
%TO.N,/ESP MCU/MEM_D5*%
X152170000Y-70700000D02*
X155750000Y-70700000D01*
X158350000Y-71050000D02*
X159250000Y-71950000D01*
X155750000Y-70700000D02*
X156000000Y-70450000D01*
X156000000Y-70450000D02*
X156438016Y-70450000D01*
X156438016Y-70450000D02*
X157038016Y-71050000D01*
X157038016Y-71050000D02*
X158350000Y-71050000D01*
%TO.N,/ESP MCU/MEM_D1*%
X156741000Y-72459000D02*
X157700000Y-71500000D01*
X152511000Y-72459000D02*
X156741000Y-72459000D01*
X152170000Y-72800000D02*
X152511000Y-72459000D01*
%TD*%
M02*
