%TF.GenerationSoftware,KiCad,Pcbnew,9.0.1*%
%TF.CreationDate,2025-05-30T14:05:53-04:00*%
%TF.ProjectId,watch-pcb,77617463-682d-4706-9362-2e6b69636164,rev?*%
%TF.SameCoordinates,Original*%
%TF.FileFunction,Copper,L3,Inr*%
%TF.FilePolarity,Positive*%
%FSLAX46Y46*%
G04 Gerber Fmt 4.6, Leading zero omitted, Abs format (unit mm)*
G04 Created by KiCad (PCBNEW 9.0.1) date 2025-05-30 14:05:53*
%MOMM*%
%LPD*%
G01*
G04 APERTURE LIST*
G04 Aperture macros list*
%AMHorizOval*
0 Thick line with rounded ends*
0 $1 width*
0 $2 $3 position (X,Y) of the first rounded end (center of the circle)*
0 $4 $5 position (X,Y) of the second rounded end (center of the circle)*
0 Add line between two ends*
20,1,$1,$2,$3,$4,$5,0*
0 Add two circle primitives to create the rounded ends*
1,1,$1,$2,$3*
1,1,$1,$4,$5*%
G04 Aperture macros list end*
%TA.AperFunction,HeatsinkPad*%
%ADD10HorizOval,1.000000X-0.498469X0.232440X0.498469X-0.232440X0*%
%TD*%
%TA.AperFunction,HeatsinkPad*%
%ADD11HorizOval,1.000000X-0.362523X0.169047X0.362523X-0.169047X0*%
%TD*%
%TA.AperFunction,ComponentPad*%
%ADD12R,2.000000X2.000000*%
%TD*%
%TA.AperFunction,HeatsinkPad*%
%ADD13C,0.500000*%
%TD*%
%TA.AperFunction,ComponentPad*%
%ADD14R,1.500000X1.500000*%
%TD*%
%TA.AperFunction,ViaPad*%
%ADD15C,0.400000*%
%TD*%
%TA.AperFunction,ViaPad*%
%ADD16C,0.800000*%
%TD*%
G04 APERTURE END LIST*
D10*
%TO.N,GND*%
%TO.C,J2*%
X138476971Y-73574421D03*
D11*
X134688599Y-71807876D03*
X131037181Y-79638377D03*
D10*
X134825547Y-81404922D03*
%TD*%
D12*
%TO.N,+BATT*%
%TO.C,J7*%
X144712500Y-97970000D03*
%TD*%
D13*
%TO.N,GND*%
%TO.C,U9*%
X160562500Y-86820000D03*
X160562500Y-87570000D03*
X160562500Y-88320000D03*
X161262500Y-86820000D03*
X161262500Y-87570000D03*
X161262500Y-88320000D03*
%TD*%
D12*
%TO.N,GND*%
%TO.C,J8*%
X148412500Y-97970000D03*
%TD*%
D13*
%TO.N,GND*%
%TO.C,U7*%
X145300000Y-70300000D03*
X145300000Y-72050000D03*
X145300000Y-73800000D03*
X147050000Y-70300000D03*
X147050000Y-72050000D03*
X147050000Y-73800000D03*
X148800000Y-70300000D03*
X148800000Y-72050000D03*
X148800000Y-73800000D03*
%TD*%
D14*
%TO.N,Net-(J11-Pin_1)*%
%TO.C,J11*%
X152112500Y-103220000D03*
%TD*%
%TO.N,Net-(J13-Pin_1)*%
%TO.C,J13*%
X152112500Y-100720000D03*
%TD*%
D15*
%TO.N,/ESP MCU/MEM_D1*%
X157700000Y-71500000D03*
%TO.N,/ESP MCU/MEM_CLK*%
X156249999Y-70950000D03*
%TO.N,/ESP MCU/MEM_D4*%
X153250000Y-71550000D03*
%TO.N,/ESP MCU/MEM_DQS*%
X152800000Y-68600000D03*
%TO.N,/ESP MCU/MEM_D7*%
X155250000Y-69499000D03*
%TO.N,/ESP MCU/MEM_D6*%
X154199000Y-70000000D03*
%TO.N,/ESP MCU/MEM_D3*%
X158250000Y-72950000D03*
%TO.N,/ESP MCU/MEM_D0*%
X158250000Y-71950000D03*
%TO.N,+1V8*%
X156250000Y-72950001D03*
%TO.N,GND*%
X157250000Y-69950000D03*
X159250000Y-73950000D03*
%TO.N,+1V8*%
X159250000Y-72950000D03*
%TO.N,/ESP MCU/MEM_D2*%
X157250000Y-72950000D03*
%TO.N,/ESP MCU/MEM_D7*%
X159250000Y-69950000D03*
%TO.N,/ESP MCU/MEM_D5*%
X159250000Y-71950000D03*
D16*
%TO.N,/ESP MCU/SD_D1*%
X131149999Y-88289488D03*
D15*
%TO.N,+1V8*%
X158250000Y-69950000D03*
%TD*%
M02*
