%TF.GenerationSoftware,KiCad,Pcbnew,9.0.1*%
%TF.CreationDate,2025-05-30T14:05:54-04:00*%
%TF.ProjectId,watch-pcb,77617463-682d-4706-9362-2e6b69636164,rev?*%
%TF.SameCoordinates,Original*%
%TF.FileFunction,Legend,Bot*%
%TF.FilePolarity,Positive*%
%FSLAX46Y46*%
G04 Gerber Fmt 4.6, Leading zero omitted, Abs format (unit mm)*
G04 Created by KiCad (PCBNEW 9.0.1) date 2025-05-30 14:05:54*
%MOMM*%
%LPD*%
G01*
G04 APERTURE LIST*
%ADD10C,0.120000*%
%ADD11C,0.100000*%
G04 APERTURE END LIST*
D10*
%TO.C,U6*%
X152949999Y-68650000D02*
X153750000Y-68650000D01*
X152950000Y-69450000D02*
X152949999Y-68650000D01*
X153250000Y-68950000D02*
X153250000Y-74950000D01*
X153250000Y-74950000D02*
X161250000Y-74950000D01*
X161250000Y-68950000D02*
X153250000Y-68950000D01*
X161250000Y-74950000D02*
X161250000Y-68950000D01*
%TO.C,R45*%
X138980000Y-68896359D02*
X138980000Y-69203641D01*
X138220000Y-68896359D02*
X138220000Y-69203641D01*
%TO.C,C62*%
X152140000Y-66492164D02*
X152140000Y-66707836D01*
X152860000Y-66492164D02*
X152860000Y-66707836D01*
D11*
%TO.C,U3*%
X151825000Y-64225000D02*
X151675000Y-64225000D01*
X151835000Y-64225000D02*
X151835000Y-64375000D01*
X149125000Y-66775000D02*
X149125000Y-66925000D01*
X149125000Y-66925000D02*
X149275000Y-66925000D01*
X151825000Y-66925000D02*
X151825000Y-66775000D01*
X151825000Y-66925000D02*
X151675000Y-66925000D01*
D10*
X149125000Y-64225000D02*
X148765000Y-64225000D01*
X149125000Y-63865000D01*
X149125000Y-64225000D01*
G36*
X149125000Y-64225000D02*
G01*
X148765000Y-64225000D01*
X149125000Y-63865000D01*
X149125000Y-64225000D01*
G37*
%TO.C,C54*%
X152140000Y-64642164D02*
X152140000Y-64857836D01*
X152860000Y-64642164D02*
X152860000Y-64857836D01*
%TO.C,C63*%
X146201248Y-93985000D02*
X146723752Y-93985000D01*
X146201248Y-95455000D02*
X146723752Y-95455000D01*
%TO.C,C42*%
X147107836Y-74790000D02*
X146892164Y-74790000D01*
X147107836Y-75510000D02*
X146892164Y-75510000D01*
%TO.C,C68*%
X162807836Y-94490000D02*
X162592164Y-94490000D01*
X162807836Y-95210000D02*
X162592164Y-95210000D01*
%TO.C,Q1*%
X155002500Y-96340000D02*
X155002500Y-97750000D01*
X155002500Y-97750000D02*
X155662500Y-97750000D01*
X156662500Y-97750000D02*
X157322500Y-97750000D01*
X157322500Y-96340000D02*
X157322500Y-97750000D01*
X155022500Y-95970000D02*
X154692500Y-96210000D01*
X154692500Y-95730000D01*
X155022500Y-95970000D01*
G36*
X155022500Y-95970000D02*
G01*
X154692500Y-96210000D01*
X154692500Y-95730000D01*
X155022500Y-95970000D01*
G37*
%TO.C,SW8*%
X142880000Y-64130000D02*
X146120000Y-64130000D01*
X142880000Y-64230000D02*
X142880000Y-64130000D01*
X142880000Y-66370000D02*
X142880000Y-66270000D01*
X142880000Y-66370000D02*
X146120000Y-66370000D01*
X146120000Y-64230000D02*
X146120000Y-64130000D01*
X146120000Y-66370000D02*
X146120000Y-66270000D01*
%TO.C,C40*%
X139340000Y-70457836D02*
X139340000Y-70242164D01*
X140060000Y-70457836D02*
X140060000Y-70242164D01*
%TO.C,C75*%
X151902500Y-96212164D02*
X151902500Y-96427836D01*
X152622500Y-96212164D02*
X152622500Y-96427836D01*
%TO.C,D3*%
X145939997Y-95819999D02*
X147300001Y-95820002D01*
X145939998Y-96620000D02*
X147299999Y-96620001D01*
X147300001Y-95820002D02*
X147299999Y-96620001D01*
%TO.C,U14*%
X151660000Y-80600000D02*
X148350000Y-80600000D01*
X148750000Y-86420000D02*
X151640000Y-86420000D01*
X148310000Y-86630000D02*
X148030000Y-86350000D01*
X148310000Y-86350000D01*
X148310000Y-86630000D01*
G36*
X148310000Y-86630000D02*
G01*
X148030000Y-86350000D01*
X148310000Y-86350000D01*
X148310000Y-86630000D01*
G37*
%TO.C,C39*%
X139057836Y-71390000D02*
X138842164Y-71390000D01*
X139057836Y-72110000D02*
X138842164Y-72110000D01*
%TO.C,C71*%
X151902500Y-98082164D02*
X151902500Y-98297836D01*
X152622500Y-98082164D02*
X152622500Y-98297836D01*
%TO.C,J11*%
X151162500Y-102270000D02*
X151162500Y-104170000D01*
X151162500Y-104170000D02*
X153062500Y-104170000D01*
X153062500Y-102270000D02*
X151162500Y-102270000D01*
X153062500Y-104170000D02*
X153062500Y-102270000D01*
%TO.C,J13*%
X151162500Y-99770000D02*
X151162500Y-101670000D01*
X151162500Y-101670000D02*
X153062500Y-101670000D01*
X153062500Y-99770000D02*
X151162500Y-99770000D01*
X153062500Y-101670000D02*
X153062500Y-99770000D01*
%TO.C,J9*%
X154362500Y-101620000D02*
X158162500Y-101620000D01*
X158162500Y-99420000D01*
X154362500Y-99420000D01*
X154362500Y-101620000D01*
%TD*%
M02*
