M48
; DRILL file {KiCad 9.0.1} date 2025-05-30T14:15:51-0400
; FORMAT={-:-/ absolute / inch / decimal}
; #@! TF.CreationDate,2025-05-30T14:15:51-04:00
; #@! TF.GenerationSoftware,Kicad,Pcbnew,9.0.1
; #@! TF.FileFunction,Plated,1,6,PTH
FMAT,2
INCH
; #@! TA.AperFunction,Plated,PTH,ComponentDrill
T1C0.0079
; #@! TA.AperFunction,Plated,PTH,ViaDrill
T2C0.0118
; #@! TA.AperFunction,Plated,PTH,ViaDrill
T3C0.0157
; #@! TA.AperFunction,Plated,PTH,ComponentDrill
T4C0.0236
; #@! TA.AperFunction,Plated,PTH,ComponentDrill
T5C0.0276
; #@! TA.AperFunction,Plated,PTH,ComponentDrill
T6C0.0394
%
G90
G05
T1
X5.7205Y-2.7677
X5.7205Y-2.8366
X5.7205Y-2.9055
X5.7894Y-2.7677
X5.7894Y-2.8366
X5.7894Y-2.9055
X5.8583Y-2.7677
X5.8583Y-2.8366
X5.8583Y-2.9055
X6.3214Y-3.4181
X6.3214Y-3.4476
X6.3214Y-3.4772
X6.3489Y-3.4181
X6.3489Y-3.4476
X6.3489Y-3.4772
T2
X6.0157Y-2.7008
X6.0335Y-2.8169
X6.0708Y-2.7559
X6.1122Y-2.7362
X6.1516Y-2.7933
X6.1516Y-2.872
X6.1909Y-2.7539
X6.1909Y-2.872
X6.2087Y-2.815
X6.2303Y-2.7539
X6.2303Y-2.8327
X6.2303Y-2.872
X6.2697Y-2.7539
X6.2697Y-2.8327
X6.2697Y-2.872
X6.2697Y-2.9114
T3
X5.1634Y-3.476
T5
X5.9887Y-3.9654
X5.9887Y-4.0638
T6
X5.6973Y-3.8571
X5.843Y-3.8571
T4
G00X5.1732Y-3.142
M15
G01X5.1447Y-3.1287
M16
G05
G00X5.317Y-2.8337
M15
G01X5.2884Y-2.8204
M16
G05
G00X5.3277Y-3.2141
M15
G01X5.2885Y-3.1958
M16
G05
G00X5.4715Y-2.9058
M15
G01X5.4322Y-2.8875
M16
G05
M30
