%TF.GenerationSoftware,KiCad,Pcbnew,9.0.1*%
%TF.CreationDate,2025-05-30T14:05:53-04:00*%
%TF.ProjectId,watch-pcb,77617463-682d-4706-9362-2e6b69636164,rev?*%
%TF.SameCoordinates,Original*%
%TF.FileFunction,Paste,Top*%
%TF.FilePolarity,Positive*%
%FSLAX46Y46*%
G04 Gerber Fmt 4.6, Leading zero omitted, Abs format (unit mm)*
G04 Created by KiCad (PCBNEW 9.0.1) date 2025-05-30 14:05:53*
%MOMM*%
%LPD*%
G01*
G04 APERTURE LIST*
G04 Aperture macros list*
%AMRoundRect*
0 Rectangle with rounded corners*
0 $1 Rounding radius*
0 $2 $3 $4 $5 $6 $7 $8 $9 X,Y pos of 4 corners*
0 Add a 4 corners polygon primitive as box body*
4,1,4,$2,$3,$4,$5,$6,$7,$8,$9,$2,$3,0*
0 Add four circle primitives for the rounded corners*
1,1,$1+$1,$2,$3*
1,1,$1+$1,$4,$5*
1,1,$1+$1,$6,$7*
1,1,$1+$1,$8,$9*
0 Add four rect primitives between the rounded corners*
20,1,$1+$1,$2,$3,$4,$5,0*
20,1,$1+$1,$4,$5,$6,$7,0*
20,1,$1+$1,$6,$7,$8,$9,0*
20,1,$1+$1,$8,$9,$2,$3,0*%
%AMHorizOval*
0 Thick line with rounded ends*
0 $1 width*
0 $2 $3 position (X,Y) of the first rounded end (center of the circle)*
0 $4 $5 position (X,Y) of the second rounded end (center of the circle)*
0 Add line between two ends*
20,1,$1,$2,$3,$4,$5,0*
0 Add two circle primitives to create the rounded ends*
1,1,$1,$2,$3*
1,1,$1,$4,$5*%
%AMRotRect*
0 Rectangle, with rotation*
0 The origin of the aperture is its center*
0 $1 length*
0 $2 width*
0 $3 Rotation angle, in degrees counterclockwise*
0 Add horizontal line*
21,1,$1,$2,0,0,$3*%
G04 Aperture macros list end*
%ADD10C,0.000000*%
%ADD11C,0.010000*%
%ADD12C,0.400000*%
%ADD13RoundRect,0.140000X0.140000X0.170000X-0.140000X0.170000X-0.140000X-0.170000X0.140000X-0.170000X0*%
%ADD14RoundRect,0.140000X0.170000X-0.140000X0.170000X0.140000X-0.170000X0.140000X-0.170000X-0.140000X0*%
%ADD15RoundRect,0.079500X-0.079500X-0.100500X0.079500X-0.100500X0.079500X0.100500X-0.079500X0.100500X0*%
%ADD16RoundRect,0.225000X0.250000X-0.225000X0.250000X0.225000X-0.250000X0.225000X-0.250000X-0.225000X0*%
%ADD17RoundRect,0.250000X0.850000X-0.375000X0.850000X0.375000X-0.850000X0.375000X-0.850000X-0.375000X0*%
%ADD18RotRect,0.900000X1.700000X292.500000*%
%ADD19RoundRect,0.135000X-0.185000X0.135000X-0.185000X-0.135000X0.185000X-0.135000X0.185000X0.135000X0*%
%ADD20R,1.700000X0.900000*%
%ADD21RoundRect,0.147500X-0.172500X0.147500X-0.172500X-0.147500X0.172500X-0.147500X0.172500X0.147500X0*%
%ADD22RotRect,0.900000X1.700000X306.700000*%
%ADD23RoundRect,0.140000X-0.170000X0.140000X-0.170000X-0.140000X0.170000X-0.140000X0.170000X0.140000X0*%
%ADD24RoundRect,0.200000X0.275000X-0.200000X0.275000X0.200000X-0.275000X0.200000X-0.275000X-0.200000X0*%
%ADD25RoundRect,0.140000X-0.140000X-0.170000X0.140000X-0.170000X0.140000X0.170000X-0.140000X0.170000X0*%
%ADD26RoundRect,0.250000X-1.450000X-0.650000X1.450000X-0.650000X1.450000X0.650000X-1.450000X0.650000X0*%
%ADD27RoundRect,0.135000X0.185000X-0.135000X0.185000X0.135000X-0.185000X0.135000X-0.185000X-0.135000X0*%
%ADD28RoundRect,0.075000X0.650000X0.075000X-0.650000X0.075000X-0.650000X-0.075000X0.650000X-0.075000X0*%
%ADD29R,0.240000X0.450000*%
%ADD30R,0.500000X0.470000*%
%ADD31R,0.375000X0.350000*%
%ADD32R,0.350000X0.375000*%
%ADD33RoundRect,0.200000X-0.200000X-0.275000X0.200000X-0.275000X0.200000X0.275000X-0.200000X0.275000X0*%
%ADD34RoundRect,0.150000X-0.321788X0.315559X-0.448574X0.043667X0.321788X-0.315559X0.448574X-0.043667X0*%
%ADD35RoundRect,0.075000X-0.421458X0.279282X-0.484850X0.143336X0.421458X-0.279282X0.484850X-0.143336X0*%
%ADD36HorizOval,1.000000X-0.498469X0.232440X0.498469X-0.232440X0*%
%ADD37HorizOval,1.000000X-0.362523X0.169047X0.362523X-0.169047X0*%
%ADD38RoundRect,0.147500X0.147500X0.172500X-0.147500X0.172500X-0.147500X-0.172500X0.147500X-0.172500X0*%
%ADD39RoundRect,0.200000X0.200000X0.275000X-0.200000X0.275000X-0.200000X-0.275000X0.200000X-0.275000X0*%
%ADD40RoundRect,0.150000X0.150000X-0.512500X0.150000X0.512500X-0.150000X0.512500X-0.150000X-0.512500X0*%
%ADD41RoundRect,0.150000X0.512500X0.150000X-0.512500X0.150000X-0.512500X-0.150000X0.512500X-0.150000X0*%
%ADD42RotRect,0.900000X1.700000X249.000000*%
%ADD43RoundRect,0.100000X0.400000X0.400000X-0.400000X0.400000X-0.400000X-0.400000X0.400000X-0.400000X0*%
%ADD44RoundRect,0.105000X0.420000X0.995000X-0.420000X0.995000X-0.420000X-0.995000X0.420000X-0.995000X0*%
%ADD45RoundRect,0.130000X-0.130000X-0.305000X0.130000X-0.305000X0.130000X0.305000X-0.130000X0.305000X0*%
%ADD46RoundRect,0.062500X-0.350000X-0.062500X0.350000X-0.062500X0.350000X0.062500X-0.350000X0.062500X0*%
%ADD47R,1.400000X1.200000*%
%ADD48RotRect,0.700000X1.100000X120.000000*%
%ADD49RotRect,0.900000X0.930000X120.000000*%
%ADD50RotRect,1.050000X0.780000X120.000000*%
%ADD51RotRect,1.140000X1.830000X120.000000*%
%ADD52RotRect,0.860000X2.800000X120.000000*%
%ADD53RotRect,0.700000X3.330000X120.000000*%
%ADD54RoundRect,0.135000X-0.135000X-0.185000X0.135000X-0.185000X0.135000X0.185000X-0.135000X0.185000X0*%
%ADD55R,1.000000X1.800000*%
%ADD56RoundRect,0.249999X-0.524597X-0.524597X0.524597X-0.524597X0.524597X0.524597X-0.524597X0.524597X0*%
%ADD57RoundRect,0.050000X-0.350000X-0.050000X0.350000X-0.050000X0.350000X0.050000X-0.350000X0.050000X0*%
%ADD58RoundRect,0.050000X-0.050000X-0.350000X0.050000X-0.350000X0.050000X0.350000X-0.050000X0.350000X0*%
%ADD59RoundRect,0.250000X0.375000X0.850000X-0.375000X0.850000X-0.375000X-0.850000X0.375000X-0.850000X0*%
%ADD60R,3.400000X0.980000*%
G04 APERTURE END LIST*
D10*
%TO.C,MK1*%
G36*
X138670501Y-70630002D02*
G01*
X138248501Y-70630002D01*
X138248498Y-70130001D01*
X138670500Y-70130001D01*
X138670501Y-70630002D01*
G37*
G36*
X138670501Y-68330001D02*
G01*
X138670502Y-68830000D01*
X138248500Y-68830001D01*
X138248501Y-68330000D01*
X138670501Y-68330001D01*
G37*
G36*
X139492501Y-68330002D02*
G01*
X139492502Y-68830001D01*
X139070502Y-68830001D01*
X139070502Y-68330001D01*
X139492501Y-68330002D01*
G37*
G36*
X139492501Y-69230004D02*
G01*
X139492501Y-69730000D01*
X139070501Y-69730000D01*
X139070500Y-69230001D01*
X139492501Y-69230004D01*
G37*
G36*
X139492501Y-70629999D02*
G01*
X139070502Y-70630001D01*
X139070501Y-70130001D01*
X139492501Y-70130001D01*
X139492501Y-70629999D01*
G37*
G36*
X137157501Y-68919701D02*
G01*
X137047701Y-68940701D01*
X136944301Y-68982901D01*
X136851201Y-69044701D01*
X136772200Y-69123701D01*
X136710402Y-69216801D01*
X136668201Y-69320200D01*
X136647201Y-69430000D01*
X136396501Y-69430002D01*
X136424102Y-69264502D01*
X136485001Y-69108300D01*
X136576702Y-68967802D01*
X136695302Y-68849201D01*
X136835800Y-68757501D01*
X136992000Y-68696601D01*
X137157502Y-68669001D01*
X137157501Y-68919701D01*
G37*
G36*
X136647201Y-69530003D02*
G01*
X136668200Y-69639801D01*
X136710401Y-69743201D01*
X136772201Y-69836302D01*
X136851200Y-69915301D01*
X136944301Y-69977101D01*
X137047701Y-70019302D01*
X137157501Y-70040301D01*
X137157501Y-70291003D01*
X136992001Y-70263400D01*
X136835801Y-70202500D01*
X136695302Y-70110801D01*
X136576701Y-69992200D01*
X136485001Y-69851703D01*
X136424101Y-69695501D01*
X136396502Y-69530000D01*
X136647201Y-69530003D01*
G37*
G36*
X137423001Y-68696601D02*
G01*
X137579201Y-68757501D01*
X137719701Y-68849200D01*
X137838301Y-68967801D01*
X137930001Y-69108301D01*
X137990902Y-69264501D01*
X138018501Y-69430001D01*
X137767800Y-69430001D01*
X137746801Y-69320201D01*
X137704602Y-69216800D01*
X137642802Y-69123700D01*
X137563801Y-69044701D01*
X137470701Y-68982901D01*
X137367303Y-68940701D01*
X137257500Y-68919701D01*
X137257502Y-68669000D01*
X137423001Y-68696601D01*
G37*
G36*
X137990901Y-69695500D02*
G01*
X137930000Y-69851703D01*
X137838301Y-69992202D01*
X137719701Y-70110802D01*
X137579201Y-70202501D01*
X137423001Y-70263401D01*
X137257500Y-70291001D01*
X137257501Y-70040302D01*
X137367301Y-70019302D01*
X137470701Y-69977100D01*
X137563801Y-69915300D01*
X137642801Y-69836302D01*
X137704600Y-69743201D01*
X137746799Y-69639801D01*
X137767801Y-69530001D01*
X138018501Y-69530001D01*
X137990901Y-69695500D01*
G37*
D11*
%TO.C,D2*%
X169662500Y-84662500D02*
X169962500Y-84662500D01*
X169962500Y-84962500D01*
X169362500Y-84962500D01*
X169362500Y-84062500D01*
X169662500Y-84062500D01*
X169662500Y-84662500D01*
G36*
X169662500Y-84662500D02*
G01*
X169962500Y-84662500D01*
X169962500Y-84962500D01*
X169362500Y-84962500D01*
X169362500Y-84062500D01*
X169662500Y-84062500D01*
X169662500Y-84662500D01*
G37*
X169962500Y-87662500D02*
X169662500Y-87662500D01*
X169662500Y-88262500D01*
X169362500Y-88262500D01*
X169362500Y-87362500D01*
X169962500Y-87362500D01*
X169962500Y-87662500D01*
G36*
X169962500Y-87662500D02*
G01*
X169662500Y-87662500D01*
X169662500Y-88262500D01*
X169362500Y-88262500D01*
X169362500Y-87362500D01*
X169962500Y-87362500D01*
X169962500Y-87662500D01*
G37*
%TO.C,D1*%
X169662500Y-79362500D02*
X169962500Y-79362500D01*
X169962500Y-79662500D01*
X169362500Y-79662500D01*
X169362500Y-78762500D01*
X169662500Y-78762500D01*
X169662500Y-79362500D01*
G36*
X169662500Y-79362500D02*
G01*
X169962500Y-79362500D01*
X169962500Y-79662500D01*
X169362500Y-79662500D01*
X169362500Y-78762500D01*
X169662500Y-78762500D01*
X169662500Y-79362500D01*
G37*
X169962500Y-82362500D02*
X169662500Y-82362500D01*
X169662500Y-82962500D01*
X169362500Y-82962500D01*
X169362500Y-82062500D01*
X169962500Y-82062500D01*
X169962500Y-82362500D01*
G36*
X169962500Y-82362500D02*
G01*
X169662500Y-82362500D01*
X169662500Y-82962500D01*
X169362500Y-82962500D01*
X169362500Y-82062500D01*
X169962500Y-82062500D01*
X169962500Y-82362500D01*
G37*
D10*
%TO.C,MK2*%
G36*
X162429500Y-95100000D02*
G01*
X162007500Y-95100000D01*
X162007500Y-94600000D01*
X162429500Y-94600000D01*
X162429500Y-95100000D01*
G37*
G36*
X162429501Y-96000000D02*
G01*
X162007500Y-96000000D01*
X162007500Y-95500000D01*
X162429500Y-95500000D01*
X162429501Y-96000000D01*
G37*
G36*
X162429500Y-96900000D02*
G01*
X162007500Y-96900000D01*
X162007500Y-96400000D01*
X162429500Y-96400000D01*
X162429500Y-96900000D01*
G37*
G36*
X163251500Y-95100000D02*
G01*
X162829500Y-95100000D01*
X162829500Y-94600000D01*
X163251500Y-94600000D01*
X163251500Y-95100000D01*
G37*
G36*
X163251500Y-96900000D02*
G01*
X162829500Y-96900000D01*
X162829500Y-96400000D01*
X163251500Y-96400000D01*
X163251500Y-96900000D01*
G37*
G36*
X164242500Y-95189700D02*
G01*
X164132700Y-95210700D01*
X164029300Y-95252900D01*
X163936200Y-95314700D01*
X163857200Y-95393700D01*
X163795400Y-95486800D01*
X163753200Y-95590200D01*
X163732200Y-95700000D01*
X163481499Y-95700000D01*
X163509100Y-95534500D01*
X163570000Y-95378300D01*
X163661700Y-95237800D01*
X163780300Y-95119200D01*
X163920800Y-95027500D01*
X164077001Y-94966600D01*
X164242500Y-94939000D01*
X164242500Y-95189700D01*
G37*
G36*
X163753200Y-95909800D02*
G01*
X163795400Y-96013200D01*
X163857200Y-96106300D01*
X163936200Y-96185300D01*
X164029300Y-96247100D01*
X164132700Y-96289300D01*
X164242500Y-96310299D01*
X164242500Y-96561000D01*
X164077000Y-96533400D01*
X163920800Y-96472500D01*
X163780300Y-96380799D01*
X163661700Y-96262200D01*
X163570000Y-96121700D01*
X163509100Y-95965500D01*
X163481500Y-95800000D01*
X163732200Y-95800000D01*
X163753200Y-95909800D01*
G37*
G36*
X164508000Y-94966600D02*
G01*
X164664200Y-95027500D01*
X164804700Y-95119200D01*
X164923299Y-95237800D01*
X165015000Y-95378300D01*
X165075900Y-95534500D01*
X165103500Y-95700000D01*
X164852800Y-95700000D01*
X164831799Y-95590200D01*
X164789600Y-95486800D01*
X164727800Y-95393699D01*
X164648800Y-95314700D01*
X164555700Y-95252900D01*
X164452300Y-95210700D01*
X164342500Y-95189700D01*
X164342500Y-94939000D01*
X164508000Y-94966600D01*
G37*
G36*
X165075900Y-95965500D02*
G01*
X165015000Y-96121700D01*
X164923300Y-96262200D01*
X164804700Y-96380800D01*
X164664200Y-96472499D01*
X164508000Y-96533400D01*
X164342499Y-96561000D01*
X164342499Y-96310300D01*
X164452300Y-96289300D01*
X164555700Y-96247100D01*
X164648800Y-96185300D01*
X164727800Y-96106300D01*
X164789600Y-96013200D01*
X164831799Y-95909800D01*
X164852800Y-95800000D01*
X165103500Y-95800000D01*
X165075900Y-95965500D01*
G37*
%TD*%
D12*
%TO.C,U5*%
X159300000Y-64250000D03*
X159300000Y-65250000D03*
X159300001Y-66250000D03*
X159300000Y-67250000D03*
X159300000Y-68250000D03*
X158300000Y-64250000D03*
X158300000Y-65250000D03*
X158300000Y-66250000D03*
X158300000Y-67250000D03*
X158300000Y-68250000D03*
X157300000Y-64249999D03*
X157300000Y-65250000D03*
X157300000Y-66250000D03*
X157300000Y-67250000D03*
X157300000Y-68250001D03*
X156300000Y-64250000D03*
X156300000Y-65250000D03*
X156300000Y-66250000D03*
X156300000Y-67250000D03*
X156300000Y-68250000D03*
X155300000Y-64250000D03*
X155300000Y-65250000D03*
X155299999Y-66250000D03*
X155300000Y-67250000D03*
%TD*%
D13*
%TO.C,C30*%
X157270000Y-70500000D03*
X158230000Y-70500000D03*
%TD*%
D14*
%TO.C,C28*%
X156250000Y-71970000D03*
X156250000Y-72930000D03*
%TD*%
%TO.C,C27*%
X155300000Y-71970000D03*
X155300000Y-72930000D03*
%TD*%
%TO.C,C35*%
X151630000Y-75720000D03*
X151630000Y-76680000D03*
%TD*%
D15*
%TO.C,R55*%
X151505000Y-68600000D03*
X152195000Y-68600000D03*
%TD*%
%TO.C,R54*%
X151505000Y-72100000D03*
X152195000Y-72100000D03*
%TD*%
%TO.C,R53*%
X151505000Y-72800000D03*
X152195000Y-72800000D03*
%TD*%
%TO.C,R52*%
X151505000Y-73500000D03*
X152195000Y-73500000D03*
%TD*%
%TO.C,R51*%
X151505000Y-74200000D03*
X152195000Y-74200000D03*
%TD*%
%TO.C,R50*%
X151505000Y-74900000D03*
X152195000Y-74900000D03*
%TD*%
%TO.C,R44*%
X151505000Y-69300000D03*
X152195000Y-69300000D03*
%TD*%
%TO.C,R37*%
X151505000Y-70000000D03*
X152195000Y-70000000D03*
%TD*%
%TO.C,R35*%
X151505000Y-70700000D03*
X152195000Y-70700000D03*
%TD*%
%TO.C,R8*%
X151505000Y-71400000D03*
X152195000Y-71400000D03*
%TD*%
D16*
%TO.C,C82*%
X165400000Y-77875000D03*
X165400000Y-76325000D03*
%TD*%
D17*
%TO.C,L9*%
X162600000Y-81675000D03*
X162600000Y-79525000D03*
%TD*%
D18*
%TO.C,SW4*%
X167608624Y-74549406D03*
X168909746Y-77690594D03*
%TD*%
D19*
%TO.C,R46*%
X150250000Y-83340000D03*
X150250000Y-84360000D03*
%TD*%
D20*
%TO.C,SW1*%
X130212500Y-85220000D03*
X130212500Y-81820000D03*
%TD*%
D21*
%TO.C,L4*%
X141500000Y-67995000D03*
X141500000Y-68965000D03*
%TD*%
D16*
%TO.C,C84*%
X154900000Y-77040000D03*
X154900000Y-75490000D03*
%TD*%
D22*
%TO.C,SW3*%
X164696538Y-70256983D03*
X166728462Y-72983017D03*
%TD*%
D23*
%TO.C,C41*%
X142465000Y-71770000D03*
X142465000Y-72730000D03*
%TD*%
D14*
%TO.C,C38*%
X140615000Y-70830000D03*
X140615000Y-69870000D03*
%TD*%
%TO.C,C22*%
X142450000Y-68960000D03*
X142450000Y-68000000D03*
%TD*%
D24*
%TO.C,R4*%
X168262500Y-82995000D03*
X168262500Y-81345000D03*
%TD*%
D25*
%TO.C,C33*%
X143500000Y-67450000D03*
X144460000Y-67450000D03*
%TD*%
D26*
%TO.C,J10*%
X156262500Y-102020000D03*
%TD*%
D23*
%TO.C,C32*%
X149550000Y-77120000D03*
X149550000Y-78080000D03*
%TD*%
D27*
%TO.C,R47*%
X163912500Y-74130000D03*
X163912500Y-73110000D03*
%TD*%
D24*
%TO.C,R16*%
X137312500Y-86995000D03*
X137312500Y-85345000D03*
%TD*%
D23*
%TO.C,L6*%
X145350000Y-66495000D03*
X145350000Y-67455000D03*
%TD*%
D25*
%TO.C,C34*%
X143500000Y-66500000D03*
X144460000Y-66500000D03*
%TD*%
D14*
%TO.C,C76*%
X151200000Y-84330000D03*
X151200000Y-83370000D03*
%TD*%
%TO.C,C47*%
X148750000Y-64780000D03*
X148750000Y-63820000D03*
%TD*%
D28*
%TO.C,U13*%
X156712500Y-98270000D03*
X156712500Y-97769999D03*
X156712500Y-97270000D03*
X156712500Y-96770001D03*
X156712500Y-96270000D03*
X152312500Y-96270000D03*
X152312500Y-96770001D03*
X152312500Y-97270000D03*
X152312500Y-97769999D03*
X152312500Y-98270000D03*
%TD*%
D23*
%TO.C,C55*%
X163362500Y-84590000D03*
X163362500Y-85550000D03*
%TD*%
D14*
%TO.C,C58*%
X163262500Y-89150000D03*
X163262500Y-88190000D03*
%TD*%
D29*
%TO.C,J6*%
X157062500Y-93195000D03*
X157462500Y-93195000D03*
X157862500Y-93195000D03*
X158262500Y-93195000D03*
X158662500Y-93195000D03*
X159062500Y-93195000D03*
X159462500Y-93195000D03*
X159862500Y-93195000D03*
X160262500Y-93195000D03*
X160662500Y-93195000D03*
X161062500Y-93195000D03*
X161462500Y-93195000D03*
X161462500Y-90845000D03*
X161062500Y-90845000D03*
X160662500Y-90845000D03*
X160262500Y-90845000D03*
X159862500Y-90845000D03*
X159462500Y-90845000D03*
X159062500Y-90845000D03*
X158662500Y-90845000D03*
X158262500Y-90845000D03*
X157862500Y-90845000D03*
X157462500Y-90845000D03*
X157062500Y-90845000D03*
D30*
X156312500Y-90875000D03*
X156312500Y-93165000D03*
X162212500Y-90875000D03*
X162212500Y-93165000D03*
%TD*%
D31*
%TO.C,U10*%
X150117500Y-63550000D03*
X150117500Y-64050000D03*
X150117500Y-64550000D03*
X150117500Y-65050000D03*
D32*
X150630000Y-65062500D03*
X151130000Y-65062500D03*
D31*
X151642500Y-65050000D03*
X151642500Y-64550000D03*
X151642500Y-64050000D03*
X151642500Y-63550000D03*
D32*
X151130000Y-63537500D03*
X150630000Y-63537500D03*
%TD*%
D13*
%TO.C,R36*%
X159742500Y-95870000D03*
X158782500Y-95870000D03*
%TD*%
D33*
%TO.C,R29*%
X156325000Y-83665000D03*
X157975000Y-83665000D03*
%TD*%
D13*
%TO.C,C78*%
X156742500Y-99520000D03*
X155782500Y-99520000D03*
%TD*%
D23*
%TO.C,C21*%
X140550000Y-67970000D03*
X140550000Y-68930000D03*
%TD*%
D27*
%TO.C,R26*%
X132462500Y-84630000D03*
X132462500Y-83610000D03*
%TD*%
D16*
%TO.C,C73*%
X152200000Y-82187500D03*
X152200000Y-80637500D03*
%TD*%
D23*
%TO.C,C43*%
X148462500Y-66520000D03*
X148462500Y-67480000D03*
%TD*%
D34*
%TO.C,J2*%
X138524763Y-74832493D03*
X138186671Y-75557539D03*
D35*
X137700659Y-76599793D03*
X137278039Y-77506100D03*
X137066730Y-77959254D03*
X136644111Y-78865561D03*
D34*
X136158100Y-79907815D03*
X135820007Y-80632863D03*
X135820007Y-80632863D03*
X136158100Y-79907815D03*
D35*
X136432804Y-79318714D03*
X136855420Y-78412405D03*
X137489349Y-77052942D03*
X137911969Y-76146638D03*
D34*
X138186671Y-75557539D03*
X138524763Y-74832493D03*
D36*
X138476971Y-73574421D03*
D37*
X134688599Y-71807876D03*
X131037181Y-79638377D03*
D36*
X134825547Y-81404922D03*
%TD*%
D14*
%TO.C,C59*%
X149867500Y-66950000D03*
X149867500Y-65990000D03*
%TD*%
D23*
%TO.C,C57*%
X158512500Y-86990000D03*
X158512500Y-87950000D03*
%TD*%
D14*
%TO.C,C46*%
X143550000Y-64780000D03*
X143550000Y-63820000D03*
%TD*%
D38*
%TO.C,L5*%
X142500000Y-70850000D03*
X141530000Y-70850000D03*
%TD*%
D14*
%TO.C,C77*%
X151000000Y-82480000D03*
X151000000Y-81520000D03*
%TD*%
D39*
%TO.C,R28*%
X157975000Y-85165000D03*
X156325000Y-85165000D03*
%TD*%
D40*
%TO.C,U16*%
X164712501Y-81757500D03*
X165662500Y-81757500D03*
X166612499Y-81757500D03*
X166612499Y-79482500D03*
X165662500Y-79482500D03*
X164712501Y-79482500D03*
%TD*%
D13*
%TO.C,C37*%
X142495000Y-69900000D03*
X141535000Y-69900000D03*
%TD*%
D41*
%TO.C,U17*%
X158837500Y-82165000D03*
X158837500Y-81215000D03*
X158837500Y-80265000D03*
X156562500Y-80265000D03*
X156562500Y-81215000D03*
X156562500Y-82165000D03*
%TD*%
D23*
%TO.C,C29*%
X159250000Y-72970000D03*
X159250000Y-73930000D03*
%TD*%
D42*
%TO.C,SW5*%
X168921727Y-89432913D03*
X167703273Y-92607087D03*
%TD*%
D13*
%TO.C,C50*%
X151710000Y-66050000D03*
X150750000Y-66050000D03*
%TD*%
D43*
%TO.C,J3*%
X140550000Y-66630000D03*
D44*
X139075000Y-65130000D03*
D43*
X140550000Y-63630000D03*
D44*
X142025000Y-65130000D03*
%TD*%
D25*
%TO.C,R21*%
X146570000Y-79000000D03*
X147530000Y-79000000D03*
%TD*%
D45*
%TO.C,U9*%
X160612500Y-87070000D03*
X160612500Y-88070000D03*
X161212500Y-87070000D03*
X161212500Y-88070000D03*
D46*
X159700000Y-86570000D03*
X159700000Y-87070000D03*
X159700000Y-87570000D03*
X159700000Y-88070000D03*
X159700000Y-88570000D03*
X162125000Y-88570000D03*
X162125000Y-88070000D03*
X162125000Y-87570000D03*
X162125000Y-87070000D03*
X162125000Y-86570000D03*
%TD*%
D47*
%TO.C,Y2*%
X145050000Y-65150000D03*
X147250000Y-65150000D03*
X147250000Y-63450000D03*
X145050000Y-63450000D03*
%TD*%
D48*
%TO.C,J5*%
X134999997Y-94957884D03*
X134450000Y-94005256D03*
X133899999Y-93052628D03*
X133350000Y-92100000D03*
X132799999Y-91147375D03*
X132249999Y-90194744D03*
X131700001Y-89242116D03*
X131149999Y-88289488D03*
D49*
X146690008Y-90275570D03*
D50*
X144622457Y-86544469D03*
D51*
X136952988Y-98310562D03*
D52*
X131043012Y-87104178D03*
D53*
X146805775Y-92876091D03*
X140325775Y-81652398D03*
%TD*%
D16*
%TO.C,C81*%
X154900000Y-80040000D03*
X154900000Y-78490000D03*
%TD*%
D54*
%TO.C,R48*%
X164340000Y-75150000D03*
X165360000Y-75150000D03*
%TD*%
D13*
%TO.C,C48*%
X151710000Y-67000000D03*
X150750000Y-67000000D03*
%TD*%
D55*
%TO.C,Y1*%
X148300000Y-77350000D03*
X145800000Y-77350000D03*
%TD*%
D25*
%TO.C,C56*%
X163332500Y-86470000D03*
X164292500Y-86470000D03*
%TD*%
D23*
%TO.C,C31*%
X144550000Y-77120000D03*
X144550000Y-78080000D03*
%TD*%
D54*
%TO.C,R49*%
X164502500Y-91870000D03*
X165522500Y-91870000D03*
%TD*%
D56*
%TO.C,U7*%
X146175000Y-71175000D03*
X146175000Y-72925000D03*
X147925000Y-71175000D03*
X147925000Y-72925000D03*
D57*
X143600000Y-69450000D03*
X143600000Y-69850000D03*
X143600000Y-70250000D03*
X143600000Y-70650000D03*
X143600000Y-71050000D03*
X143600000Y-71450000D03*
X143600000Y-71850000D03*
X143600000Y-72250000D03*
X143600000Y-72650000D03*
X143600000Y-73050000D03*
X143600000Y-73450000D03*
X143600000Y-73850000D03*
X143600000Y-74250000D03*
X143600000Y-74650000D03*
D58*
X144450000Y-75500000D03*
X144850000Y-75500000D03*
X145250000Y-75500000D03*
X145650000Y-75500000D03*
X146050000Y-75500000D03*
X146450000Y-75500000D03*
X146850000Y-75500000D03*
X147250000Y-75500000D03*
X147650000Y-75500000D03*
X148050000Y-75500000D03*
X148450000Y-75500000D03*
X148850000Y-75500000D03*
X149250000Y-75500000D03*
X149650000Y-75500000D03*
D57*
X150500000Y-74650000D03*
X150500000Y-74250000D03*
X150500000Y-73850000D03*
X150500000Y-73450000D03*
X150500000Y-73050000D03*
X150500000Y-72650000D03*
X150500000Y-72250000D03*
X150500000Y-71850000D03*
X150500000Y-71450000D03*
X150500000Y-71050000D03*
X150500000Y-70650000D03*
X150500000Y-70250000D03*
X150500000Y-69850000D03*
X150500000Y-69450000D03*
D58*
X149650000Y-68600000D03*
X149250000Y-68600000D03*
X148850000Y-68600000D03*
X148450000Y-68600000D03*
X148050000Y-68600000D03*
X147650000Y-68600000D03*
X147250000Y-68600000D03*
X146850000Y-68600000D03*
X146450000Y-68600000D03*
X146050000Y-68600000D03*
X145650000Y-68600000D03*
X145250000Y-68600000D03*
X144850000Y-68600000D03*
X144450000Y-68600000D03*
%TD*%
D14*
%TO.C,C51*%
X163050000Y-77930000D03*
X163050000Y-76970000D03*
%TD*%
D25*
%TO.C,C67*%
X138470000Y-71600000D03*
X139430000Y-71600000D03*
%TD*%
D54*
%TO.C,R23*%
X140555000Y-71800000D03*
X141575000Y-71800000D03*
%TD*%
D59*
%TO.C,L7*%
X161937500Y-84620000D03*
X159787500Y-84620000D03*
%TD*%
D60*
%TO.C,L3*%
X157950000Y-78400000D03*
X157950000Y-76030000D03*
%TD*%
D14*
%TO.C,C36*%
X152550000Y-76680000D03*
X152550000Y-75720000D03*
%TD*%
D19*
%TO.C,R30*%
X153650000Y-78605000D03*
X153650000Y-79625000D03*
%TD*%
D14*
%TO.C,C72*%
X152150000Y-84330000D03*
X152150000Y-83370000D03*
%TD*%
D17*
%TO.C,L8*%
X165112500Y-90295000D03*
X165112500Y-88145000D03*
%TD*%
M02*
